SplineFontDB: 3.2
FontName: honchokomono-bold-normal
FullName: honchokomono greater
FamilyName: honchokomono-normal
Weight: bold
Copyright: Copyright (c) 2024, honchokomodo
UComments: "2024-6-9: Created with FontForge (http://fontforge.org)"
Version: 001.000
ItalicAngle: 0
UnderlinePosition: 0
UnderlineWidth: 0
Ascent: 800
Descent: 200
InvalidEm: 0
LayerCount: 2
Layer: 0 0 "Back" 1
Layer: 1 0 "Fore" 0
XUID: [1021 669 1385941162 1060273]
FSType: 0
OS2Version: 4
OS2_WeightWidthSlopeOnly: 0
OS2_UseTypoMetrics: 1
CreationTime: 1717993120
ModificationTime: 1734655507
PfmFamily: 49
TTFWeight: 700
TTFWidth: 5
LineGap: 68
VLineGap: 0
OS2TypoAscent: 977
OS2TypoAOffset: 0
OS2TypoDescent: -273
OS2TypoDOffset: 0
OS2TypoLinegap: 0
OS2WinAscent: 977
OS2WinAOffset: 0
OS2WinDescent: 273
OS2WinDOffset: 0
HheadAscent: 977
HheadAOffset: 0
HheadDescent: -205
HheadDOffset: 0
OS2CapHeight: 735
OS2XHeight: 530
OS2Vendor: 'PfEd'
Lookup: 1 0 0 "rightarrowhead" { "rightarrowhead-1"  } ['aalt' ('DFLT' <'dflt' > 'latn' <'dflt' > ) ]
Lookup: 1 0 0 "leftarrowhead" { "leftarrowhead-1"  } ['aalt' ('DFLT' <'dflt' > 'latn' <'dflt' > ) ]
Lookup: 1 0 0 "longequal" { "longequal-1"  } ['aalt' ('DFLT' <'dflt' > 'latn' <'dflt' > ) ]
Lookup: 1 0 0 "rightequal" { "rightequal-1"  } ['aalt' ('DFLT' <'dflt' > 'latn' <'dflt' > ) ]
Lookup: 1 0 0 "leftequal" { "leftequal-1"  } ['aalt' ('DFLT' <'dflt' > 'latn' <'dflt' > ) ]
Lookup: 1 0 0 "longhyphen" { "longhyphen-1"  } ['aalt' ('DFLT' <'dflt' > 'latn' <'dflt' > ) ]
Lookup: 1 0 0 "righthyphen" { "righthyphen-1"  } ['aalt' ('DFLT' <'dflt' > 'latn' <'dflt' > ) ]
Lookup: 1 0 0 "lefthyphen" { "lefthyphen-1"  } ['aalt' ('DFLT' <'dflt' > 'latn' <'dflt' > ) ]
Lookup: 6 0 0 "caltrules" { "rightarrowhead"  "leftarrowhead"  "longequal"  "rightequal"  "leftequal"  "longhyphen"  "righthyphen"  "lefthyphen"  } ['calt' ('DFLT' <'dflt' > 'latn' <'dflt' > ) ]
Lookup: 4 0 1 "ligatures" { "ligatures-1"  } ['liga' ('DFLT' <'dflt' > 'latn' <'dflt' > ) ]
MarkAttachClasses: 1

StartChar: exclam
Encoding: 33 33 1
Width: 500
Flags: HW
LayerCount: 2
Fore
SplineSet
331.596679688 51.65234375 m 0
 331.596679688 96.0033585692 293.53445792 134.969726562 248.403320312 134.969726562 c 0
 201.584627443 134.969726562 168.353060248 96.2967806386 168.353060248 54.6217460149 c 0
 168.353060248 32.0400409147 178.109971338 8.5769114641 200.749023438 -10.0927734375 c 0
 216.047657563 -22.7091066722 233.683221403 -28.377998717 250.952592962 -28.377998717 c 0
 292.325530125 -28.377998717 331.596679688 4.15902519256 331.596679688 51.65234375 c 0
304.51953125 252.490234375 m 0
 304.51953125 254.233398438 304.241210938 264.748046875 304.241210938 283.078125 c 0
 304.241210938 324.215820312 305.6640625 368.287109375 307.125 413.139648438 c 0
 308.637494468 459.556106037 310.119874367 505.506714412 310.119874367 549.769142721 c 0
 310.119874367 596.386774333 308.475542567 641.131790046 303.490234375 682.576171875 c 0
 299.916015625 712.288085938 274.590820312 735.34765625 243.921875 735.34765625 c 0
 210.806640625 735.34765625 183.921875 708.462890625 183.921875 675.34765625 c 0
 183.921875 664.961914062 190.11328125 635.786132812 190.11328125 549.51171875 c 0
 190.11328125 465.005524452 184.244538099 369.464821934 184.244538099 282.751987275 c 0
 184.244538099 272.130466653 184.332592634 261.64139923 184.530273438 251.321289062 c 0
 185.154296875 218.745117188 211.794921875 192.490234375 244.51953125 192.490234375 c 0
 277.634765625 192.490234375 304.51953125 219.375 304.51953125 252.490234375 c 0
EndSplineSet
EndChar

StartChar: quotedbl
Encoding: 34 34 2
Width: 500
Flags: HW
LayerCount: 2
Fore
SplineSet
165.75 763.141601562 m 0
 132.634196332 763.141601562 105.749546147 736.255598183 105.749546147 703.141936363 c 0
 105.749546147 703.063409173 105.74969734 702.98484696 105.75 702.90625 c 0
 105.756835938 701.294921875 105.974609375 562.458984375 106.255859375 541.809570312 c 0
 106.701171875 509.078125 133.413085938 482.641601562 166.25 482.641601562 c 0
 199.371649745 482.641601562 226.249823669 509.535318438 226.249823669 542.639481686 c 0
 226.249823669 542.917099359 226.247933378 543.195153801 226.244140625 543.473632812 c 0
 225.984375 562.575195312 225.755859375 701.778320312 225.75 703.377929688 c 0
 225.622070312 736.383789062 198.786132812 763.141601562 165.75 763.141601562 c 0
333.75 763.141601562 m 0
 300.634196332 763.141601562 273.749546147 736.255598183 273.749546147 703.141936363 c 0
 273.749546147 703.063409173 273.74969734 702.98484696 273.75 702.90625 c 0
 273.756835938 701.294921875 273.974609375 562.458984375 274.255859375 541.809570312 c 0
 274.701171875 509.078125 301.413085938 482.641601562 334.25 482.641601562 c 0
 367.371649745 482.641601562 394.249823669 509.535318438 394.249823669 542.639481686 c 0
 394.249823669 542.917099359 394.247933378 543.195153801 394.244140625 543.473632812 c 0
 393.984375 562.575195312 393.755859375 701.778320312 393.75 703.377929688 c 0
 393.622070312 736.383789062 366.786132812 763.141601562 333.75 763.141601562 c 0
EndSplineSet
EndChar

StartChar: numbersign
Encoding: 35 35 3
Width: 500
Flags: HW
LayerCount: 2
Fore
SplineSet
276.75390625 673.375976562 m 0
 276.918292499 675.210614556 276.998822362 677.031539019 276.998822362 678.835204398 c 0
 276.998822362 711.673002545 250.306087136 738.790039063 216.995117188 738.790039062 c 0
 185.705078125 738.790039062 159.9765625 714.786132812 157.236328125 684.204101562 c 0
 153.492052515 642.416932222 147.289164073 594.935188353 139.705087795 544.415347334 c 1
 98.5557533815 545.46582418 76.58984375 546.940429688 76.58984375 546.940429688 c 1
 43.474609375 546.940429688 16.58984375 520.055664062 16.58984375 486.940429688 c 0
 16.58984375 455.07421875 41.486328125 428.9765625 72.8720703125 427.053710938 c 0
 86.0943057628 426.24384308 102.030488358 425.520130366 120.459542165 424.933699041 c 1
 114.642976407 390.528121954 108.595305683 355.704055406 102.601393246 321.163852496 c 1
 92.3342845516 321.117785433 83.8548876998 321.041981686 77.9013671875 320.928710938 c 0
 45.3212890625 320.30859375 19.0625 293.666015625 19.0625 260.939453125 c 0
 19.0625 227.82421875 45.947265625 200.939453125 79.0625 200.939453125 c 0
 79.5359445813 200.939453125 80.5023117314 200.956089964 82.034228358 200.982845938 c 1
 73.5936085244 150.221639991 66.0836050991 102.115450491 60.5517578125 59.2470703125 c 0
 60.2127589059 56.6200783651 60.0480553524 54.0155437236 60.0480553524 51.4441934783 c 0
 60.0480553524 18.8009923803 86.5920314608 -8.494140625 120.055664062 -8.494140625 c 0
 150.547851562 -8.494140625 175.7578125 14.30078125 179.559570312 43.7646484375 c 0
 185.654483514 90.9951305292 194.168318609 144.444801753 203.699874123 200.904207824 c 1
 217.89440578 200.824162313 233.506311514 200.747015762 249.774753084 200.685147034 c 1
 235.370630014 111.279127103 227.837890625 61.8247432763 227.837890625 54.6689453125 c 0
 227.837890625 21.5537109375 254.72265625 -5.3310546875 287.837890625 -5.3310546875 c 0
 317.975585938 -5.3310546875 342.953125 16.9375 347.201171875 45.904296875 c 0
 354.233648781 93.8621755359 362.519268034 146.200263197 371.33299015 200.695626689 c 1
 391.445133805 200.817655896 409.298505949 201.024086369 423.000976562 201.345703125 c 0
 455.455078125 202.107421875 481.568359375 228.693359375 481.568359375 261.329101562 c 0
 481.568359375 294.444335938 454.68359375 321.329101562 421.568359375 321.329101562 c 0
 419.540313467 321.329101562 410.096494433 321.035980621 390.897267217 320.780660092 c 1
 396.624953698 355.927120503 402.355729182 391.293571346 407.916707874 426.381007796 c 1
 418.573771881 426.722617939 429.401418827 427.096697895 440.392578125 427.504882812 c 0
 472.4609375 428.6953125 498.130859375 455.10546875 498.130859375 487.462890625 c 0
 498.130859375 520.578125 471.24609375 547.462890625 438.130859375 547.462890625 c 0
 437.717808066 547.462890625 433.584612864 547.307452132 426.383333445 547.057253477 c 1
 432.968090279 592.141142613 438.890961462 635.691022011 443.740234375 676.518554688 c 0
 444.027904618 678.940720951 444.167963918 681.342521225 444.167963918 683.715619739 c 0
 444.167963918 716.410403307 417.58292201 743.657226562 384.161132812 743.657226562 c 0
 353.461914062 743.657226562 328.116210938 720.55078125 324.58203125 690.795898438 c 0
 319.180386044 645.316780914 312.310406859 595.733736004 304.606476614 544.005394296 c 1
 290.595839498 543.791779019 275.958393431 543.619164564 260.939171829 543.510352861 c 1
 267.649075526 589.631797123 273.182648021 633.520436857 276.75390625 673.375976562 c 0
241.967869299 423.396993915 m 1
 256.054330812 423.432949314 270.727386091 423.532862276 285.954340538 423.704293788 c 1
 280.488544479 389.488798007 274.879945925 355.005773005 269.291238396 320.757528183 c 1
 255.540848786 320.83234612 240.250539217 320.909838473 224.416531691 320.979572457 c 1
 230.33956907 355.059203838 236.279643042 389.40363764 241.967869299 423.396993915 c 1
EndSplineSet
EndChar

StartChar: dollar
Encoding: 36 36 4
Width: 500
Flags: HW
LayerCount: 2
Fore
SplineSet
308.984375 747.71875 m 0
 259.759770994 747.71875 250.830007576 702.944920827 247.644801123 686.974297314 c 1
 245.09562403 687.053168499 242.566577712 687.092210483 240.057980042 687.092210483 c 0
 126.287403772 687.092210483 54.576171875 606.789579993 54.576171875 519.6171875 c 0
 54.576171875 457.685648609 91.6010283354 387.928190958 177.981239364 348.346192799 c 1
 168.674675272 305.432843725 158.903668661 261.497696403 148.301102446 215.150703255 c 1
 142.921201669 220.717977947 137.498654464 226.891629867 132.045898438 233.727539062 c 0
 121.048828125 247.515625 104.107421875 256.356445312 85.1171875 256.356445312 c 0
 49.559033897 256.356445312 25.0905237931 226.951982992 25.0905237931 195.897447783 c 0
 25.0905237931 183.24123695 29.1546282376 170.310956771 38.1884765625 158.985351562 c 0
 62.7675423969 128.170955577 89.8078948417 104.026367596 118.128426604 86.2448246638 c 1
 115.583939335 75.599884111 112.990442796 64.8006481752 110.344726562 53.8349609375 c 0
 109.196513374 49.0759437965 108.650075013 44.3359501123 108.650075013 39.6862209025 c 0
 108.650075013 7.55399433082 134.745687713 -20.267578125 168.674804688 -20.267578125 c 0
 196.932617188 -20.267578125 220.655273438 -0.6904296875 227.004882812 25.6298828125 c 0
 228.86173871 33.3258668538 230.69335567 40.9418724712 232.500800236 48.4819088224 c 1
 236.873892211 48.2234593326 241.241424734 48.0947265625 245.599609375 48.0947265625 c 0
 377.55558994 48.0947265625 474.406310322 155.408911774 474.406310322 259.351972464 c 0
 474.406310322 330.483689057 429.049925366 400.036666524 318.548859468 432.538278001 c 1
 325.74027561 467.08083781 332.823345156 501.693492229 339.991572543 537.10362847 c 1
 351.098020533 531.127386954 362.666880501 524.143214841 374.66796875 516.055664062 c 0
 385.135202234 509.001989848 396.596781589 505.80624671 407.796446744 505.80624671 c 0
 438.982997923 505.80624671 468.138671875 530.585972066 468.138671875 565.84765625 c 0
 468.138671875 586.573242188 457.607421875 604.858398438 441.609375 615.639648438 c 0
 414.940751816 633.611711254 389.140500186 647.808220343 364.379362256 658.652018448 c 1
 365.521630392 664.378056908 366.670672944 670.14036104 367.827148438 675.94140625 c 0
 368.621994524 679.9286549 369.003020842 683.888161316 369.003020842 687.779808212 c 0
 369.003020842 720.087753451 342.742290932 747.71875 308.984375 747.71875 c 0
260.889182576 169.189526828 m 1
 272.610073185 220.07015809 283.317113844 267.970612866 293.454663813 314.561246896 c 1
 323.012758417 304.586489402 354.846679688 286.998936484 354.846679688 257.51171875 c 0
 354.846679688 222.456797095 313.930032127 176.792828599 260.889182576 169.189526828 c 1
223.319922502 565.660561477 m 1
 216.854775613 533.689083234 210.476746987 502.446073747 204.039743756 471.378368785 c 1
 183.803642398 486.3270812 174.371041556 503.994006979 174.371041556 520.044033843 c 0
 174.371041556 541.885418758 191.838924569 560.732528653 223.319922502 565.660561477 c 1
EndSplineSet
EndChar

StartChar: percent
Encoding: 37 37 5
Width: 500
Flags: HW
LayerCount: 2
Fore
SplineSet
374.38671875 44.4013671875 m 0
 439.297873719 44.4013671875 484.541992188 112.568590826 484.541992188 213.08984375 c 0
 484.541992188 320.653320312 431.391601562 383.067382812 362.951171875 383.067382812 c 0
 352.486797726 383.067382812 328.593144225 380.796249956 305.472835433 362.57645322 c 1
 314.15942371 380.803269848 406.394383764 571.219601984 443.086914062 651.29296875 c 0
 446.828489245 659.457893903 448.556544251 667.881908804 448.556544251 676.107976501 c 0
 448.556544251 707.625556745 423.188981785 736.237304688 388.509765625 736.237304688 c 0
 364.29296875 736.237304688 343.408203125 721.859375 333.932617188 701.181640625 c 0
 306.203122813 640.667196105 277.292745736 580.726307403 241.34780271 506.245410612 c 1
 246.574980264 536.898526686 246.955216758 569.948497159 247.015625 570.634765625 c 1
 247.015625 621.260742188 236.19140625 681.475585938 190.353515625 709.470703125 c 0
 175.530131918 718.523935864 159.658887123 722.90302145 143.748595189 722.90302145 c 0
 79.9451061632 722.90302145 15.513671875 652.479782925 15.513671875 530.662109375 c 0
 15.513671875 419.831559515 75.6965731319 371.626091276 130.587935815 371.626091276 c 0
 150.829565431 371.626091276 170.351638566 378.181189877 185.870964012 390.568320979 c 1
 136.934599374 287.290491358 89.430481676 182.117191819 50.8349609375 77.9521484375 c 0
 48.272435586 71.0366953412 47.0762024501 64.027812127 47.0762024501 57.1769035675 c 0
 47.0762024501 25.4605026625 72.714387867 -2.8701171875 107.1171875 -2.8701171875 c 0
 132.913085938 -2.8701171875 154.927734375 13.443359375 163.399414062 36.3076171875 c 0
 189.459140098 106.638223666 220.325140383 178.670069668 253.364926705 251.12328478 c 1
 252.046861819 239.915024512 251.424804688 228.548939708 251.424804688 217.11328125 c 1
 251.424804688 111.453125 303.436523438 44.4013671875 374.38671875 44.4013671875 c 0
EndSplineSet
EndChar

StartChar: ampersand
Encoding: 38 38 6
Width: 500
Flags: HW
LayerCount: 2
Fore
SplineSet
264.321289062 183.275390625 m 1
 248.993164062 167.913085938 204.020507812 125.911132812 170.541992188 125.911132812 c 0
 142.36328125 125.911132812 133.719726562 171.698242188 133.719726562 199.341796875 c 0
 133.719726562 231.956054688 143.353515625 269.87109375 164.352539062 304.786132812 c 1
 190.576171875 263.732421875 223.532226562 223.439453125 264.321289062 183.275390625 c 1
392.1875 306.471679688 m 0
 383.95907815 306.471679688 360.64264457 306.471679688 340.326171875 276.922851562 c 1
 299.201171875 318.700195312 270.663085938 357.833007812 250.197265625 395.158203125 c 1
 350.33203125 490.005859375 381.06640625 554.215820312 381.06640625 605.365234375 c 0
 381.06640625 661.112304688 338.750976562 723.249023438 249.412109375 723.249023438 c 0
 160.549804688 723.249023438 80.6103515625 663.96484375 80.6103515625 560.225585938 c 0
 80.6103515625 528.07421875 90.9091796875 472.76171875 106.518554688 425.727539062 c 1
 42.4990234375 358.802734375 13.7197265625 274.541992188 13.7197265625 199.341796875 c 0
 13.7197265625 81.8662109375 82.7529296875 5.9111328125 170.541992188 5.9111328125 c 0
 238.940429688 5.9111328125 302.8125 50.39453125 355.051757812 104.189453125 c 1
 366.650390625 95.1279296875 378.682617188 86.0517578125 391.161132812 76.953125 c 0
 402.049914716 69.0133713433 414.190712741 65.4286861941 426.062021297 65.4286861941 c 0
 457.185709084 65.4286861941 486.45703125 90.0684153923 486.45703125 125.46484375 c 0
 486.45703125 145.391601562 476.72265625 163.061523438 461.752929688 173.9765625 c 0
 451.06640625 181.768554688 440.811523438 189.487304688 430.970703125 197.137695312 c 1
 445.518554688 217.711914062 452.1875 227.14453125 452.1875 246.471679688 c 0
 452.1875 279.586914062 425.302734375 306.471679688 392.1875 306.471679688 c 0
205.674804688 520.81640625 m 1
 202.663327793 537.033104785 200.654776231 550.312617325 200.654776231 561.171338563 c 0
 200.654776231 579.729297795 206.521370443 591.216589535 223.274414062 598.2109375 c 0
 229.820776616 600.943706771 239.556253358 603.235542347 249.3980984 603.235542347 c 0
 253.170598992 603.235542347 256.958728102 602.898806738 260.588867188 602.12109375 c 1
 258.639648438 593.046875 249.350585938 568.271484375 205.674804688 520.81640625 c 1
EndSplineSet
EndChar

StartChar: quotesingle
Encoding: 39 39 7
Width: 500
Flags: HW
LayerCount: 2
Fore
SplineSet
309.286132812 582.0625 m 0
 309.286132812 582.975170718 310.061298605 638.088249588 310.061298605 675.820056378 c 0
 310.061298605 689.644868178 309.957235243 701.13630353 309.672851562 706.7734375 c 0
 308.073242188 738.46484375 281.8359375 763.705078125 249.75 763.705078125 c 0
 216.634765625 763.705078125 189.75 736.8203125 189.75 703.705078125 c 0
 189.75 700.509765625 190.20703125 696.431640625 190.20703125 678.143554688 c 0
 190.20703125 677.182617188 189.286132812 587.083007812 189.286132812 582.0625 c 0
 189.286132812 565.751953125 189.459960938 551.327148438 190.422851562 538.618164062 c 0
 192.76953125 507.642578125 218.678710938 483.205078125 250.25 483.205078125 c 0
 283.365234375 483.205078125 310.25 510.08984375 310.25 543.205078125 c 0
 310.25 543.59375 309.286132812 557.692382812 309.286132812 582.0625 c 0
EndSplineSet
EndChar

StartChar: parenleft
Encoding: 40 40 8
Width: 500
Flags: HW
LayerCount: 2
Fore
SplineSet
425.315429688 718.809570312 m 0
 425.315429688 752.60674596 397.640709549 778.829455293 365.374847724 778.829455293 c 0
 361.307442227 778.829455293 357.167079371 778.412752929 353 777.541992188 c 0
 189.174097594 743.310565128 75.0703997727 539.988294327 75.0703997727 341.554623447 c 0
 75.0703997727 176.858223876 153.673051251 15.5294357236 347.688476562 -42.958984375 c 0
 353.496077145 -44.7098181967 359.319151493 -45.5351414724 365.019644328 -45.5351414724 c 0
 396.936568746 -45.5351414724 425.010742188 -19.662465147 425.010742188 14.498046875 c 0
 425.010742188 41.591796875 407.013671875 64.5146484375 382.333007812 71.955078125 c 0
 245.96782131 113.065675636 194.350858902 224.447603838 194.350858902 339.550677345 c 0
 194.350858902 486.416003866 278.385268429 639.339498747 377.630859375 660.077148438 c 0
 404.846679688 665.763671875 425.315429688 689.915039062 425.315429688 718.809570312 c 0
EndSplineSet
EndChar

StartChar: parenright
Encoding: 41 41 9
Width: 500
Flags: HW
LayerCount: 2
Fore
SplineSet
220.424804688 772.549804688 m 0
 209.357295829 780.910762088 196.90653558 784.68008905 184.727666267 784.68008905 c 0
 153.631367342 784.68008905 124.307617187 760.106574443 124.307617188 724.647460938 c 0
 124.307617188 705.087890625 133.6875 687.701171875 148.190429688 676.745117188 c 0
 247.576096243 601.663738396 288.77874575 495.963455343 288.77874575 391.75888646 c 0
 288.77874575 257.71426292 220.599778204 126.144631864 120.385742188 65.408203125 c 0
 103.028320312 54.888671875 91.419921875 35.818359375 91.419921875 14.05859375 c 0
 91.419921875 -21.0297974005 120.421927737 -45.9870522426 151.695607875 -45.9870522426 c 0
 162.021508788 -45.9870522426 172.595062925 -43.2662640123 182.454101562 -37.291015625 c 0
 321.906503784 47.2264585721 408.485272212 217.932698283 408.485272212 391.185232611 c 0
 408.485272212 531.425563243 351.757194752 673.334275175 220.424804688 772.549804688 c 0
EndSplineSet
EndChar

StartChar: asterisk
Encoding: 42 42 10
Width: 500
Flags: HW
LayerCount: 2
Fore
SplineSet
427.49609375 278.880859375 m 0
 427.49609375 292.845932858 427.49609375 311.862200923 364.078156072 366.919563012 c 1
 380.902038735 380.2770688 398.142458684 395.984078983 415.436523438 415.040039062 c 0
 426.190204997 426.889122952 431.007479922 440.972840043 431.007479922 454.784763081 c 0
 431.007479922 485.74462483 406.803256211 515.338867188 370.999023438 515.338867188 c 0
 353.390625 515.338867188 337.54296875 507.736328125 326.5625 495.637695312 c 0
 320.670090948 489.145153321 314.927381293 483.265422386 309.261810499 477.867423441 c 1
 309.195018681 489.388259854 309.170737811 498.14933556 309.170737811 505.584591376 c 0
 309.170737811 513.118634629 309.195668176 519.291393325 309.2265625 525.594726562 c 0
 309.2265625 559.965820312 281.541015625 585.892578125 249.2265625 585.892578125 c 0
 216.2109375 585.892578125 189.388671875 559.168945312 189.227539062 526.190429688 c 0
 189.190953243 518.671220822 189.174540403 511.20404241 189.174540403 503.786753246 c 0
 189.174540403 497.095237216 189.187898431 490.444324882 189.211853641 483.832444086 c 1
 185.151526755 487.285136186 181.021952165 490.945247579 176.810546875 494.84375 c 0
 164.89396203 505.874922132 150.632137008 510.813847017 136.640680062 510.813847017 c 0
 105.694668773 510.813847017 76.0712890625 486.652791704 76.0712890625 450.809570312 c 0
 76.0712890625 434.050440057 76.0712890625 415.295012548 143.960454403 367.097825148 c 1
 126.420549831 353.799052086 108.182657071 338.133012881 89.5849609375 319.091796875 c 0
 77.7862503985 307.011467433 72.5105590496 292.267729997 72.5105590496 277.789170598 c 0
 72.5105590496 246.880672917 96.5533271861 217.180664062 132.50390625 217.180664062 c 0
 155.205348804 217.180664062 158.787388345 220.505809731 189.636692193 249.142687664 c 1
 189.284543739 235.145961756 188.79502852 221.258146159 188.130859375 207.458007812 c 0
 188.083377758 206.471136629 188.059901847 205.489020784 188.059901847 204.512201891 c 0
 188.059901847 171.496063523 214.879168635 144.53125 248.060546875 144.53125 c 0
 280.194335938 144.53125 306.462890625 169.846679688 307.990234375 201.60546875 c 0
 308.802933478 218.491684692 309.366935954 235.678812136 309.744750452 253.077648827 c 1
 313.919569121 248.735950954 318.158786523 244.133162231 322.47265625 239.23828125 c 0
 334.851482727 225.192251539 350.9352047 218.92600679 366.779682259 218.92600679 c 0
 397.590217007 218.92600679 427.49609375 242.620639341 427.49609375 278.880859375 c 0
EndSplineSet
EndChar

StartChar: plus
Encoding: 43 43 11
Width: 500
Flags: HW
LayerCount: 2
Fore
SplineSet
247.3671875 587.296875 m 0
 214.159757132 587.296875 187.366590025 560.301430617 187.366590025 527.323291936 c 0
 187.366590025 526.147297243 187.400660838 524.963694817 187.469726562 523.7734375 c 0
 189.258276634 492.944796106 190.305712207 465.54949622 190.937718026 439.424268831 c 1
 168.870776613 439.054000018 144.892942898 438.430174608 117.755859375 437.366210938 c 0
 85.7451171875 436.111328125 60.142578125 409.728515625 60.142578125 377.413085938 c 0
 60.142578125 344.250911912 87.0842908309 317.412847535 120.12827307 317.412847535 c 0
 120.92516279 317.412847535 121.725601486 317.428456097 122.529296875 317.459960938 c 0
 148.370557434 318.473063242 171.091339597 319.071948805 192.093196175 319.430317705 c 1
 192.21962322 291.999975842 192.437325472 262.619492091 193.08984375 229.388671875 c 0
 193.729492188 196.826171875 220.36328125 170.586914062 253.078125 170.586914062 c 0
 286.207183726 170.586914062 313.078208473 197.488642396 313.078208473 230.58302361 c 0
 313.078208473 230.982842814 313.074286514 231.383565866 313.06640625 231.78515625 c 0
 312.431389991 264.131485526 312.216984852 292.911519453 312.090506892 320.101342643 c 1
 333.468458215 320.215635344 356.051444458 320.470824839 381.362304688 321.094726562 c 0
 413.783203125 321.89453125 439.857421875 348.46484375 439.857421875 381.076171875 c 0
 439.857421875 414.210781946 412.949276321 441.076268835 379.863758255 441.076268835 c 0
 379.361418381 441.076268835 378.857654464 441.070075649 378.352539062 441.057617188 c 0
 353.826309194 440.452609286 331.963879968 440.206888879 310.952727776 440.096984463 c 1
 310.299444037 468.07107091 309.194787262 497.573399689 307.265625 530.8203125 c 0
 305.438476562 562.297851562 279.299804688 587.296875 247.3671875 587.296875 c 0
EndSplineSet
EndChar

StartChar: comma
Encoding: 44 44 12
Width: 500
Flags: HW
LayerCount: 2
Fore
SplineSet
235.397460938 122.794921875 m 0
 235.397460938 113.19140625 237.672851562 109.163085938 237.672851562 94.986328125 c 0
 237.672851562 48.0439453125 207.987304688 4.3076171875 179.024414062 -7.8095703125 c 0
 157.37109375 -16.8681640625 142.140625 -38.263671875 142.140625 -63.1875 c 0
 142.140625 -97.7446745553 170.629753927 -123.232081457 202.231533125 -123.232081457 c 0
 209.844253617 -123.232081457 217.637602922 -121.753033169 225.256835938 -118.565429688 c 0
 300.475299649 -87.0969030125 357.683677554 0.411211017148 357.683677554 94.9037004942 c 0
 357.683677554 107.405126466 356.682331573 120.028803349 354.588867188 132.661132812 c 0
 349.877929688 161.088867188 325.15234375 182.794921875 295.397460938 182.794921875 c 0
 262.282226562 182.794921875 235.397460938 155.91015625 235.397460938 122.794921875 c 0
EndSplineSet
EndChar

StartChar: hyphen
Encoding: 45 45 13
Width: 500
Flags: HW
LayerCount: 2
Fore
SplineSet
60.142578125 358.326171875 m 0
 60.142578125 325.163997849 87.0833597194 298.325933473 120.128207292 298.325933473 c 0
 120.925117881 298.325933473 121.72557849 298.341542034 122.529296875 298.373046875 c 0
 179.335306307 300.600116988 378.774506985 301.943962719 381.362304688 302.0078125 c 0
 413.783203125 302.807617188 439.857421875 329.376953125 439.857421875 361.989257812 c 0
 439.857421875 395.122923272 412.949248149 421.989354127 379.863706295 421.989354127 c 0
 379.361383643 421.989354127 378.857637048 421.983161157 378.352539062 421.970703125 c 0
 375.747103414 421.906432784 178.265672431 420.651741433 117.755859375 418.279296875 c 0
 85.7451171875 417.024414062 60.142578125 390.641601562 60.142578125 358.326171875 c 0
EndSplineSet
Substitution2: "longhyphen-1" longhyphen
Substitution2: "righthyphen-1" righthyphen
Substitution2: "lefthyphen-1" lefthyphen
EndChar

StartChar: period
Encoding: 46 46 14
Width: 500
Flags: HW
LayerCount: 2
Fore
SplineSet
331.596679688 51.65234375 m 0
 331.596679688 96.0033585692 293.53445792 134.969726562 248.403320312 134.969726562 c 0
 201.584627443 134.969726562 168.353060248 96.2967806386 168.353060248 54.6217460149 c 0
 168.353060248 32.0400409147 178.109971338 8.5769114641 200.749023438 -10.0927734375 c 0
 216.047657563 -22.7091066722 233.683221403 -28.377998717 250.952592962 -28.377998717 c 0
 292.325530125 -28.377998717 331.596679688 4.15902519256 331.596679688 51.65234375 c 0
EndSplineSet
EndChar

StartChar: slash
Encoding: 47 47 15
Width: 500
Flags: HW
LayerCount: 2
Fore
SplineSet
450.764648438 662.16796875 m 0
 454.362724431 670.19776788 456.026410877 678.463434543 456.026410877 686.535372709 c 0
 456.026410877 718.073536858 430.629046842 746.654296875 395.98046875 746.654296875 c 0
 371.584960938 746.654296875 350.571289062 732.063476562 341.196289062 711.140625 c 0
 286.0859375 588.153320312 121.44921875 285.813476562 47.236328125 68.998046875 c 0
 45.0199842459 62.5230095049 43.9813741004 55.9917503133 43.9813741004 49.6043034687 c 0
 43.9813741004 17.8112152415 69.7127727369 -10.4189453125 104.01953125 -10.4189453125 c 0
 130.340820312 -10.4189453125 152.725585938 6.56640625 160.802734375 30.1640625 c 0
 209.043945312 171.1015625 304.854492188 364.772460938 376.637695312 509.282226562 c 0
 407.350585938 571.11328125 433.633789062 623.936523438 450.764648438 662.16796875 c 0
EndSplineSet
EndChar

StartChar: zero
Encoding: 48 48 16
Width: 500
Flags: HW
LayerCount: 2
Fore
SplineSet
254.145507812 -29.970703125 m 1
 432.313362087 -29.970703125 497.772460938 209.558124113 497.772460938 346.956054688 c 0
 497.772460938 402.971558825 492.309214371 543.097360947 442.068895657 646.180843055 c 1
 447.199622096 656.399138989 451.83787952 665.162690053 455.883789062 672.2265625 c 0
 461.338064164 681.748892895 463.828594106 691.864208056 463.828594106 701.740896289 c 0
 463.828594106 733.062038807 438.782254291 761.983398437 403.78125 761.983398438 c 0
 386.514565791 761.983398438 370.942002357 754.674242978 359.990991393 742.983817687 c 1
 336.371141393 757.195207007 308.533339416 765.7421875 278.619140625 765.7421875 c 0
 104.4375 765.7421875 2.2275390625 512.102539062 2.2275390625 275.33984375 c 0
 2.2275390625 180.678093985 29.6920218375 110.738519846 69.405914742 61.865182906 c 1
 66.1331027837 53.8516672101 62.962271443 46.1276381744 59.9033203125 38.7236328125 c 0
 56.7862472701 31.1786664868 55.3390030884 23.4695293597 55.3390030884 15.9386481657 c 0
 55.3390030884 -15.6750313586 80.8425340445 -44.1474609375 115.383789062 -44.1474609375 c 0
 138.351858937 -44.1474609375 158.322391814 -31.2141011406 168.405151491 -12.2398845225 c 1
 197.569322448 -24.3102284175 248.799616133 -28.8651906254 254.145507812 -29.970703125 c 1
122.227539062 275.33984375 m 0
 122.227539062 469.99609375 203.068359375 645.7421875 278.619140625 645.7421875 c 0
 287.580805121 645.7421875 296.146673299 642.228172296 304.224113046 635.721378489 c 1
 259.403222315 536.509597063 201.058096087 390.990520662 128.940444827 210.073944258 c 1
 124.679796146 228.862949714 122.227539187 250.484021069 122.227539062 275.33984375 c 0
377.772460938 346.956054688 m 0
 377.772460938 259.516567989 336.043045532 90.029296875 254.145507812 90.029296875 c 0
 244.817986546 90.029296875 230.11053328 92.2384086998 213.842097074 99.0450750769 c 1
 339.427602161 412.683324464 339.427602161 412.683324464 367.245328779 478.986663007 c 1
 374.038384117 438.078335801 377.772460938 392.801884091 377.772460938 346.956054688 c 0
EndSplineSet
EndChar

StartChar: one
Encoding: 49 49 17
Width: 500
Flags: HW
LayerCount: 2
Fore
SplineSet
141.602539062 488.80078125 m 0
 171.544346319 488.80078125 186.648180302 507.291261331 206.456054688 533.171875 c 1
 208.891648528 443.39666389 209.806327275 368.00304874 209.806327275 305.317449185 c 0
 209.806327275 201.937094895 207.318563997 133.120279561 205.062309534 91.3601612986 c 1
 179.181787693 91.7482022312 158.512641173 92.0576171875 157.94921875 92.0576171875 c 0
 129.70703125 92.0576171875 103.474609375 91.390625 79.5595703125 88.4755859375 c 0
 49.8935546875 84.859375 26.8828125 59.5546875 26.8828125 28.9189453125 c 0
 26.8828125 -4.1962890625 53.767578125 -31.0810546875 86.8828125 -31.0810546875 c 0
 87.59375 -31.0810546875 114.119140625 -27.9423828125 157.94921875 -27.9423828125 c 0
 203.4140625 -27.9423828125 257.720703125 -30.1669921875 309.0078125 -30.1669921875 c 0
 349.14453125 -30.1669921875 387.861328125 -29.03125 422.658203125 -23.4609375 c 0
 451.245117188 -18.884765625 473.1171875 5.9150390625 473.1171875 35.783203125 c 0
 473.1171875 68.8984375 446.232421875 95.783203125 413.1171875 95.783203125 c 0
 402.473066888 95.783203125 387.949045066 90.6883242303 325.169443791 89.9275566082 c 1
 327.87101139 142.095452476 329.798201354 215.802073777 329.798201354 309.127197312 c 0
 329.798201354 419.375798661 327.108688926 557.003229589 319.829101562 718.84375 c 0
 318.258237017 753.765375241 289.153507853 776.057020081 259.230421676 776.057020081 c 0
 243.298728017 776.057020081 227.135052547 769.737948973 214.771484375 755.641601562 c 0
 158.283203125 691.236328125 138.564453125 635.397460938 96.8681640625 588.76953125 c 0
 86.3194776068 576.973276159 81.591991294 563.022209137 81.591991294 549.343750966 c 0
 81.591991294 518.373511321 105.827108175 488.80078125 141.602539062 488.80078125 c 0
EndSplineSet
EndChar

StartChar: two
Encoding: 50 50 18
Width: 500
Flags: HW
LayerCount: 2
Fore
SplineSet
404.403320312 449.5546875 m 0
 418.089736903 490.06834805 424.200350237 527.212094455 424.200350237 560.671076548 c 0
 424.200350237 690.919096996 331.60234792 765.329545057 232.837264772 765.329545057 c 0
 145.730998921 765.329545057 53.8277126617 707.449901877 16.4208984375 578.94921875 c 0
 14.7811720588 573.316752162 14.0070136887 567.676840422 14.0070136887 562.154017086 c 0
 14.0070136887 530.203025405 39.9175376575 502.170898438 74.0390625 502.170898438 c 0
 101.331054688 502.170898438 124.391601562 520.432617188 131.657226562 545.392578125 c 0
 141.875976562 580.493164062 157.365234375 604.056640625 173.403320312 619.40625 c 0
 192.087083522 637.288408971 214.042735287 646.194475935 234.562978022 646.194475935 c 0
 271.60400255 646.194475935 303.967926953 617.175174777 303.967926953 559.548437452 c 0
 303.967926953 539.228898961 299.944086112 515.352567773 290.682617188 487.9375 c 0
 241.243164062 341.591796875 94.986328125 181.295898438 29.970703125 58.3642578125 c 0
 25.1899720338 49.3252847663 22.998181626 39.8370069414 22.998181626 30.5735156702 c 0
 22.998181626 -0.81627085727 48.1648863187 -29.625 83.0458984375 -29.625 c 0
 92.9482421875 -29.625 110.095703125 -25.9677734375 200.014648438 -25.9677734375 c 0
 229.611328125 -25.9677734375 260.004882812 -26.2958984375 289.686523438 -26.2958984375 c 0
 341.456054688 -26.2958984375 391.286132812 -25.552734375 434.533203125 -19.35546875 c 0
 463.59375 -15.1904296875 485.9609375 9.8310546875 485.9609375 40.0361328125 c 0
 485.9609375 73.1513671875 459.076171875 100.036132812 425.9609375 100.036132812 c 0
 412.124023438 100.036132812 400.47265625 93.7041015625 289.686523438 93.7041015625 c 0
 253.436523438 93.7041015625 243.663085938 94.02734375 193.696289062 94.02734375 c 1
 205.091796875 110.619140625 217.221679688 127.880859375 229.733398438 145.633789062 c 0
 293.0078125 235.409179688 366.748046875 338.092773438 404.403320312 449.5546875 c 0
EndSplineSet
EndChar

StartChar: three
Encoding: 51 51 19
Width: 500
Flags: HW
LayerCount: 2
Fore
SplineSet
466.334960938 560.681640625 m 0
 466.334960938 674.692679045 369.590102457 768.892167386 258.250031102 768.892167386 c 0
 188.865972153 768.892167386 113.813952275 732.310376908 52.974609375 641.14453125 c 0
 46.0255408104 630.731448742 42.8758171775 619.352972731 42.8758171775 608.235325198 c 0
 42.8758171775 577.040629043 67.6733324344 547.899414062 102.91796875 547.899414062 c 0
 123.740234375 547.899414062 142.100585938 558.529296875 152.861328125 574.654296875 c 0
 189.127429057 628.998423844 226.851600702 648.89223786 259.254414799 648.89223786 c 0
 309.087844521 648.89223786 346.334960938 601.83849757 346.334960938 560.681640625 c 0
 346.334960938 536.92467552 332.792259889 477.227107231 204.439453125 444.8203125 c 0
 178.428710938 438.252929688 159.153320312 414.6796875 159.153320312 386.640625 c 0
 159.153320312 353.525390625 186.038085938 326.640625 219.153320312 326.640625 c 0
 227.18359375 326.640625 233.62890625 328.620117188 249.001953125 328.620117188 c 0
 342.152463163 328.620117188 371.211975042 242.892886344 371.211975042 184.667652867 c 0
 371.211975042 181.794498495 371.141215704 178.988310944 371.00390625 176.262695312 c 0
 368.678434031 130.128092305 300.913895205 88.3026243288 232.503290847 88.3026243288 c 0
 189.62628075 88.3026243288 146.4954782 104.732827795 119.063476562 146.830078125 c 0
 108.35546875 163.262695312 89.81640625 174.134765625 68.7578125 174.134765625 c 0
 33.5524923517 174.134765625 8.71477440788 145.028511677 8.71477440788 113.814497494 c 0
 8.71477440788 102.895510227 11.754099554 91.7186019746 18.4521484375 81.439453125 c 0
 69.9894324196 2.3500336921 151.720262927 -31.2864425523 232.8245433 -31.2864425523 c 0
 359.59941593 -31.2864425523 484.843431495 50.8979421808 490.849609375 170.137695312 c 0
 491.008360601 173.288666616 491.150994455 177.578465494 491.150994455 182.820936507 c 0
 491.150994455 226.25345787 481.361041042 335.074493699 389.838867188 403.428710938 c 1
 417.20703125 426.9140625 466.334960938 480.268554688 466.334960938 560.681640625 c 0
EndSplineSet
EndChar

StartChar: four
Encoding: 52 52 20
Width: 500
Flags: HW
LayerCount: 2
Fore
SplineSet
320.632756246 325.994106808 m 1
 303.94291557 15.7603592181 303.705078125 28.7398065482 303.705078125 25.732421875 c 0
 303.705078125 -7.3828125 330.58984375 -34.267578125 363.705078125 -34.267578125 c 0
 395.497070312 -34.267578125 421.546875 -9.4873046875 423.578125 21.794921875 c 0
 424.019586535 28.5971931654 452.415615196 556.414003948 465.462890625 702.165039062 c 0
 465.626984976 703.998069488 465.70737312 705.817401717 465.70737312 707.619500177 c 0
 465.70737312 740.458164861 439.01384677 767.57421875 405.704101562 767.57421875 c 0
 374.412109375 767.57421875 348.682617188 743.567382812 345.9453125 712.983398438 c 0
 338.656148714 631.56352586 332.751681416 541.099126783 327.368499405 447.748966974 c 1
 287.773859216 442.533883606 287.773859216 442.533883606 158.579101562 437.78515625 c 1
 169.525390625 554.311523438 200.435546875 645.8125 200.435546875 669.700195312 c 0
 200.435546875 702.815429688 173.55078125 729.700195312 140.435546875 729.700195312 c 0
 111.786132812 729.700195312 87.7998046875 709.577148438 81.8515625 682.70703125 c 0
 48.857993056 533.672959218 38.7152590313 487.857578261 34.341796875 375.811523438 c 0
 34.3104228017 375.007642845 34.2948833796 374.207286298 34.2948833796 373.410727618 c 0
 34.2948833796 340.09821863 61.4726648273 313.428015708 94.2344863601 313.428015708 c 0
 96.5339733694 313.428015708 98.8609693512 313.559402636 101.208007812 313.829101562 c 0
 157.127298907 320.255489699 238.595906272 317.311946414 320.632756246 325.994106808 c 1
EndSplineSet
EndChar

StartChar: five
Encoding: 53 53 21
Width: 500
Flags: HW
LayerCount: 2
Fore
SplineSet
469.897460938 258.1796875 m 0
 469.897460938 392.364245135 385.293278278 504.42314848 236.773019727 504.42314848 c 0
 214.049366159 504.42314848 189.829494058 501.799949142 164.1875 496.231445312 c 1
 164.376953125 499.590820312 170.740234375 630.020507812 170.815429688 631.37109375 c 0
 275.506835938 634.922851562 345.588867188 637.674804688 429.131835938 646.0078125 c 0
 459.426757812 649.029296875 483.116210938 674.624023438 483.116210938 705.708984375 c 0
 483.116210938 739.056893169 455.955373641 765.713039181 423.166753262 765.713039181 c 0
 421.164057206 765.713039181 419.140365895 765.613594592 417.100585938 765.41015625 c 0
 350.646816032 758.783012107 350.646816032 758.783012107 112.69921875 749.357421875 c 0
 83.142578125 748.186523438 59.0537109375 725.590820312 55.55078125 696.6875 c 0
 48.2705078125 636.623046875 46.9345703125 495.409179688 37.5869140625 418.73828125 c 0
 37.2760461048 416.188698399 37.1254264931 413.674271078 37.1254264931 411.202006313 c 0
 37.1254264931 377.315323602 65.4230313416 351.349915856 97.2228234134 351.349915856 c 0
 104.951286197 351.349915856 112.886609228 352.883589047 120.672851562 356.209960938 c 0
 169.030273438 376.869140625 207.91796875 384.444335938 237.037109375 384.444335938 c 0
 341.3125 384.444335938 349.897460938 289.461914062 349.897460938 258.1796875 c 0
 349.897460938 189.457645656 309.41322807 89.794132695 209.691563149 89.794132695 c 0
 180.01990925 89.794132695 145.103796392 98.6176279991 104.44921875 119.705078125 c 0
 95.5291246489 124.331890815 86.1902714728 126.455244991 77.0726359192 126.455244991 c 0
 45.6657891731 126.455244991 16.8837890625 101.260692214 16.8837890625 66.4072265625 c 0
 16.8837890625 43.2275390625 30.056640625 23.1005859375 49.318359375 13.109375 c 0
 107.517372344 -17.0781497842 161.557149158 -30.2630237443 210.186033699 -30.2630237443 c 0
 368.838543219 -30.2630237443 469.897460938 110.076907398 469.897460938 258.1796875 c 0
EndSplineSet
EndChar

StartChar: six
Encoding: 54 54 22
Width: 500
Flags: HW
LayerCount: 2
Fore
SplineSet
365.048828125 4.2099609375 m 0
 445.068390913 53.5192454418 478.720506297 133.795650212 478.720506297 214.660774143 c 0
 478.720506297 348.17202912 386.98750291 483.288085938 260.748046875 483.288085938 c 0
 225.227539062 483.288085938 191.01953125 472.841796875 158.55859375 452.740234375 c 1
 180.311523438 516.794921875 228.001953125 580.41796875 340.216796875 659.78515625 c 0
 355.584960938 670.654296875 365.625976562 688.565429688 365.625976562 708.803710938 c 0
 365.625976562 744.146940465 336.39977588 768.841872352 305.2516123 768.841872352 c 0
 293.64185415 768.841872352 281.765086661 765.411120673 271.03515625 757.822265625 c 0
 71.0009765625 616.341796875 21.0654296875 492.9609375 21.0654296875 324.9375 c 0
 21.0654296875 213.015625 42.4072265625 91.2333984375 120.669921875 20.861328125 c 0
 158.875976562 -13.494140625 205.282226562 -29.3974609375 250.360351562 -29.3974609375 c 0
 292.104492188 -29.3974609375 331.302734375 -16.5849609375 365.048828125 4.2099609375 c 0
260.748046875 363.288085938 m 0
 311.868768863 363.288085938 358.700016626 287.007081817 358.700016626 214.09674505 c 0
 358.700016626 195.876854948 355.775534126 177.867453743 349.262695312 161.311523438 c 0
 334.617128176 124.081784497 293.778291916 90.6878113459 252.08685039 90.6878113459 c 0
 204.644870867 90.6878113459 156.0988641 133.929224046 143.788085938 263.965820312 c 1
 195.470703125 347.583007812 238.759765625 363.288085938 260.748046875 363.288085938 c 0
EndSplineSet
EndChar

StartChar: seven
Encoding: 55 55 23
Width: 500
Flags: HW
LayerCount: 2
Fore
SplineSet
160.174804688 754.594726562 m 0
 115.654296875 754.594726562 79.2236328125 757.494140625 78.4052734375 757.494140625 c 0
 45.2900390625 757.494140625 18.4052734375 730.609375 18.4052734375 697.494140625 c 0
 18.4052734375 665.903320312 42.873046875 639.981445312 73.8759765625 637.663085938 c 0
 102.123531647 635.550613776 119.326351051 634.40697191 147.698632749 634.40697191 c 0
 180.93614343 634.40697191 229.502191583 635.976461715 329.110351562 639.396484375 c 1
 326.688507537 633.576968846 166.921383081 246.141146179 117.649414062 45.5908203125 c 0
 116.460689645 40.7524550123 115.895387948 35.9315245108 115.895387948 31.2032406092 c 0
 115.895387948 -0.911878785034 141.974468779 -28.7529296875 175.920898438 -28.7529296875 c 0
 204.092773438 -28.7529296875 227.755859375 -9.294921875 234.192382812 16.9033203125 c 0
 251.025390625 85.419921875 289.138671875 199.227539062 331.255859375 314.153320312 c 0
 383.931640625 457.891601562 443.516601562 605.747070312 476.1875 677.145507812 c 0
 479.919634997 685.301766479 481.643450275 693.715505244 481.643450275 701.931539448 c 0
 481.643450275 733.45088802 456.273435825 762.060546875 421.596679688 762.060546875 c 0
 382.6640625 762.060546875 223.297851562 754.594726562 160.174804688 754.594726562 c 0
EndSplineSet
EndChar

StartChar: eight
Encoding: 56 56 24
Width: 500
Flags: HW
LayerCount: 2
Fore
SplineSet
193.059570312 498.044921875 m 1
 179.051757812 511.571289062 144.109375 548.423828125 144.109375 579.48046875 c 0
 144.109375 584.9453125 144.114257812 601.959960938 172.184570312 625.774414062 c 0
 179.938050605 632.352443068 195.839764683 645.383414075 223.893068691 645.383414075 c 0
 242.126725891 645.383414075 265.493872145 639.878426874 295.09375 623.518554688 c 1
 256.385742188 578.959960938 222.52734375 537.206054688 193.059570312 498.044921875 c 1
224.22265625 765.451171875 m 0
 117.092189429 765.451171875 24.109375 675.357285878 24.109375 579.48046875 c 0
 24.109375 552.6484375 28.7265625 483.583007812 123.801757812 398.404296875 c 1
 33.0927734375 255.028320312 23.302734375 173.891601562 23.302734375 131.432617188 c 0
 23.302734375 24.1604906272 97.4558846207 -34.7919850383 190.950491861 -34.7919850383 c 0
 232.082001973 -34.7919850383 276.956904641 -23.3821797323 320.908203125 0.3427734375 c 0
 407.649640823 47.1676293163 453.573062607 117.693814165 453.573062607 192.842667192 c 0
 453.573062607 273.253254926 400.993617305 358.956508563 289.580078125 426.579101562 c 1
 334.16015625 485.76953125 390.5390625 552.84765625 460.6796875 628.013671875 c 0
 471.824380309 639.956419662 476.813078175 654.29024603 476.813078175 668.354345504 c 0
 476.813078175 699.29421898 452.669568076 728.928710938 416.810546875 728.928710938 c 0
 401.72265625 728.928710938 387.926757812 723.34765625 377.37890625 714.137695312 c 1
 328.78515625 746.059570312 277.44140625 765.451171875 224.22265625 765.451171875 c 0
221.147460938 327.703125 m 1
 254.817120231 307.402378416 333.596072391 253.50918123 333.596072391 193.663702469 c 0
 333.596072391 178.162499484 328.310666855 162.261948435 315.586914062 146.442382812 c 0
 286.602332071 110.406161684 229.216052596 85.1889718502 188.86874137 85.1889718502 c 0
 175.787513228 85.1889718502 164.497349219 87.8396959777 156.546875 93.6318359375 c 0
 148.37402924 99.5861668093 143.313295797 112.232423741 143.313295797 131.472903885 c 0
 143.313295797 170.298758072 163.920719003 235.976441143 221.147460938 327.703125 c 1
EndSplineSet
EndChar

StartChar: nine
Encoding: 57 57 25
Width: 500
Flags: HW
LayerCount: 2
Fore
SplineSet
155.966796875 550.00390625 m 0
 155.966796875 598.73046875 181.29296875 647.967773438 240.561523438 647.967773438 c 0
 264.749023438 647.967773438 297.672851562 639.088867188 336.213867188 612.784179688 c 1
 327.318359375 574.932617188 299.8984375 476.893554688 250.213867188 454.166015625 c 0
 244.469949548 451.538449737 238.581815347 450.32348707 232.69009304 450.32348707 c 0
 194.404202915 450.32348707 155.966796875 501.62803817 155.966796875 550.00390625 c 0
35.966796875 550.00390625 m 0
 35.966796875 434.04030408 128.035338204 330.102216798 232.652355974 330.102216798 c 0
 250.394368061 330.102216798 268.497284459 333.091560082 286.573242188 339.518554688 c 1
 268.426757812 231.1953125 251.217773438 118.420898438 241.56640625 38.6015625 c 0
 241.268268605 36.1362322782 241.123176996 33.6917116571 241.123176996 31.2768085627 c 0
 241.123176996 -1.40547969387 267.697841605 -28.6630859375 301.129882812 -28.6630859375 c 0
 331.786132812 -28.6630859375 357.103515625 -5.6220703125 360.693359375 24.072265625 c 0
 381.317382812 194.62890625 443.03515625 547.884765625 462.099609375 621.017578125 c 0
 462.64811257 623.121075257 463.908531852 628.76763999 463.908531852 636.229536442 c 0
 463.908531852 648.974522379 460.231517513 667.015365698 443.049804688 681.743164062 c 0
 372.461673284 742.250351236 302.217111392 768.00514078 240.449566269 768.00514078 c 0
 122.842147075 768.00514078 35.966796875 674.635268946 35.966796875 550.00390625 c 0
EndSplineSet
EndChar

StartChar: colon
Encoding: 58 58 26
Width: 500
Flags: HW
LayerCount: 2
Fore
SplineSet
331.596679688 577.694335938 m 0
 331.596679688 622.045350757 293.53445792 661.01171875 248.403320312 661.01171875 c 0
 201.584627443 661.01171875 168.353060248 622.338772826 168.353060248 580.663738202 c 0
 168.353060248 558.082033102 178.109971338 534.618903652 200.749023438 515.94921875 c 0
 216.047657563 503.332885515 233.683221403 497.663993471 250.952592962 497.663993471 c 0
 292.325530125 497.663993471 331.596679688 530.20101738 331.596679688 577.694335938 c 0
331.596679688 157.694335938 m 0
 331.596679688 202.045350757 293.53445792 241.01171875 248.403320312 241.01171875 c 0
 201.584627443 241.01171875 168.353060248 202.338772826 168.353060248 160.663738202 c 0
 168.353060248 138.082033102 178.109971338 114.618903652 200.749023438 95.94921875 c 0
 216.047657563 83.3328855153 233.683221403 77.6639934705 250.952592962 77.6639934705 c 0
 292.325530125 77.6639934705 331.596679688 110.20101738 331.596679688 157.694335938 c 0
EndSplineSet
EndChar

StartChar: semicolon
Encoding: 59 59 27
Width: 500
Flags: HW
LayerCount: 2
Fore
SplineSet
199.818359375 137.749023438 m 0
 199.818359375 128.145507812 202.09375 124.1171875 202.09375 109.939453125 c 0
 202.09375 63.00390625 172.413085938 19.263671875 143.444335938 7.14453125 c 0
 121.791015625 -1.9140625 106.560546875 -23.3095703125 106.560546875 -48.2333984375 c 0
 106.560546875 -82.7905729928 135.049675802 -108.277979894 166.651455 -108.277979894 c 0
 174.264175492 -108.277979894 182.057524797 -106.798931607 189.676757812 -103.611328125 c 0
 264.896844904 -72.1428439282 322.104609757 15.3650763318 322.104609757 109.857419401 c 0
 322.104609757 122.35897043 321.10325137 134.982776024 319.009765625 147.615234375 c 0
 314.298828125 176.04296875 289.573242188 197.749023438 259.818359375 197.749023438 c 0
 226.703125 197.749023438 199.818359375 170.864257812 199.818359375 137.749023438 c 0
331.596679688 577.694335938 m 0
 331.596679688 622.045350757 293.53445792 661.01171875 248.403320312 661.01171875 c 0
 201.584627443 661.01171875 168.353060248 622.338772826 168.353060248 580.663738202 c 0
 168.353060248 558.082033102 178.109971338 534.618903652 200.749023438 515.94921875 c 0
 216.047657563 503.332885515 233.683221403 497.663993471 250.952592962 497.663993471 c 0
 292.325530125 497.663993471 331.596679688 530.20101738 331.596679688 577.694335938 c 0
EndSplineSet
EndChar

StartChar: less
Encoding: 60 60 28
Width: 500
Flags: HW
LayerCount: 2
Fore
SplineSet
338.415039062 156.533203125 m 0
 346.011586462 153.367155769 353.779214675 151.897824515 361.366953968 151.897824515 c 0
 392.971999604 151.897824515 421.456054688 177.390050448 421.456054688 211.942382812 c 0
 421.456054688 236.895507812 406.190429688 258.311523438 384.497070312 267.3515625 c 0
 343.22265625 284.553710938 293.951171875 319.041015625 231.666992188 370.92578125 c 1
 288.787109375 412.76953125 353.19921875 458.30078125 393.3984375 480.249023438 c 0
 412.046875 490.430664062 424.708984375 510.22265625 424.708984375 532.948242188 c 0
 424.708984375 567.876706191 395.855911127 592.995964961 364.49361385 592.995964961 c 0
 354.988269921 592.995964961 345.252432125 590.688544409 336.01953125 585.647460938 c 0
 274.494140625 552.055664062 199.037109375 496.622070312 99.45703125 422.314453125 c 0
 83.4307472185 410.356063225 75.3085536655 392.284997097 75.3085536655 374.168585617 c 0
 75.3085536655 357.448450667 82.2269993976 340.689690762 96.2353515625 328.662109375 c 0
 178.9609375 257.6328125 257.374023438 190.306640625 338.415039062 156.533203125 c 0
EndSplineSet
Substitution2: "leftarrowhead-1" leftarrowhead
EndChar

StartChar: equal
Encoding: 61 61 29
Width: 500
Flags: HW
LayerCount: 2
Fore
SplineSet
60.142578125 295.286132812 m 0
 60.142578125 262.124885589 87.0834032069 235.285895996 120.128287303 235.285895996 c 0
 120.925171459 235.285895996 121.725605388 235.301504026 122.529296875 235.333007812 c 0
 179.378055757 237.56175391 378.774505464 238.903985309 381.362304688 238.967773438 c 0
 413.783203125 239.767578125 439.857421875 266.337890625 439.857421875 298.94921875 c 0
 439.857421875 332.084404442 412.948341406 358.950249133 379.862033946 358.950249133 c 0
 379.360265585 358.950249133 378.85707652 358.944070243 378.352539062 358.931640625 c 0
 375.747103414 358.867370284 178.252464321 357.611237068 117.755859375 355.240234375 c 0
 85.7451171875 353.985351562 60.142578125 327.602539062 60.142578125 295.286132812 c 0
60.142578125 437.286132812 m 0
 60.142578125 404.124885589 87.0834032069 377.285895996 120.128287303 377.285895996 c 0
 120.925171459 377.285895996 121.725605388 377.301504026 122.529296875 377.333007812 c 0
 179.378055757 379.56175391 378.774505464 380.903985309 381.362304688 380.967773438 c 0
 413.783203125 381.767578125 439.857421875 408.337890625 439.857421875 440.94921875 c 0
 439.857421875 474.084404442 412.948341406 500.950249133 379.862033946 500.950249133 c 0
 379.360265585 500.950249133 378.85707652 500.944070243 378.352539062 500.931640625 c 0
 375.747103414 500.867370284 178.252464321 499.611237068 117.755859375 497.240234375 c 0
 85.7451171875 495.985351562 60.142578125 469.602539062 60.142578125 437.286132812 c 0
EndSplineSet
Substitution2: "longequal-1" longequal
Substitution2: "rightequal-1" rightequal
Substitution2: "leftequal-1" leftequal
EndChar

StartChar: greater
Encoding: 62 62 30
Width: 500
Flags: HW
LayerCount: 2
Fore
SplineSet
76.5439453125 194.87109375 m 0
 76.5439453125 159.874325155 105.460868459 134.824123719 136.784584783 134.824123719 c 0
 146.639101071 134.824123719 156.731828917 137.30345912 166.237304688 142.732421875 c 0
 235.5625 182.327148438 311.4375 259.625976562 395.319335938 309.520507812 c 0
 414.747969533 321.077014597 424.659142962 341.101077215 424.659142962 361.18561999 c 0
 424.659142962 379.520805145 416.399300263 397.906393673 399.580078125 409.946289062 c 0
 227.056762849 533.442949067 218.960847849 539.23821483 166.388671875 571.188476562 c 0
 156.513341715 577.189623795 145.917269109 579.921863855 135.569321686 579.921863855 c 0
 104.297644239 579.921863855 75.2919921875 554.969437437 75.2919921875 519.875976562 c 0
 75.2919921875 498.141601562 86.873046875 479.090820312 104.1953125 468.563476562 c 0
 147.673828125 442.140625 207.01171875 400.459960938 259.934570312 362.561523438 c 1
 258.398010178 361.413623419 136.242743536 263.797094335 106.850585938 247.009765625 c 0
 88.7529296875 236.673828125 76.5439453125 217.186523438 76.5439453125 194.87109375 c 0
EndSplineSet
Substitution2: "rightarrowhead-1" rightarrowhead
EndChar

StartChar: question
Encoding: 63 63 31
Width: 500
Flags: HW
LayerCount: 2
Fore
SplineSet
326.965820312 48.865234375 m 0
 326.965820312 93.5678638914 288.033623271 132.874023438 243.009765625 132.874023438 c 0
 196.467589278 132.874023438 162.933934429 94.4003799191 162.933934429 52.6328624046 c 0
 162.933934429 29.6324577946 173.102847039 5.6332024193 196.868164062 -13.490234375 c 0
 212.02262843 -25.6847580976 229.367322482 -31.1689771918 246.346177333 -31.1689771918 c 0
 287.743389598 -31.1689771918 326.965820312 1.43271912362 326.965820312 48.865234375 c 0
421.674804688 402.25 m 0
 459.164822949 447.675907982 475.261025531 494.650479964 475.261025531 538.651658862 c 0
 475.261025531 649.990780901 372.200965959 742.291992188 251.909179688 742.291992188 c 0
 213.973342335 742.291992188 77.7599718715 729.587208742 27.337890625 551.969726562 c 0
 25.7740891958 546.461088985 25.0349489954 540.95000676 25.0349489954 535.552101728 c 0
 25.0349489954 503.577027084 50.9707388275 475.573242188 85.06640625 475.573242188 c 0
 112.497070312 475.573242188 135.653320312 494.021484375 142.794921875 519.176757812 c 0
 154.661132812 560.9765625 183.692382812 622.291992188 251.909179688 622.291992188 c 0
 302.390625 622.291992188 355.24609375 585.294921875 355.24609375 539.142578125 c 0
 355.24609375 523.95703125 349.909179688 503.788085938 329.084960938 478.556640625 c 0
 315.771484375 462.424804688 274.288085938 429.985351562 240.9765625 386.354492188 c 0
 216.412182114 354.182750752 188.488959774 305.80060572 188.488959774 243.560534459 c 0
 188.488959774 236.273336058 188.871737413 228.796170173 189.6875 221.1328125 c 0
 192.892578125 191.028320312 218.400390625 167.545898438 249.348632812 167.545898438 c 0
 282.463867188 167.545898438 309.348632812 194.430664062 309.348632812 227.545898438 c 0
 309.348632812 233.57421875 308.493164062 235.8671875 308.493164062 243.536132812 c 0
 308.493164062 291.296875 348.545898438 330.607421875 387.16015625 367.098632812 c 0
 399.090820312 378.373046875 410.634765625 388.874023438 421.674804688 402.25 c 0
EndSplineSet
EndChar

StartChar: at
Encoding: 64 64 32
Width: 500
Flags: HW
LayerCount: 2
Fore
SplineSet
475.08984375 444.092773438 m 0
 475.08984375 581.669030305 417.036047207 731.453125 300.174804688 731.453125 c 0
 127.135742188 731.453125 24.880859375 487.4140625 24.880859375 313.424804688 c 0
 24.880859375 116.174402521 103.391108043 7.06401126268 207.726750176 7.06401126268 c 0
 241.575949236 7.06401126268 278.143329182 18.5481259328 315.629882812 42.232421875 c 0
 332.458984375 52.865234375 343.645507812 71.6337890625 343.645507812 92.994140625 c 0
 343.645507812 128.14951265 314.583618817 153.038648232 283.344626996 153.038648232 c 0
 272.680671324 153.038648232 261.763015 150.138284559 251.661132812 143.755859375 c 0
 232.418483282 131.597969529 218.989172862 127.453055839 209.289089888 127.453055839 c 0
 196.197675783 127.453055839 189.898940722 135.002895255 185.26953125 140.59375 c 0
 176.918945312 150.677734375 152.745117188 186.893554688 146.313476562 274.01953125 c 1
 160.756835938 232.559570312 193.63671875 201.984375 231.795898438 201.984375 c 0
 246.942382812 201.984375 275.447265625 206.00390625 301.770507812 231.927734375 c 1
 315.010742188 221.479492188 333.434570312 213.622070312 353.422851562 213.622070312 c 0
 450.529296875 213.622070312 475.08984375 371.577148438 475.08984375 444.092773438 c 0
170.82421875 458.276367188 m 1
 175.533025159 471.988881259 225.265922914 611.453125 300.174804688 611.453125 c 0
 312.194335938 611.453125 342.903320312 568.97265625 352.528320312 486.759765625 c 1
 337.104842789 514.244753228 308.954663878 530.274956845 277.649398901 530.274956845 c 0
 241.30013727 530.274956845 200.697168077 508.662932038 170.82421875 458.276367188 c 1
EndSplineSet
EndChar

StartChar: A
Encoding: 65 65 33
Width: 500
Flags: HW
LayerCount: 2
Fore
SplineSet
0.017578125 37.138671875 m 0
 -0.434415143598 34.1117655674 -0.653130990673 31.1107254716 -0.653130990673 28.1522613687 c 0
 -0.653130990673 -4.39024749241 25.8105167177 -31.78125 59.357421875 -31.78125 c 0
 89.44140625 -31.78125 114.383789062 -9.591796875 118.697265625 19.298828125 c 0
 122.4296435 44.2960708008 138.691417889 113.87834006 172.405049312 230.920576603 c 1
 207.208843755 229.462283589 249.626344894 228.755674826 289.394739747 228.755674826 c 0
 304.482518789 228.755674826 319.188991611 228.857382454 332.953719439 229.058336196 c 1
 373.558962325 57.5579753948 373.653141402 57.2156486758 384.04296875 19.4501953125 c 0
 391.029296875 -5.9423828125 414.301757812 -24.6181640625 441.901367188 -24.6181640625 c 0
 475.963046054 -24.6181640625 501.931356847 3.34854248148 501.931356847 35.3551741326 c 0
 501.931356847 40.6011956372 501.233728869 45.9557480665 499.759765625 51.3134765625 c 0
 488.927734375 90.6845703125 474.443359375 151.9921875 457.880859375 222.265625 c 0
 418.893554688 387.682617188 369.2109375 601.512695312 316.729492188 728.974609375 c 0
 306.536901991 753.730091705 283.908234458 765.953764347 261.296397438 765.953764347 c 0
 237.721404419 765.953764347 214.164706249 752.666573796 204.739257812 726.44140625 c 0
 202.307259424 719.674552741 24.964133039 204.232236467 0.017578125 37.138671875 c 0
304.100938897 348.798000119 m 1
 300.145593773 348.782051567 296.019068711 348.7734375 291.717773438 348.7734375 c 0
 258.693407172 348.7734375 230.759497714 349.246534975 207.823407226 349.905440553 c 1
 223.070505612 399.694294261 240.521578646 455.107686561 260.372070312 516.259765625 c 1
 275.27872876 463.203710223 290.044827113 405.772231116 304.100938897 348.798000119 c 1
EndSplineSet
EndChar

StartChar: B
Encoding: 66 66 34
Width: 500
Flags: HW
LayerCount: 2
Fore
SplineSet
287.931640625 565.268554688 m 0
 287.931640625 523.1171875 249.795898438 477.63671875 162.565429688 448.873046875 c 1
 161.977539062 506.823242188 161.140625 570.848632812 160.215820312 641.672851562 c 1
 172.829717984 645.346486288 184.801385873 647.013224872 195.992038962 647.013224872 c 0
 251.606735858 647.013224872 287.931640625 605.847499442 287.931640625 565.268554688 c 0
347.76171875 237.776367188 m 0
 347.76171875 180.888671875 298.950195312 89.3623046875 158.098632812 89.3623046875 c 1
 161.889297856 142.006673334 163.4317167 208.508242976 163.4317167 304.067109747 c 0
 163.4317167 310.624378633 163.424453862 317.318470554 163.41015625 324.154296875 c 1
 170.516601562 325.96875 177.462890625 327.879882812 184.250976562 329.885742188 c 0
 191.257221137 330.950710864 206.599903352 332.895552612 225.211821405 332.895552612 c 0
 274.856689673 332.895552612 347.76171875 319.058272573 347.76171875 237.776367188 c 0
467.76171875 237.776367188 m 0
 467.76171875 268.540831468 459.526092639 373.26359673 351.771484375 426.631835938 c 1
 375.4140625 452.65234375 407.931640625 500.263671875 407.931640625 565.268554688 c 0
 407.931640625 675.08418224 314.933494835 766.986601437 195.718599553 766.986601437 c 0
 156.400052674 766.986601437 114.229747464 756.989805699 71.603515625 734.341796875 c 0
 66.1261842699 731.43172249 39.6925949486 715.614851887 39.6925949486 681.394446555 c 0
 39.6925949486 681.106391868 39.6944679398 680.817033172 39.6982421875 680.526367188 c 0
 41.7821992272 520.651931314 43.3824137088 397.887354593 43.3824137088 302.141581567 c 0
 43.3824137088 177.857631141 40.6861083508 99.0994186735 32.8515625 43.7958984375 c 0
 32.4447646519 40.9249916865 32.2474537131 38.0765708597 32.2474537131 35.2652953737 c 0
 32.2474537131 6.17512224669 53.3744114563 -18.9377344154 82.1376953125 -23.8310546875 c 0
 109.328624833 -28.4567469423 135.27338006 -30.6288356041 159.909197974 -30.6288356041 c 0
 354.788524356 -30.6288356041 467.76171875 105.288582848 467.76171875 237.776367188 c 0
EndSplineSet
EndChar

StartChar: C
Encoding: 67 67 35
Width: 500
Flags: HW
LayerCount: 2
Fore
SplineSet
129.26953125 297.094726562 m 0
 129.26953125 493.241210938 237.766601562 644.991210938 311.075195312 644.991210938 c 0
 325.567382812 644.991210938 342.435546875 639.899414062 363.901367188 615.598632812 c 0
 376.277687106 601.587754619 392.341230167 595.337066784 408.164962802 595.337066784 c 0
 438.977057571 595.337066784 468.879882812 619.037287345 468.879882812 655.29296875 c 0
 468.879882812 670.506835938 463.205078125 684.40625 453.858398438 694.987304688 c 0
 414.6171875 739.411132812 364.337890625 764.991210938 311.075195312 764.991210938 c 0
 149.665039062 764.991210938 9.26953125 542.098632812 9.26953125 297.094726562 c 0
 9.26953125 91.1596822298 125.121002796 -28.9665314594 248.091158781 -28.9665314594 c 0
 337.973055078 -28.9665314594 431.658112689 35.2109682742 486.686523438 176.966796875 c 0
 489.474345452 184.148230693 490.772763219 191.450235174 490.772763219 198.585687137 c 0
 490.772763219 230.257771147 465.191336772 258.6484375 430.73046875 258.6484375 c 0
 405.259765625 258.6484375 383.474609375 242.7421875 374.774414062 220.330078125 c 0
 334.61328125 116.875976562 281.100585938 91.09375 248.127929688 91.09375 c 0
 188.16015625 91.09375 129.26953125 169.404296875 129.26953125 297.094726562 c 0
EndSplineSet
EndChar

StartChar: D
Encoding: 68 68 36
Width: 500
Flags: HW
LayerCount: 2
Fore
SplineSet
284.223632812 624.084960938 m 0
 325.388804784 583.376635375 346.009097309 503.519558549 346.009097309 417.716945646 c 0
 346.009097309 266.604585155 282.05125933 97.0509909811 153.723632812 90.431640625 c 1
 153.718370739 91.2675902569 153.715766315 92.1426203753 153.715766315 93.0558559168 c 0
 153.715766315 181.989548316 178.414724639 633.243026964 178.65625 638.669921875 c 1
 197.601502116 645.82237891 213.445738985 648.610036006 226.741292858 648.610036006 c 0
 256.804460238 648.610036006 273.836787296 634.357375106 284.223632812 624.084960938 c 0
45.015625 375.233398438 m 0
 38.5286694972 258.121100599 33.6839046749 170.664065765 33.6839046749 99.3490329556 c 0
 33.6839046749 75.1571138116 34.2414127625 52.8227248077 35.4814453125 31.818359375 c 0
 37.0986328125 4.41796875 57.1396484375 -18.0625 83.37890625 -23.3955078125 c 0
 105.307083094 -27.8532479203 126.32263953 -29.9729242677 146.418234658 -29.9729242677 c 0
 357.090144185 -29.9729242677 466.655087209 202.986922826 466.655087209 417.286776998 c 0
 466.655087209 533.536032909 434.414107543 644.294331259 368.58203125 709.396484375 c 0
 346.753191356 730.983802219 299.163866682 768.603715693 226.215361632 768.603715693 c 0
 188.259792789 768.603715693 143.439020219 758.41930254 91.8095703125 730.493164062 c 0
 73.7578125 720.729492188 61.265625 701.979492188 60.3466796875 680.256835938 c 0
 55.28515625 560.654296875 49.7373046875 460.487304688 45.015625 375.233398438 c 0
EndSplineSet
EndChar

StartChar: E
Encoding: 69 69 37
Width: 500
Flags: HW
LayerCount: 2
Fore
SplineSet
235.809570312 325.625976562 m 1
 256.024414062 325.625976562 272.975585938 324.615234375 273.3515625 324.615234375 c 0
 306.466796875 324.615234375 333.3515625 351.5 333.3515625 384.615234375 c 0
 333.3515625 416.444335938 308.514648438 442.517578125 277.180664062 444.495117188 c 0
 264.659570108 445.285164949 250.856587447 445.651428573 235.615288899 445.651428573 c 0
 212.072950569 445.651428573 185.098910534 444.777554125 154.116674397 443.24179048 c 1
 153.902537605 459.954879654 153.781520874 476.535918909 153.781520874 492.881234841 c 0
 153.781520874 547.626922148 155.139079533 599.728278922 158.90234375 645.290039062 c 1
 161.59831113 645.333633907 164.276335575 645.354322831 166.938209057 645.354322831 c 0
 216.619178054 645.354322831 260.674095376 638.147510882 310.753311698 638.147510882 c 0
 337.210949137 638.147510882 365.350073879 640.159058248 396.888671875 646.307617188 c 0
 424.495117188 651.689453125 445.359375 676.02734375 445.359375 705.19921875 c 0
 445.359375 738.314453125 418.474609375 765.19921875 385.359375 765.19921875 c 0
 371.485351562 765.19921875 355.186523438 758.135742188 310.495117188 758.135742188 c 0
 267.060094537 758.135742188 223.036119113 765.359135104 167.244148153 765.359135104 c 0
 146.060634179 765.359135104 123.1806154 764.317792018 97.9921875 761.444335938 c 0
 71.001953125 758.365234375 49.42578125 737.348632812 45.4951171875 710.625 c 0
 36.8493284927 651.845402016 33.7662912245 581.552329321 33.7662912245 497.947177563 c 0
 33.7662912245 427.492673316 35.9557169776 347.5845666 38.8505859375 257.146484375 c 0
 40.955078125 191.3828125 42.8916015625 130.328125 42.8916015625 81.79296875 c 0
 42.8916015625 46.2548828125 41.8623046875 32.1171875 41.8623046875 28.251953125 c 0
 41.8623046875 -4.86328125 68.7470703125 -31.748046875 101.862304688 -31.748046875 c 0
 111.552734375 -31.748046875 141.309570312 -26.2021484375 193.780273438 -26.2021484375 c 0
 230.337890625 -26.2021484375 260.334960938 -28.9140625 294.12890625 -28.9140625 c 0
 330.734375 -28.9140625 371.735351562 -25.3310546875 422.326171875 -12.4033203125 c 0
 448.25390625 -5.7783203125 467.447265625 17.7548828125 467.447265625 45.734375 c 0
 467.447265625 78.849609375 440.5625 105.734375 407.447265625 105.734375 c 0
 386.916992188 105.734375 362.704101562 91.0859375 294.12890625 91.0859375 c 0
 264.298828125 91.0859375 233.337890625 93.7978515625 193.780273438 93.7978515625 c 0
 184.018554688 93.7978515625 173.739257812 93.6279296875 162.860351562 93.2158203125 c 1
 162.516595268 158.352013056 159.345890998 239.356520273 156.847097625 323.22640663 c 1
 181.616992605 324.477048969 235.49963705 325.626315144 235.81599321 325.626315144 c 0
 235.816925272 325.626315144 235.81739236 325.626305168 235.81739236 325.626285189 c 0
 235.81739236 325.62623807 235.814794257 325.626135312 235.809570312 325.625976562 c 1
EndSplineSet
EndChar

StartChar: F
Encoding: 70 70 38
Width: 500
Flags: HW
LayerCount: 2
Fore
SplineSet
235.809570312 325.625976562 m 0
 256.024414062 325.625976562 272.975585938 324.615234375 273.3515625 324.615234375 c 0
 306.466796875 324.615234375 333.3515625 351.5 333.3515625 384.615234375 c 0
 333.3515625 416.444335938 308.514648438 442.517578125 277.180664062 444.495117188 c 0
 264.659570108 445.285164949 250.856587447 445.651428573 235.615288899 445.651428573 c 0
 212.068511428 445.651428573 185.088737968 444.777224538 154.099147948 443.240921659 c 1
 153.883924761 459.928616027 153.762276479 476.487997105 153.762276479 492.818124004 c 0
 153.762276479 547.471247486 155.124840239 599.556530054 158.90234375 645.290039062 c 1
 161.59831113 645.333633907 164.276335575 645.354322831 166.938209057 645.354322831 c 0
 216.619178054 645.354322831 260.674095376 638.147510882 310.753311698 638.147510882 c 0
 337.210949137 638.147510882 365.350073879 640.159058248 396.888671875 646.307617188 c 0
 424.495117188 651.689453125 445.359375 676.02734375 445.359375 705.19921875 c 0
 445.359375 738.314453125 418.474609375 765.19921875 385.359375 765.19921875 c 0
 371.485351562 765.19921875 355.186523438 758.135742188 310.495117188 758.135742188 c 0
 267.060094537 758.135742188 223.036119113 765.359135104 167.244148153 765.359135104 c 0
 146.060634179 765.359135104 123.1806154 764.317792018 97.9921875 761.444335938 c 0
 71.001953125 758.365234375 49.42578125 737.348632812 45.4951171875 710.625 c 0
 36.8493284927 651.845402016 33.7662912245 581.552329321 33.7662912245 497.947177563 c 0
 33.7662912245 427.492673316 35.9557169776 347.5845666 38.8505859375 257.146484375 c 0
 40.955078125 191.3828125 42.8916015625 130.328125 42.8916015625 81.79296875 c 0
 42.8916015625 46.2548828125 41.8623046875 32.1171875 41.8623046875 28.251953125 c 0
 41.8623046875 -4.86328125 68.7470703125 -31.748046875 101.862304688 -31.748046875 c 0
 134.043945312 -31.748046875 160.341796875 -6.357421875 161.798828125 25.4677734375 c 0
 162.573248369 42.3863094817 162.898960979 61.4755311568 162.898960979 82.2931964419 c 0
 162.898960979 149.538026398 159.500452724 234.817558407 156.848852748 323.226495246 c 1
 181.863440416 324.489477036 210.802915641 325.625976562 235.809570312 325.625976562 c 0
EndSplineSet
EndChar

StartChar: G
Encoding: 71 71 39
Width: 500
Flags: HW
LayerCount: 2
Fore
SplineSet
362.42578125 305.862304688 m 1
 362.817958771 299.365289802 363.01438742 292.715135251 363.01438742 285.964877523 c 0
 363.01438742 196.011681205 328.132713451 88.2822265625 256.760742188 88.2822265625 c 0
 196.124023438 88.2822265625 136.727539062 167.025390625 136.727539062 295.439453125 c 0
 136.727539062 492.4375 245.938476562 645.111328125 320.12109375 645.111328125 c 0
 334.883789062 645.111328125 351.983398438 639.907226562 373.6328125 615.453125 c 0
 386.006470492 601.475774718 402.050595826 595.23993087 417.854407724 595.23993087 c 0
 448.667667447 595.23993087 478.567382813 618.945305159 478.567382812 655.196289062 c 0
 478.567382812 670.43359375 472.875 684.352539062 463.501953125 694.939453125 c 0
 424.045898438 739.508789062 373.55859375 765.111328125 320.12109375 765.111328125 c 0
 157.973632812 765.111328125 16.7275390625 541.420898438 16.7275390625 295.439453125 c 0
 16.7275390625 83.6140928654 138.08351791 -32.1465012702 257.208881245 -32.1465012702 c 0
 337.558747924 -32.1465012702 416.89380034 20.5185597348 457.290039062 131.892578125 c 0
 464.600979939 152.048858195 483.232311297 210.788193975 483.232311297 285.881955191 c 0
 483.232311297 315.719198639 480.290914801 348.138375107 472.529296875 381.745117188 c 0
 466.384765625 408.350585938 442.526367188 428.208984375 414.065429688 428.208984375 c 0
 373.466796875 428.208984375 302.426757812 420.688476562 268.975585938 420.688476562 c 0
 260.915039062 420.688476562 248.384765625 421.359375 248.176757812 421.359375 c 0
 215.061523438 421.359375 188.176757812 394.474609375 188.176757812 361.359375 c 0
 188.176757812 329.657226562 212.817382812 303.6640625 243.974609375 301.504882812 c 0
 252.928618478 300.884002759 258.750490008 300.480308294 266.51023909 300.480308294 c 0
 280.933699495 300.480308294 302.052457855 301.875058298 362.42578125 305.862304688 c 1
EndSplineSet
EndChar

StartChar: H
Encoding: 72 72 40
Width: 500
Flags: HW
LayerCount: 2
Fore
SplineSet
354.423828125 674.54296875 m 0
 354.423828125 650.2169288 354.423828125 650.2169288 349.187913024 442.147217082 c 1
 339.317355853 442.553716502 329.802689846 442.730928214 320.571752479 442.730928214 c 0
 258.659690129 442.730928214 209.510902252 434.759220736 151.353298492 434.52760754 c 1
 153.338159375 534.110900937 155.999553682 630.152898821 159.754882812 700.081054688 c 0
 159.81406735 701.182867257 159.8432922 702.278880662 159.8432922 703.368339875 c 0
 159.8432922 736.362137841 133.039579619 763.344726562 99.8427734375 763.344726562 c 0
 67.822265625 763.344726562 41.626953125 738.208007812 39.9306640625 706.608398438 c 0
 39.5712911341 699.917549933 25.53125 307.478256317 25.53125 36.7138671875 c 0
 25.53125 3.5986328125 52.416015625 -23.2861328125 85.53125 -23.2861328125 c 0
 118.329101562 -23.2861328125 145.015625 3.0869140625 145.5234375 35.7646484375 c 0
 145.566801329 38.5519943587 148.639456945 273.538045685 149.265443537 314.507853652 c 1
 213.858045612 314.554973754 262.120495598 322.695417995 320.140125397 322.695417995 c 0
 328.670417646 322.695417995 337.411622349 322.519453106 346.446647522 322.115930871 c 1
 345.214877621 259.846739273 344.51579741 205.251242863 344.51579741 157.096365576 c 0
 344.51579741 107.175316281 345.267098222 64.1759939928 346.955078125 26.724609375 c 0
 348.390625 -5.119140625 374.697265625 -30.533203125 406.893554688 -30.533203125 c 0
 440.008789062 -30.533203125 466.893554688 -3.6484375 466.893554688 29.466796875 c 0
 466.893554688 30.76171875 464.5703125 73.8994140625 464.5703125 158.969726562 c 0
 464.5703125 268.493164062 468.036132812 398.971679688 470.859375 504.954101562 c 0
 472.874966518 580.580726878 474.425975614 638.780659338 474.425975614 674.225007173 c 0
 474.425975614 683.756574554 474.313812771 691.642548058 474.068359375 697.779296875 c 0
 472.790039062 729.767578125 446.416992188 755.345703125 414.1171875 755.345703125 c 0
 381.001953125 755.345703125 354.1171875 728.4609375 354.1171875 695.345703125 c 0
 354.1171875 692.745117188 354.423828125 689.141601562 354.423828125 674.54296875 c 0
EndSplineSet
EndChar

StartChar: I
Encoding: 73 73 41
Width: 500
Flags: HW
LayerCount: 2
Fore
SplineSet
144.33984375 754.51171875 m 0
 118.786132812 754.51171875 96.064453125 756.642578125 95.576171875 756.642578125 c 0
 62.4609375 756.642578125 35.576171875 729.7578125 35.576171875 696.642578125 c 0
 35.576171875 665.6640625 59.103515625 640.137695312 89.25 636.97265625 c 0
 106.163178065 635.196888789 124.803244281 634.518274695 144.531463707 634.518274695 c 0
 160.541908305 634.518274695 177.269025918 634.965219486 194.371413668 635.635400448 c 1
 193.879856991 531.577653406 184.576171875 368.394040386 184.576171875 232.081054688 c 0
 184.576171875 184.283469379 185.486205824 139.798574207 188.724870658 100.493713169 c 1
 150.89436351 97.5087106507 117.129529338 94.19921875 85.9453125 94.19921875 c 0
 52.8125 94.19921875 25.927734375 67.314453125 25.927734375 34.19921875 c 0
 25.927734375 1.453125 52.369140625 -25.80078125 86.0693359375 -25.80078125 c 0
 149.450465376 -25.80078125 213.247260151 -14.8531954525 290.943855661 -14.8531954525 c 0
 324.96482039 -14.8531954525 361.650788995 -16.9521722029 402.133789062 -22.98828125 c 0
 405.156770755 -23.4390746265 408.153908512 -23.6572184637 411.108561884 -23.6572184637 c 0
 443.652320116 -23.6572184637 471.041992188 2.80737829154 471.041992188 36.353515625 c 0
 471.041992188 66.44140625 448.846679688 91.38671875 419.950195312 95.6953125 c 0
 379.744194989 101.690337432 342.963204072 104.334922928 309.046013175 105.002367298 c 1
 306.035104387 139.71053506 304.576171875 184.066776316 304.576171875 232.081054688 c 0
 304.576171875 376.380598289 314.215982786 526.165516164 314.401979098 641.087239286 c 1
 326.169290025 641.440629285 337.739905221 641.654296875 349.000976562 641.654296875 c 0
 384.447265625 641.654296875 413.420898438 638.551757812 414.072265625 638.551757812 c 0
 447.1875 638.551757812 474.072265625 665.436523438 474.072265625 698.551757812 c 0
 474.072265625 729.365234375 450.793945312 754.78515625 420.877929688 758.168945312 c 0
 398.22059164 760.731946759 373.851430122 761.672547835 348.740880398 761.672547835 c 0
 279.456531665 761.672547835 204.527968426 754.51171875 144.33984375 754.51171875 c 0
EndSplineSet
EndChar

StartChar: J
Encoding: 74 74 42
Width: 500
Flags: HW
LayerCount: 2
Fore
SplineSet
250.982421875 83.8603515625 m 0
 233.914415064 83.8603515625 150.838867188 88.7418407471 150.838867188 183.78125 c 0
 150.838867188 201.365234375 153.206054688 209.705078125 153.206054688 218.094726562 c 0
 153.206054688 251.209960938 126.321289062 278.094726562 93.2060546875 278.094726562 c 0
 62.791015625 278.094726562 37.630859375 255.4140625 33.73046875 226.057617188 c 0
 31.781279502 211.384152182 30.8517535942 197.344624167 30.8517535942 183.93452042 c 0
 30.8517535942 35.1645671499 145.252188796 -36.1396484375 250.982421875 -36.1396484375 c 0
 367.150637317 -36.1396484375 469.015625 90.1603068454 469.015625 376.07421875 c 0
 469.015625 546.154296875 453.638671875 632.330078125 432.231445312 721.276367188 c 0
 425.893554688 747.612304688 402.163085938 767.206054688 373.893554688 767.206054688 c 0
 339.966590093 767.206054688 313.868704797 739.387805024 313.868704797 707.253268386 c 0
 313.868704797 702.613820785 314.412698387 697.884402966 315.555664062 693.135742188 c 0
 335.8828125 608.6796875 349.015625 540.16796875 349.015625 376.07421875 c 0
 349.015625 186.537892988 296.652488348 83.8603515625 250.982421875 83.8603515625 c 0
EndSplineSet
EndChar

StartChar: K
Encoding: 75 75 43
Width: 500
Flags: HW
LayerCount: 2
Fore
SplineSet
435.228515625 29.4775390625 m 0
 435.247052574 32.5157036296 435.259456521 35.7461405321 435.259456521 39.1544233697 c 0
 435.259456521 132.346711993 425.985851189 358.502563066 279.245117188 422.7109375 c 1
 331.276367188 499.8203125 371.227539062 579.6796875 418.954101562 676.286132812 c 0
 423.214035435 684.908754656 425.173907413 693.880494279 425.173907413 702.640035794 c 0
 425.173907413 734.090061395 399.909625455 762.8046875 365.125976562 762.8046875 c 0
 327.737340598 762.8046875 314.575614163 736.016059268 304.805664062 716.130859375 c 0
 284.220884069 674.231546308 239.534931373 583.275530653 193.185299871 510.275314646 c 1
 194.309907464 575.033455236 196.082759834 639.364956886 199.122070312 699.563476562 c 0
 199.174339287 700.598890265 199.200168266 701.629118978 199.200168266 702.653536577 c 0
 199.200168266 735.659346185 172.387876017 762.6328125 139.19921875 762.6328125 c 0
 107.11328125 762.6328125 80.876953125 737.392578125 79.2763671875 705.701171875 c 0
 79.0993040991 702.193912461 71.0888838249 494.910045339 71.0888671875 354.624023438 c 0
 71.0888671875 352.731958452 71.1743807751 350.866827002 71.3412480824 349.031365789 c 0
 70.191475462 217.797620319 69.5641646721 98.4449910324 64.9052734375 34.017578125 c 0
 64.7980463642 32.5348722104 64.7453189258 31.0618860208 64.7453189258 29.6004724674 c 0
 64.7453189258 -3.31710510573 91.4966962473 -30.36328125 124.747070312 -30.36328125 c 0
 156.388671875 -30.36328125 182.341796875 -5.818359375 184.588867188 25.2548828125 c 0
 189.506709064 93.2544610903 190.274184931 198.603653645 191.120135125 315.949508483 c 1
 196.52291427 317.206658153 201.780238853 317.825840523 206.885809049 317.825840523 c 0
 274.296431573 317.825840523 315.251953125 209.884761821 315.251953125 37.240234375 c 0
 315.251953125 33.0634765625 315.229492188 30.357421875 315.229492188 29.8505859375 c 0
 315.229492188 -3.2646484375 342.114257812 -30.1494140625 375.229492188 -30.1494140625 c 0
 408.219726562 -30.1494140625 435.02734375 -3.4658203125 435.228515625 29.4775390625 c 0
EndSplineSet
EndChar

StartChar: L
Encoding: 76 76 44
Width: 500
Flags: HW
LayerCount: 2
Fore
SplineSet
365.244140625 -14.6162109375 m 0
 387.336914062 -14.6162109375 406.897460938 -15.6396484375 407.318359375 -15.6396484375 c 0
 440.43359375 -15.6396484375 467.318359375 11.2451171875 467.318359375 44.3603515625 c 0
 467.318359375 76.4033203125 442.14453125 102.614257812 410.51171875 104.276367188 c 0
 391.553774035 105.272574289 377.839774299 105.904770133 362.110924955 105.904770133 c 0
 327.940834222 105.904770133 284.261608908 102.921105578 156.649414062 94.2041015625 c 1
 154.512695312 152.15625 153.176757812 231.524414062 153.176757812 314 c 0
 153.176757812 463.541992188 157.999023438 627.971679688 167.770507812 694.740234375 c 0
 168.204829491 697.708405504 168.415118562 700.651158807 168.415118562 703.552778901 c 0
 168.415118562 736.110334482 141.939922514 763.489257812 108.404296875 763.489257812 c 0
 78.2607421875 763.489257812 53.279296875 741.211914062 49.0390625 712.237304688 c 0
 37.3725283155 632.516884386 33.102338861 470.03605799 33.102338861 319.54779518 c 0
 33.102338861 196.861488237 35.9404805522 82.1459271017 39.9228515625 26.7431640625 c 0
 42.1572265625 -4.341796875 68.1162109375 -28.9013671875 99.7666015625 -28.9013671875 c 0
 144.3203125 -28.9013671875 276.647460938 -14.6162109375 365.244140625 -14.6162109375 c 0
EndSplineSet
EndChar

StartChar: M
Encoding: 77 77 45
Width: 500
Flags: HW
LayerCount: 2
Fore
SplineSet
463.93359375 30.5263671875 m 0
 463.922473754 38.1623951439 463.917063074 45.8610262559 463.917063074 53.6135188893 c 0
 463.917063074 334.531671764 471.021484375 686.171981885 471.021484375 692.616210938 c 0
 471.021484375 725.73046875 444.13671875 752.616210938 411.021484375 752.616210938 c 0
 386.143554688 752.616210938 364.78125 737.44140625 355.693359375 715.852539062 c 0
 322.754882812 637.599609375 286.04296875 514.408203125 251.500976562 396.874023438 c 1
 215.160702661 580.022084938 199.734972353 657.764828729 156.986328125 736.711914062 c 0
 146.834960938 755.4609375 126.98828125 768.206054688 104.1875 768.206054688 c 0
 72.837890625 768.206054688 47.0712890625 744.110351562 44.4140625 713.4453125 c 0
 27.359375 516.682617188 38.0009765625 204.669921875 29.0615234375 32.263671875 c 0
 29.0063746106 31.2000658076 28.9791310668 30.1419054691 28.9791310668 29.0898694711 c 0
 28.9791310668 -3.91228468515 55.788523732 -30.8876953125 88.9794921875 -30.8876953125 c 0
 121.037109375 -30.8876953125 147.256835938 -5.6923828125 148.8984375 25.9609375 c 0
 152.528320312 95.974609375 153.049804688 185.377929688 153.399414062 280.163085938 c 1
 163.845703125 235.55078125 176.051757812 192.392578125 191.926757812 152.875976562 c 0
 202.016128208 127.759823972 224.771518687 115.445757364 247.504425554 115.445757364 c 0
 271.748902761 115.445757364 295.967806963 129.45185664 304.76953125 156.872070312 c 0
 317.1796875 195.532226562 330.890625 241.467773438 345.319335938 290.436523438 c 1
 344.453550119 193.413830516 343.925412305 99.9793918411 343.925412305 42.1926420305 c 0
 343.925412305 38.0578945708 343.928116193 34.1056512928 343.93359375 30.34765625 c 0
 343.982421875 -2.7255859375 370.848632812 -29.5625 403.93359375 -29.5625 c 0
 437.048828125 -29.5625 463.93359375 -2.677734375 463.93359375 30.5263671875 c 0
EndSplineSet
EndChar

StartChar: N
Encoding: 78 78 46
Width: 500
Flags: HW
LayerCount: 2
Fore
SplineSet
42.767578125 235.129882812 m 0
 42.767578125 108.133789062 36.482421875 30.5654296875 36.482421875 28.498046875 c 0
 36.482421875 -4.6171875 63.3671875 -31.501953125 96.482421875 -31.501953125 c 0
 128.2109375 -31.501953125 154.220703125 -6.8212890625 156.342773438 24.373046875 c 0
 160.400194948 84.0236127677 161.905632929 106.155951563 161.905632929 196.583180639 c 0
 161.905632929 249.927014426 161.381751658 327.03696436 160.548828125 449.634765625 c 1
 225.68359375 298.877929688 297.883789062 121.125976562 338.016601562 9.2255859375 c 0
 346.326171875 -13.9453125 368.497070312 -30.5380859375 394.512695312 -30.5380859375 c 0
 425.790039062 -30.5380859375 451.508789062 -6.5546875 454.267578125 24.0087890625 c 0
 461.5703125 104.916015625 463.134765625 212.307617188 463.134765625 320.959960938 c 0
 463.134765625 420.7734375 461.715820312 521.555664062 461.715820312 600.916992188 c 0
 461.715820312 681.500976562 463.517578125 709.567382812 463.517578125 710.665039062 c 0
 463.517578125 743.779296875 436.6328125 770.665039062 403.517578125 770.665039062 c 0
 371.41015625 770.665039062 345.16015625 745.390625 343.591796875 713.669921875 c 0
 342.475218612 691.075024866 341.743829316 668.777870824 341.743829316 607.120760882 c 0
 341.743829316 575.486786322 341.936355496 533.491951966 342.368164062 475.780273438 c 0
 342.729492188 427.470703125 343.109375 376.560546875 343.133789062 325.997070312 c 1
 278.958007812 481.983398438 208.075195312 643.65625 164.596679688 729.694335938 c 0
 154.708984375 749.26171875 134.416015625 762.692382812 111.010742188 762.692382812 c 0
 80.25 762.692382812 54.8642578125 739.493164062 51.4111328125 709.651367188 c 0
 42.58984375 633.419921875 40.4375 557.63671875 40.4375 480.8203125 c 0
 40.4375 478.36328125 42.767578125 243.1875 42.767578125 235.129882812 c 0
EndSplineSet
EndChar

StartChar: O
Encoding: 79 79 47
Width: 500
Flags: HW
LayerCount: 2
Fore
SplineSet
254.145507812 -29.970703125 m 0
 432.313362087 -29.970703125 497.772460938 209.558124113 497.772460938 346.956054688 c 0
 497.772460938 422.209960938 487.912109375 649.270507812 372.866210938 734.375976562 c 0
 346.77734375 753.674804688 314.1640625 765.7421875 278.619140625 765.7421875 c 0
 104.4375 765.7421875 2.2275390625 512.102539062 2.2275390625 275.33984375 c 0
 2.2275390625 56.8056640625 148.600585938 -29.970703125 254.145507812 -29.970703125 c 0
377.772460938 346.956054688 m 0
 377.772460938 259.516567989 336.043045532 90.029296875 254.145507812 90.029296875 c 0
 221.379882812 90.029296875 122.227539062 117.2890625 122.227539062 275.33984375 c 0
 122.227539062 469.99609375 203.068359375 645.7421875 278.619140625 645.7421875 c 0
 336.431640625 645.7421875 377.772460938 499.500976562 377.772460938 346.956054688 c 0
EndSplineSet
EndChar

StartChar: P
Encoding: 80 80 48
Width: 500
Flags: HW
LayerCount: 2
Fore
SplineSet
47.15234375 520.575195312 m 0
 47.15234375 512.98828125 49.640625 323.624023438 49.640625 321.634765625 c 0
 49.640625 237.76171875 45.634765625 151.708984375 26.7412109375 39.740234375 c 0
 26.16674833 36.335749342 25.8898083651 32.9591628549 25.8898083651 29.6346910274 c 0
 25.8898083651 -2.81460176631 52.2744251695 -30.298828125 85.9033203125 -30.298828125 c 0
 115.59765625 -30.298828125 140.283203125 -8.6806640625 145.065429688 19.662109375 c 0
 164.74609375 136.29296875 169.440429688 229.575195312 169.634765625 315.91796875 c 1
 311.606921273 347.399321692 474.096679688 416.27084338 474.096679688 566.614257812 c 0
 474.096679688 617.345001619 459.199118098 692.989848947 380.009765625 736.734375 c 0
 347.621762434 754.625556978 300.417420622 770.219860465 221.072059262 770.219860465 c 0
 188.492838854 770.219860465 150.494883107 767.590777611 105.87890625 761.412109375 c 0
 78.275390625 757.588867188 56.646484375 734.958007812 54.369140625 706.891601562 c 0
 48.7314453125 637.41015625 47.15234375 576.588867188 47.15234375 520.575195312 c 0
170.579101562 647.953125 m 1
 184.882331651 649.145193576 201.858253951 650.097832825 219.585313672 650.097832825 c 0
 256.200713985 650.097832825 296.020712292 646.033562108 322.112304688 631.620117188 c 0
 335.23046875 624.373046875 354.096679688 611.629882812 354.096679688 566.53515625 c 0
 354.080620486 533.613792547 326.629664683 479.07003715 168.045898438 438.924804688 c 1
 167.491052105 469.409473502 167.165076743 496.540302323 167.165076743 522.018810678 c 0
 167.165076743 566.003174983 168.136555746 605.063257191 170.579101562 647.953125 c 1
EndSplineSet
EndChar

StartChar: Q
Encoding: 81 81 49
Width: 500
Flags: HW
LayerCount: 2
Fore
SplineSet
300.555664062 189.866210938 m 0
 300.91695083 192.577110046 301.092332551 195.264740654 301.092332551 197.917274035 c 0
 301.092332551 230.540303202 274.563925135 257.854492188 241.083984375 257.854492188 c 0
 210.676757812 257.854492188 185.5234375 235.186523438 181.612304688 205.842773438 c 0
 177.694147893 176.444491041 175.109516194 149.778344803 173.615988806 125.566121917 c 1
 145.721410021 152.460946035 122.227539062 198.40511194 122.227539062 275.33984375 c 0
 122.227539062 469.99609375 203.068359375 645.7421875 278.619140625 645.7421875 c 0
 336.431640625 645.7421875 377.772460938 499.500976562 377.772460938 346.956054688 c 0
 377.772460938 271.075817874 347.859242027 145.285583676 292.629986194 103.529471242 c 1
 293.707435021 128.763972004 296.239711535 157.481431934 300.555664062 189.866210938 c 0
305.0353048 -22.7080406858 m 1
 454.632783106 21.8465652499 497.772460938 241.501051823 497.772460938 346.956054688 c 0
 497.772460938 422.209960938 487.912109375 649.270507812 372.866210938 734.375976562 c 0
 346.77734375 753.674804688 314.1640625 765.7421875 278.619140625 765.7421875 c 0
 104.4375 765.7421875 2.2275390625 512.102539062 2.2275390625 275.33984375 c 0
 2.2275390625 105.567539018 90.5672670553 15.3143094545 179.475736479 -16.5098081728 c 1
 186.906665726 -56.6707733584 218.033962295 -172.245117188 330.177734375 -172.245117188 c 0
 347.637695312 -172.245117188 397.00390625 -168.294921875 442.140625 -127.572265625 c 0
 455.828019049 -115.223873634 461.935590788 -99.3479902015 461.935590788 -83.7164785095 c 0
 461.935590788 -52.8913934707 438.184958055 -23.0166015625 401.973632812 -23.0166015625 c 0
 386.53125 -23.0166015625 372.444335938 -28.8623046875 361.806640625 -38.4609375 c 0
 354.130637421 -45.3862954111 340.55259131 -52.2532654286 330.335245884 -52.2532654286 c 0
 327.605795142 -52.2532654286 325.116174785 -51.7632164132 323.04296875 -50.6533203125 c 0
 317.051141023 -47.445653919 310.53929799 -38.2491445844 305.0353048 -22.7080406858 c 1
EndSplineSet
EndChar

StartChar: R
Encoding: 82 82 50
Width: 500
Flags: HW
LayerCount: 2
Fore
SplineSet
434.509765625 554.374023438 m 0
 434.509765625 664.059686877 328.184305724 764.496887964 213.361125533 764.496887964 c 0
 175.079057177 764.496887964 135.852418973 753.332722921 99.306640625 727.625 c 0
 84.6689453125 717.329101562 74.833984375 700.657226562 73.8515625 681.66015625 c 0
 61.87109375 449.96875 71.3779296875 161.061523438 61.896484375 33.056640625 c 0
 61.78395308 31.5378292277 61.7286388671 30.0291296373 61.7286388671 28.5325361203 c 0
 61.7286388671 -4.37515597657 88.4724851956 -31.4296875 121.73046875 -31.4296875 c 0
 153.3359375 -31.4296875 179.266601562 -6.939453125 181.564453125 24.083984375 c 0
 186.326171875 88.3564453125 186.565429688 175.153320312 186.940429688 311.055664062 c 1
 191.76953125 312.873046875 196.602539062 314.719726562 201.432617188 316.596679688 c 0
 203.062978382 316.710206804 204.678185463 316.766664673 206.278115395 316.766664673 c 0
 277.344866249 316.766664673 318.26953125 205.374285973 318.26953125 36.169921875 c 0
 318.26953125 31.99609375 318.24609375 29.2998046875 318.24609375 28.7841796875 c 0
 318.24609375 -4.3310546875 345.130859375 -31.2158203125 378.24609375 -31.2158203125 c 0
 411.233398438 -31.2158203125 438.0390625 -4.537109375 438.245117188 28.40234375 c 0
 438.262116184 31.1258720675 438.271180784 33.8857483407 438.271180784 36.6797844494 c 0
 438.271180784 143.35525393 425.057805846 299.825165214 335.73046875 384.311523438 c 1
 361.061523438 402.205078125 434.509765625 456.747070312 434.509765625 554.374023438 c 0
192.10546875 641.34375 m 1
 199.191515182 643.490587438 206.377641678 644.479445528 213.53307543 644.479445528 c 0
 264.809498579 644.479445528 314.509765625 593.698885494 314.509765625 554.374023438 c 0
 314.509765625 526.598632812 299.918945312 488.365234375 187.59375 440.5234375 c 1
 188.20703125 508.61328125 189.428710938 577.21875 192.10546875 641.34375 c 1
EndSplineSet
EndChar

StartChar: S
Encoding: 83 83 51
Width: 500
Flags: HW
LayerCount: 2
Fore
SplineSet
171.346679688 559.853515625 m 0
 171.346679688 595.316452389 231.747543468 644.317537996 285.526881881 644.317537996 c 0
 295.182614915 644.317537996 304.624897223 642.737944668 313.465820312 639.216796875 c 0
 323.126953125 635.370117188 334.384765625 628.125 351.270507812 610.485351562 c 0
 363.514726641 597.694329699 378.862004159 591.982216424 393.953718534 591.982216424 c 0
 424.816931823 591.982216424 454.611328125 615.87143462 454.611328125 651.959960938 c 0
 454.611328125 668.04296875 448.26953125 682.65625 437.952148438 693.434570312 c 0
 392.913085938 740.485351562 347.514648438 764.112304688 282.655273438 764.112304688 c 0
 176.112304688 764.112304688 51.3466796875 672.961914062 51.3466796875 559.853515625 c 0
 51.3466796875 381.374888928 268.13256378 360.159586075 341.1328125 282.59375 c 0
 356.299804688 266.478515625 368.116210938 245.87109375 368.116210938 211.461914062 c 0
 368.116210938 160.408734011 301.654279496 92.2693644965 234.714396892 92.2693644965 c 0
 194.493170152 92.2693644965 154.09938972 116.869576098 127.846679688 184.557617188 c 0
 119.150390625 206.978515625 97.361328125 222.892578125 71.8837890625 222.892578125 c 0
 37.4240782141 222.892578125 11.8412938379 194.5024196 11.8412938379 162.829485367 c 0
 11.8412938379 155.699719344 13.1376423339 148.403606247 15.9208984375 141.227539062 c 0
 62.6557708411 20.72663845 147.02157446 -26.8250055602 231.647454264 -26.8250055602 c 0
 359.58462652 -26.8250055602 488.116210938 81.8557471777 488.116210938 211.461914062 c 0
 488.116210938 425.594716727 243.598877024 447.821875621 184.364257812 521.498046875 c 0
 175.6953125 532.280273438 171.346679688 542.119140625 171.346679688 559.853515625 c 0
EndSplineSet
EndChar

StartChar: T
Encoding: 84 84 52
Width: 500
Flags: HW
LayerCount: 2
Fore
SplineSet
142.810546875 758.046875 m 0
 116.779296875 758.046875 93.8330078125 760.206054688 93.337890625 760.206054688 c 0
 60.22265625 760.206054688 33.337890625 733.321289062 33.337890625 700.206054688 c 0
 33.337890625 669.225585938 56.869140625 643.697265625 87.0185546875 640.53515625 c 0
 104.13664688 638.74009096 123.012810018 638.053935228 142.997535739 638.053935228 c 0
 159.510106326 638.053935228 176.779497968 638.522377076 194.439328579 639.220788969 c 1
 193.986676203 533.804516252 184.498046875 367.959395586 184.498046875 229.49609375 c 0
 184.498046875 151.733398438 186.885742188 82.626953125 197.590820312 30.103515625 c 0
 203.166992188 2.744140625 227.38671875 -17.869140625 256.3828125 -17.869140625 c 0
 290.158836077 -17.869140625 316.402003599 9.78152804011 316.402003599 42.069851009 c 0
 316.402003599 46.0433630669 316.004561062 50.0871105904 315.174804688 54.158203125 c 0
 307.93359375 89.6845703125 304.498046875 155.278320312 304.498046875 229.49609375 c 0
 304.498046875 352.628428963 314.35669554 552.698136157 314.467122824 644.683190961 c 1
 326.707736956 645.057004479 338.741060763 645.284179688 350.443359375 645.284179688 c 0
 386.513671875 645.284179688 415.7890625 642.141601562 416.450195312 642.141601562 c 0
 449.565429688 642.141601562 476.450195312 669.026367188 476.450195312 702.141601562 c 0
 476.450195312 732.958984375 453.166992188 758.380859375 423.247070312 761.759765625 c 0
 400.315245046 764.350174096 375.630697007 765.301092269 350.184914297 765.301092269 c 0
 279.903657352 765.301092269 203.815211254 758.046875 142.810546875 758.046875 c 0
EndSplineSet
EndChar

StartChar: U
Encoding: 85 85 53
Width: 500
Flags: HW
LayerCount: 2
Fore
SplineSet
375.020507812 442.662109375 m 0
 375.020507812 113.497226268 302.358725649 85.4004291254 259.329878977 85.4004291254 c 0
 258.859233119 85.4004291254 258.392132485 85.4037905694 257.928710938 85.41015625 c 0
 203.427273137 86.1589362669 127.94140625 117.522179785 127.94140625 442.313476562 c 0
 127.94140625 537.611328125 136.362304688 702.348632812 136.362304688 704.9765625 c 0
 136.362304688 738.091796875 109.477539062 764.9765625 76.3623046875 764.9765625 c 0
 44.12109375 764.9765625 17.78515625 739.491210938 16.41796875 707.583984375 c 0
 8.5693359375 524.380859375 7.94140625 509.723632812 7.94140625 442.313476562 c 0
 7.94140625 251.225585938 29.7431640625 82.7978515625 133.525390625 5.392578125 c 0
 167.788788915 -20.1627073599 212.631846518 -34.7279843813 258.013997798 -34.7279843813 c 0
 301.104853795 -34.7279843813 344.681741186 -21.5963484539 380.149414062 7.7275390625 c 0
 475.942738281 86.9283086919 495.024383213 258.540671577 495.024383213 440.859110647 c 0
 495.024383213 499.578462966 493.045058097 559.408348763 491.01171875 617.619140625 c 0
 489.90625 649.288085938 488.866210938 679.140625 488.3203125 706.086914062 c 0
 487.662109375 738.6328125 461.03515625 764.8515625 428.333007812 764.8515625 c 0
 395.217773438 764.8515625 368.333007812 737.966796875 368.333007812 704.8515625 c 0
 368.333007812 671.951171875 375.020507812 539.874023438 375.020507812 442.662109375 c 0
EndSplineSet
EndChar

StartChar: V
Encoding: 86 86 54
Width: 500
Flags: HW
LayerCount: 2
Fore
SplineSet
80.48046875 763.21875 m 0
 46.5545636804 763.21875 20.4558830051 735.401298715 20.4558830051 703.265718262 c 0
 20.4558830051 698.630521618 20.9988614421 693.905487059 22.1396484375 689.161132812 c 0
 79.2099609375 451.807617188 119.787109375 202.047851562 178.672851562 2.5205078125 c 0
 186.0078125 -22.3310546875 209.014648438 -40.4892578125 236.229492188 -40.4892578125 c 0
 262.934570312 -40.4892578125 285.587890625 -23.0048828125 293.357421875 1.130859375 c 0
 361.119140625 211.634765625 403.147460938 479.225585938 476.15625 687.384765625 c 0
 478.474067548 693.993192004 479.558963783 700.668194546 479.558963783 707.195122867 c 0
 479.558963783 738.964425256 453.855842092 767.225585938 419.51953125 767.225585938 c 0
 393.356445312 767.225585938 371.08203125 750.443359375 362.8828125 727.06640625 c 0
 327.827349675 627.117903099 327.827349675 627.117903099 238.547851562 257.012695312 c 1
 237.531100872 261.611066929 165.543848002 606.139604475 138.821289062 717.276367188 c 0
 132.487304688 743.619140625 108.754882812 763.21875 80.48046875 763.21875 c 0
EndSplineSet
EndChar

StartChar: W
Encoding: 87 87 55
Width: 500
Flags: HW
LayerCount: 2
Fore
SplineSet
331.181640625 -31.052734375 m 0
 358.54296875 -31.052734375 381.651367188 -12.6982421875 388.85546875 12.359375 c 0
 440.051757812 190.442382812 481.467773438 455.235351562 490.40625 701.047851562 c 0
 490.43334175 701.793088348 490.446772729 702.535496124 490.446772729 703.274841957 c 0
 490.446772729 736.328738634 463.602124023 763.262695312 430.446289062 763.262695312 c 0
 398.073242188 763.262695312 371.653320312 737.568359375 370.486328125 705.477539062 c 0
 366.369140625 592.252929688 354.731445312 473.319335938 338.474609375 362.00390625 c 1
 313.45703125 530.723632812 313.45703125 530.723632812 312.75 535.427734375 c 0
 308.411132812 564.290039062 283.482421875 586.448242188 253.418945312 586.448242188 c 0
 224.694335938 586.448242188 200.65625 566.21875 194.788085938 539.241210938 c 0
 179.436523438 468.668945312 167.241210938 406.990234375 155.60546875 347.081054688 c 1
 140.338867188 458.583007812 130.123046875 577.58203125 129.552734375 707.015625 c 0
 129.408203125 740.006835938 102.579101562 766.74609375 69.5537109375 766.74609375 c 0
 36.438511837 766.74609375 9.55409295379 739.860981292 9.55409295379 706.746332351 c 0
 9.55409295379 706.656454819 9.55429099822 706.566531398 9.5546875 706.4765625 c 0
 10.7314453125 439.102539062 51.3671875 214.764648438 92.7578125 15.8466796875 c 0
 98.4267578125 -11.3935546875 122.588867188 -31.88671875 151.500976562 -31.88671875 c 0
 180.05078125 -31.88671875 203.970703125 -11.90234375 210.022460938 14.828125 c 0
 223.658203125 75.0537109375 234.8671875 128.504882812 244.990234375 178.858398438 c 1
 253.446289062 125.607421875 262.334960938 72.4208984375 272.140625 18.2138671875 c 0
 277.206054688 -9.787109375 301.73046875 -31.052734375 331.181640625 -31.052734375 c 0
EndSplineSet
EndChar

StartChar: X
Encoding: 88 88 56
Width: 500
Flags: HW
LayerCount: 2
Fore
SplineSet
87.3564453125 763.506835938 m 0
 53.0915329203 763.506835938 27.3197094533 735.321115777 27.3197094533 703.493592954 c 0
 27.3197094533 697.304722068 28.2941656377 690.978151296 30.3701171875 684.694335938 c 0
 81.4732808142 530.002158264 130.996629745 441.537342654 177.199866763 367.967015263 c 1
 126.927338051 291.617053185 79.2508881889 204.664716235 32.45703125 46.05078125 c 0
 30.7759996536 40.3522630488 29.98280546 34.643388911 29.98280546 29.0536660111 c 0
 29.98280546 -2.88496877663 55.8787445509 -30.93359375 90.015625 -30.93359375 c 0
 117.232421875 -30.93359375 140.241210938 -12.7724609375 147.57421875 12.08203125 c 0
 179.575541226 120.555647705 211.352010363 192.288012387 248.199910274 254.90335974 c 1
 282.053256907 196.993665452 315.568419128 127.890876691 352.795898438 15.3310546875 c 0
 360.701171875 -8.5712890625 383.23828125 -25.837890625 409.776367188 -25.837890625 c 0
 444.042821205 -25.837890625 469.813594894 2.34921113831 469.813594894 34.1753815668 c 0
 469.813594894 40.3704423689 468.837145286 46.7033867757 466.756835938 52.9931640625 c 0
 416.124783972 206.083202427 366.702322951 293.216230267 320.401469231 366.614275784 c 1
 368.420694239 439.698950423 419.232751647 525.55704779 471.366210938 684.369140625 c 0
 473.417945016 690.619106427 474.381324348 696.909642699 474.381324348 703.06358088 c 0
 474.381324348 734.89695708 448.602893981 763.075195312 414.344726562 763.075195312 c 0
 387.759765625 763.075195312 365.190429688 745.748046875 357.323242188 721.78125 c 0
 319.607355164 606.888607198 284.491858544 535.89266343 250.055579404 478.849902318 c 1
 216.08122442 537.33488676 182.16248608 607.837423826 144.342773438 722.319335938 c 0
 136.443359375 746.231445312 113.901367188 763.506835938 87.3564453125 763.506835938 c 0
EndSplineSet
EndChar

StartChar: Y
Encoding: 89 89 57
Width: 500
Flags: HW
LayerCount: 2
Fore
SplineSet
199.177734375 100.40625 m 0
 199.177734375 52.21875 197.712890625 27.0888671875 197.712890625 26.3486328125 c 0
 197.712890625 -6.7666015625 224.59765625 -33.6513671875 257.712890625 -33.6513671875 c 0
 289.778320312 -33.6513671875 316.001953125 -8.4443359375 317.6328125 23.21875 c 0
 318.53055237 40.6565867442 318.875795949 67.4876382913 318.875795949 98.4740479791 c 0
 318.875795949 201.444605063 315.063301528 350.302416014 315.043775308 352.836134539 c 1
 364.281028864 442.907283155 402.759579307 539.68448888 431.765625 612.282226562 c 0
 442.8515625 640.028320312 452.53515625 664.215820312 460.428710938 682.321289062 c 0
 463.857476343 690.186131961 465.445102738 698.260610272 465.445102738 706.146630087 c 0
 465.445102738 737.710297454 440.011522551 766.254882812 405.399414062 766.254882812 c 0
 380.790039062 766.254882812 359.62109375 751.407226562 350.370117188 730.188476562 c 0
 328.551757812 680.142578125 294.979492188 588.837890625 255.006835938 501.487304688 c 1
 212.520507812 584.143554688 169.705078125 669.352539062 154.923828125 718.7265625 c 0
 147.518554688 743.46484375 124.567382812 761.514648438 97.43359375 761.514648438 c 0
 63.2814703792 761.514648438 37.4005379976 733.448811052 37.4005379976 701.525071585 c 0
 37.4005379976 695.860674758 38.2153543649 690.074818561 39.943359375 684.302734375 c 0
 60.6005859375 615.299804688 105.799804688 529.234375 148.870117188 445.461914062 c 0
 165.112394035 413.870215671 181.023514395 382.908686395 195.031856413 354.351695812 c 1
 195.049708255 351.811965691 199.177734375 145.369802103 199.177734375 100.40625 c 0
EndSplineSet
EndChar

StartChar: Z
Encoding: 90 90 58
Width: 500
Flags: HW
LayerCount: 2
Fore
SplineSet
80.45703125 -26.392578125 m 0
 151.579033451 -26.392578125 228.626273697 -16.4759970297 308.427413916 -16.4759970297 c 0
 342.141036229 -16.4759970297 376.3461781 -18.2459209909 410.803710938 -23.28125 c 0
 413.768416372 -23.714529155 416.707701849 -23.9243201682 419.605915107 -23.9243201682 c 0
 452.164737615 -23.9243201682 479.540039062 2.55236328457 479.540039062 36.0859375 c 0
 479.540039062 66.2333984375 457.256835938 91.21875 428.276367188 95.453125 c 0
 387.499546867 101.412178985 349.359474581 103.565535 310.87977618 103.565535 c 0
 269.714618193 103.565535 228.160775608 101.101129939 182.57421875 98.1953125 c 1
 262.19140625 250.270507812 335.639648438 398.836914062 399.626953125 528.25390625 c 0
 425.704101562 580.998046875 450.206054688 630.551757812 472.879882812 675.811523438 c 0
 477.244122503 684.522721658 479.24954171 693.59789453 479.24954171 702.456372779 c 0
 479.24954171 733.907979273 453.969802439 762.62799551 419.227146557 762.62799551 c 0
 418.964145498 762.62799551 418.700602171 762.626349723 418.436523438 762.623046875 c 0
 318.120117188 761.369140625 180.609375 755.275390625 94.78515625 754.723632812 c 0
 61.8515625 754.51171875 35.1787109375 727.708007812 35.1787109375 694.724609375 c 0
 35.1787109375 661.607574111 62.0661417259 634.724322484 95.1789894835 634.724322484 c 0
 95.3099845288 634.724322484 95.4410770024 634.724743209 95.572265625 634.725585938 c 0
 126.587890625 634.92578125 126.587890625 634.92578125 321.228515625 640.43359375 c 1
 180.934570312 357.177734375 120.821289062 235.807617188 27.5458984375 61.9052734375 c 0
 22.6516419687 52.7805559631 20.4094019648 43.1834130397 20.4094019648 33.8135910207 c 0
 20.4094019648 2.43585991018 45.5550300375 -26.392578125 80.45703125 -26.392578125 c 0
EndSplineSet
EndChar

StartChar: bracketleft
Encoding: 91 91 59
Width: 500
Flags: HW
LayerCount: 2
Fore
SplineSet
369.887695312 77.3359375 m 0
 354.691608833 77.3359375 353.988770943 75.1774872012 312.635706977 75.1774872012 c 0
 296.591728191 75.1774872012 274.428872211 75.5023880341 242.926757812 76.404296875 c 0
 230.231445312 76.767578125 217.602539062 77.1328125 205.067382812 77.3486328125 c 1
 202.923828125 202.240234375 190.220703125 387.642578125 190.220703125 511.823242188 c 0
 190.220703125 559.514648438 191.635742188 606.712890625 195.274414062 653.705078125 c 1
 245.650997 656.938307843 296.801168673 658.253270156 334.909062909 658.253270156 c 0
 346.179422161 658.253270156 356.309008891 658.13825398 364.940429688 657.923828125 c 0
 405.16015625 657.923828125 426.455078125 689.734375 426.455078125 717.905273438 c 0
 426.455078125 750.513671875 400.385742188 777.08203125 367.969726562 777.88671875 c 0
 358.568727299 778.120049884 347.239192313 778.255429721 334.401008156 778.255429721 c 0
 283.029755959 778.255429721 207.502707382 776.08779006 134.721679688 769.354492188 c 0
 106.462890625 766.739257812 83.857421875 744.493164062 80.6884765625 716.397460938 c 0
 72.739877205 645.921777262 69.9474224955 579.520611093 69.9474224955 513.848438379 c 0
 69.9474224955 358.678705675 85.537109375 207.578789983 85.537109375 16.41796875 c 0
 85.537109375 -16.697265625 112.421875 -43.58203125 145.537109375 -43.58203125 c 0
 145.923828125 -43.58203125 163.619140625 -42.458984375 184.220703125 -42.458984375 c 0
 220.836972303 -42.458984375 262.496775555 -44.8118782195 306.786082225 -44.8118782195 c 0
 328.795382057 -44.8118782195 351.454046222 -44.2308235121 374.465820312 -42.4912109375 c 0
 405.4453125 -40.1494140625 429.887695312 -14.2392578125 429.887695312 17.3359375 c 0
 429.887695312 50.451171875 403.002929688 77.3359375 369.887695312 77.3359375 c 0
EndSplineSet
EndChar

StartChar: backslash
Encoding: 92 92 60
Width: 500
Flags: HW
LayerCount: 2
Fore
SplineSet
139.264648438 746.509765625 m 0
 104.618101169 746.509765625 79.218418218 717.931026531 79.218418218 686.39139867 c 0
 79.218418218 678.33098784 80.8773537985 670.077191772 84.46484375 662.057617188 c 0
 188.564453125 429.349609375 227.728515625 209.9765625 305.03125 17.4521484375 c 0
 313.89453125 -4.623046875 335.506835938 -20.2265625 360.735351562 -20.2265625 c 0
 395.23932749 -20.2265625 420.778893623 8.20832926342 420.778893623 39.8489669023 c 0
 420.778893623 47.1966587972 419.401605079 54.7172290037 416.439453125 62.0947265625 c 0
 342.890625 245.270507812 301.786132812 470.157226562 194.064453125 710.961914062 c 0
 184.696289062 731.903320312 163.672851562 746.509765625 139.264648438 746.509765625 c 0
EndSplineSet
EndChar

StartChar: bracketright
Encoding: 93 93 61
Width: 500
Flags: HW
LayerCount: 2
Fore
SplineSet
316.151367188 72.2802734375 m 1
 119.060760935 79.306640625 119.060760935 79.306640625 117.576171875 79.306640625 c 0
 84.4609375 79.306640625 57.576171875 52.421875 57.576171875 19.306640625 c 0
 57.576171875 -13.3994140625 83.8017578125 -40.029296875 116.353515625 -40.6806640625 c 0
 193.592773438 -42.228515625 332.379882812 -49.2255859375 370.678710938 -49.2255859375 c 0
 401.573242188 -49.2255859375 427.045898438 -25.82421875 430.322265625 4.205078125 c 0
 439.501953125 88.3359375 442.309570312 168.29296875 442.309570312 245.608398438 c 0
 442.309570312 370.840820312 434.954101562 490.016601562 434.954101562 611.502929688 c 0
 434.954101562 672.184570312 437.049804688 715.65234375 437.049804688 716.704101562 c 0
 437.049804688 748.02734375 412.994140625 773.77734375 382.365234375 776.471679688 c 0
 358.27391314 778.590582614 336.681526998 779.355209261 316.793666531 779.355209261 c 0
 265.214602482 779.355209261 225.100545662 774.212165557 182.593495872 774.212165557 c 0
 165.567336524 774.212165557 148.157246439 775.037313222 129.47265625 777.348632812 c 0
 126.952045127 777.66043341 124.452822162 777.812087892 121.984421524 777.812087892 c 0
 89.3151782066 777.812087892 62.044921875 751.247560068 62.044921875 717.8046875 c 0
 62.044921875 687.205078125 85.0009765625 661.924804688 114.6171875 658.260742188 c 0
 139.342986693 655.202188885 161.297528386 654.147867344 181.963523574 654.147867344 c 0
 227.400554459 654.147867344 266.608743008 659.244464651 315.346679688 659.341796875 c 1
 315.073754654 643.221665133 314.952796262 627.210000313 314.952796262 611.287312213 c 0
 314.952796262 487.063426158 322.315095213 368.255230715 322.315095213 245.60759747 c 0
 322.315095213 188.955066617 320.744248758 131.483339572 316.151367188 72.2802734375 c 1
EndSplineSet
EndChar

StartChar: asciicircum
Encoding: 94 94 62
Width: 500
Flags: HW
LayerCount: 2
Fore
SplineSet
94.1787109375 567.50390625 m 0
 90.4676442594 559.367160868 88.7532746409 550.976417366 88.7532746409 542.782790833 c 0
 88.7532746409 511.260273379 114.127565847 482.655273438 148.799804688 482.655273438 c 0
 173.053710938 482.655273438 193.965820312 497.078125 203.420898438 517.806640625 c 0
 214.484375 542.064453125 230.65234375 570.084960938 248.682617188 599.047851562 c 1
 265.551757812 567.162109375 282.8671875 535.083984375 300.672851562 507.349609375 c 0
 311.345703125 490.725585938 329.99609375 479.702148438 351.200195312 479.702148438 c 0
 386.380930331 479.702148438 411.244328182 508.78730052 411.244328182 540.01327223 c 0
 411.244328182 550.8090092 408.272435346 561.860635835 401.727539062 572.0546875 c 0
 373.893554688 615.408203125 333.724609375 697.375976562 305.504882812 746.455078125 c 0
 294.026417024 766.417583516 273.73574685 776.546303954 253.403583309 776.546303954 c 0
 234.321899847 776.546303954 215.203669964 767.625155419 203.298828125 749.5390625 c 0
 144.844726562 660.734375 118.325195312 620.444335938 94.1787109375 567.50390625 c 0
EndSplineSet
EndChar

StartChar: underscore
Encoding: 95 95 63
Width: 500
Flags: HW
LayerCount: 2
Fore
SplineSet
248.474609375 -54.0302734375 m 0
 364.563476562 -54.0302734375 414.82421875 -59.5107421875 422.993164062 -59.5107421875 c 0
 456.108398438 -59.5107421875 482.993164062 -32.6259765625 482.993164062 0.4892578125 c 0
 482.993164062 32.0859375 458.515625 58.01171875 427.504882812 60.322265625 c 0
 370.91457466 64.5377849518 315.791978672 65.9741332004 255.954494366 65.9741332004 c 0
 201.375981559 65.9741332004 142.874921788 64.7791646072 75.759765625 63.408203125 c 0
 43.2197265625 62.7431640625 17.0068359375 36.119140625 17.0068359375 3.4208984375 c 0
 17.0068359375 -29.6943359375 43.8916015625 -56.5791015625 77.0068359375 -56.5791015625 c 0
 86.375 -56.5791015625 171.3984375 -54.0302734375 248.474609375 -54.0302734375 c 0
EndSplineSet
EndChar

StartChar: grave
Encoding: 96 96 64
Width: 500
Flags: HW
LayerCount: 2
Fore
SplineSet
302.07421875 526.87109375 m 0
 308.893490681 524.386998912 315.79728754 523.226407059 322.546212932 523.226407059 c 0
 354.278991048 523.226407059 382.587890625 548.884622845 382.587890625 583.266601562 c 0
 382.587890625 609.177734375 366.126953125 631.275390625 343.1015625 639.662109375 c 0
 317.561523438 648.965820312 280.493164062 668.220703125 225.938476562 743.104492188 c 0
 215.024414062 758.084960938 197.34765625 767.828125 177.412109375 767.828125 c 0
 142.017090257 767.828125 117.375986252 738.558043387 117.375986252 707.43347715 c 0
 117.375986252 695.569567784 120.956201905 683.436212094 128.885742188 672.551757812 c 0
 187.107421875 592.635742188 240.750976562 549.208984375 302.07421875 526.87109375 c 0
EndSplineSet
EndChar

StartChar: a
Encoding: 97 97 65
Width: 500
Flags: HW
LayerCount: 2
Fore
SplineSet
48.8974609375 112.522460938 m 0
 48.8974609375 37.017578125 100.09375 -39.4072265625 222.137695312 -39.4072265625 c 0
 304.653581374 -39.4072265625 360.746586002 -12.4719168917 409.452148438 10.916015625 c 0
 430.321289062 18.859375 445.627929688 38.12109375 447.856445312 61.1826171875 c 0
 449.59562447 79.1811386891 450.761995413 102.225992107 450.761995413 127.94499975 c 0
 450.761995413 190.896317029 443.774236359 269.868562732 421.094726562 330.076171875 c 0
 398.999023438 388.734375 348.06640625 453.65234375 265.086914062 453.65234375 c 0
 209.111328125 453.65234375 156.045898438 423.469726562 106.2890625 371.34765625 c 0
 94.8202996505 359.333716278 89.689430768 344.795445902 89.689430768 330.524836181 c 0
 89.689430768 299.600776908 113.782873027 269.93359375 149.6875 269.93359375 c 0
 166.749023438 269.93359375 182.157226562 277.0703125 193.0859375 288.51953125 c 0
 230.3203125 327.5234375 255.205078125 333.65234375 265.086914062 333.65234375 c 0
 273.331054688 333.65234375 297.879882812 328.529296875 314.194335938 271.141601562 c 1
 290.482386137 279.213501823 265.857644297 283.076512719 241.592031535 283.076512719 c 0
 142.234222451 283.076512719 48.8974609375 218.310461272 48.8974609375 112.522460938 c 0
222.137695312 80.5927734375 m 0
 169.974860418 80.5927734375 168.897460938 100.992277359 168.897460938 112.522460938 c 0
 168.897460938 154.176757812 219.8203125 162.943359375 241.353515625 162.943359375 c 0
 256.337890625 162.943359375 311.934570312 159.157226562 325.373046875 103.895507812 c 1
 298.569335938 92.2109375 263.711914062 80.5927734375 222.137695312 80.5927734375 c 0
EndSplineSet
EndChar

StartChar: b
Encoding: 98 98 66
Width: 500
Flags: HW
LayerCount: 2
Fore
SplineSet
159.452148438 424.322265625 m 1
 156.660517562 584.778727785 155.774936357 635.6798796 155.774936357 667.374946734 c 0
 155.774936357 682.10098255 155.966105038 692.681038467 156.24609375 708.176757812 c 0
 156.24609375 746.270507812 126.013671875 769.279296875 96.255859375 769.279296875 c 0
 63.509765625 769.279296875 36.8544921875 742.989257812 36.265625 710.381835938 c 0
 35.8751258044 688.768227624 35.7105203461 667.84566413 35.7105203461 647.382995629 c 0
 35.7105203461 537.46746261 40.4599103686 440.821360118 40.4599103686 321.619871574 c 0
 40.4599103686 240.97169051 38.2858898855 149.998842269 30.99609375 37.6064453125 c 0
 30.9099207056 36.2774124061 30.8674711994 34.9563226062 30.8674711994 33.6445198341 c 0
 30.8674711994 3.84156803714 52.7780633235 -21.1678232057 81.6591796875 -25.6240234375 c 0
 114.946289062 -30.7607421875 145.7734375 -33.23828125 174.508789062 -33.23828125 c 0
 380.252929688 -33.23828125 469.130859375 96.98828125 469.130859375 249.849609375 c 0
 469.130859375 378.060546875 395.946289062 463.620117188 289.869140625 463.620117188 c 0
 245.682617188 463.620117188 199.623046875 454.8359375 159.452148438 424.322265625 c 1
156.174804688 87.189453125 m 1
 184.17437095 341.347720578 240.271382781 343.620117188 289.869140625 343.620117188 c 0
 332.766239629 343.620117188 349.409176153 299.567713887 349.409176153 251.190874443 c 0
 349.409176153 214.070531946 339.610240114 174.404071875 324.354492188 150.139648438 c 0
 312.654592527 131.528778635 280.456931255 86.7605463885 174.563992332 86.7605463885 c 0
 168.66595087 86.7605463885 162.539285682 86.8994301866 156.174804688 87.189453125 c 1
EndSplineSet
EndChar

StartChar: c
Encoding: 99 99 67
Width: 500
Flags: HW
LayerCount: 2
Fore
SplineSet
275.045898438 335.608398438 m 0
 356.356504525 335.608398438 348.046702639 270.89453125 404.762695312 270.89453125 c 0
 440.257563009 270.89453125 464.793290247 300.247603484 464.793290247 331.328504011 c 0
 464.793290247 343.679249387 460.918947085 356.302829542 452.318359375 367.465820312 c 0
 417.776367188 412.299804688 361.922851562 455.608398438 275.045898438 455.608398438 c 0
 143.760742188 455.608398438 35.2373046875 320.553710938 35.2373046875 162.071289062 c 0
 35.2373046875 51.64453125 114.803710938 -33.275390625 253.360351562 -33.275390625 c 0
 287.358398438 -33.275390625 394.475585938 -31.0380859375 453.640625 72.9658203125 c 0
 459.034613759 82.4473792554 461.498441285 92.5082590051 461.498441285 102.331555241 c 0
 461.498441285 133.658564534 436.441174754 162.569335938 401.451171875 162.569335938 c 0
 379.098632812 162.569335938 359.583984375 150.319335938 349.26171875 132.172851562 c 0
 338.293945312 112.89453125 319.016601562 86.724609375 253.360351562 86.724609375 c 0
 205.87109375 86.724609375 155.237304688 101.036132812 155.237304688 162.071289062 c 0
 155.237304688 256.008789062 214.853515625 335.608398438 275.045898438 335.608398438 c 0
EndSplineSet
EndChar

StartChar: d
Encoding: 100 100 68
Width: 500
Flags: HW
LayerCount: 2
Fore
SplineSet
356.809570312 458.740234375 m 1
 328.330292571 471.960519763 298.064077023 478.308587373 267.824676915 478.308587373 c 0
 144.798324301 478.308587373 22.2158203125 373.235498879 22.2158203125 198.385742188 c 0
 22.2158203125 24.6715495066 131.09814413 -27.53729463 224.583789512 -27.53729463 c 0
 254.685992171 -27.53729463 283.1918242 -22.1241358294 305.952148438 -13.611328125 c 0
 393.429848383 19.1047249809 477.784179688 114.434943396 477.784179688 360.5 c 0
 477.784179688 489.58203125 474.670898438 600.12890625 453.057617188 714.870117188 c 0
 447.822265625 742.662109375 423.397460938 763.713867188 394.094726562 763.713867188 c 0
 360.382815753 763.713867188 334.077932312 736.135614963 334.077932312 703.778172354 c 0
 334.077932312 700.088852399 334.419896514 696.337402838 335.131835938 692.557617188 c 0
 349.2578125 617.564453125 354.830078125 543.038085938 356.809570312 458.740234375 c 1
226.944335938 92.546875 m 0
 188.400682618 92.546875 142.215820312 100.129946558 142.215820312 198.385742188 c 0
 142.215820312 294.204101562 198.958984375 358.147460938 268.270507812 358.147460938 c 0
 286.19140625 358.147460938 321.861328125 355.303710938 355.893554688 303.248046875 c 1
 347.731379182 185.884471175 313.904020875 92.546875 226.944335938 92.546875 c 0
EndSplineSet
EndChar

StartChar: e
Encoding: 101 101 69
Width: 500
Flags: HW
LayerCount: 2
Fore
SplineSet
41.5263671875 192.0625 m 0
 41.5263671875 26.1728515625 159.271484375 -34.7001953125 254.27734375 -34.7001953125 c 0
 333.825195312 -34.7001953125 411.115234375 9.515625 454.888671875 82.091796875 c 0
 460.818230857 91.922833095 463.518848057 102.457168224 463.518848057 112.744469446 c 0
 463.518848057 144.022357775 438.553652878 173.016601562 403.47265625 173.016601562 c 0
 381.666992188 173.016601562 362.561523438 161.358398438 352.056640625 143.94140625 c 0
 329.65234375 106.796875 288.860351562 85.2998046875 254.27734375 85.2998046875 c 0
 234.372754726 85.2998046875 181.126574276 91.0016822332 166.139648438 150.366210938 c 1
 182.000975513 146.670505832 197.761633704 144.933520813 213.208646108 144.933520813 c 0
 323.965502361 144.933520813 418.59765625 234.232875892 418.59765625 331.095703125 c 0
 418.59765625 406.813476562 360.114257812 457.637695312 289.168945312 457.637695312 c 0
 137.116210938 457.637695312 41.5263671875 308.58984375 41.5263671875 192.0625 c 0
185.053710938 269.423828125 m 1
 218.254555899 326.142064108 263.059688295 337.603112078 285.255915669 337.603112078 c 0
 291.767909968 337.603112078 296.333875649 336.616619042 298.08984375 335.497070312 c 0
 298.263671875 335.008789062 298.59765625 333.735351562 298.59765625 331.095703125 c 0
 298.59765625 304.633116126 260.703667765 264.920528872 212.780621268 264.920528872 c 0
 203.827778076 264.920528872 194.52491456 266.306522715 185.053710938 269.423828125 c 1
EndSplineSet
EndChar

StartChar: f
Encoding: 102 102 70
Width: 500
Flags: HW
LayerCount: 2
Fore
SplineSet
102.502929688 89.888671875 m 0
 102.502929688 49.2958984375 101.412109375 30.798828125 101.412109375 27.0693359375 c 0
 101.412109375 -6.0458984375 128.296875 -32.9306640625 161.412109375 -32.9306640625 c 0
 193.71875 -32.9306640625 220.095703125 -7.3427734375 221.364257812 24.654296875 c 0
 222.121693363 43.7535793265 222.424469673 64.5664523835 222.424469673 86.6359519299 c 0
 222.424469673 150.512578588 219.888051435 224.916218892 218.49783941 298.767107541 c 1
 243.216142312 299.700737219 287.553700522 300.590980076 287.716088523 300.590980076 c 0
 287.716386598 300.590980076 287.716535832 300.590977077 287.716535832 300.590971073 c 0
 287.716535832 300.590951808 287.714999586 300.590901613 287.711914062 300.590820312 c 1
 298.53125 300.590820312 309.034179688 300.094726562 309.25 300.094726562 c 0
 342.365234375 300.094726562 369.25 326.979492188 369.25 360.094726562 c 0
 369.25 392.05078125 344.213867188 418.205078125 312.703125 419.997070312 c 0
 305.647593947 420.398187715 297.311160015 420.564775972 288.089984497 420.564775972 c 0
 267.601029624 420.564775972 242.744066246 419.742322347 217.864922972 418.842716219 c 1
 218.590969185 469.470545825 223.548890598 623.289773138 256.8984375 648.897460938 c 1
 257.876196638 649.079184798 258.875250808 649.169573899 259.893724521 649.169573899 c 0
 283.213212669 649.169573899 316.713394292 601.783094063 337.881835938 518.361328125 c 0
 344.473632812 492.385742188 368.029296875 473.14453125 396.043945312 473.14453125 c 0
 430.022660868 473.14453125 456.070878888 501.021253233 456.070878888 533.105545095 c 0
 456.070878888 537.976894984 455.470408286 542.945238917 454.206054688 547.927734375 c 0
 410.515691755 720.10251235 328.510751087 768.826169086 262.037458398 768.826169086 c 0
 227.616886407 768.826169086 197.360780423 755.762004063 178.745117188 740.008789062 c 0
 118.655107786 689.160080936 99.7347336815 582.803629406 97.6524336924 417.126255219 c 1
 67.9969099347 413.4996487 44.998046875 388.200918047 44.998046875 357.572265625 c 1
 44.998046875 326.672431657 68.407325025 301.196803315 98.4432720369 297.927048526 c 1
 99.9136482049 225.144720282 102.502929687 152.769513117 102.502929688 89.888671875 c 0
EndSplineSet
EndChar

StartChar: g
Encoding: 103 103 71
Width: 500
Flags: HW
LayerCount: 2
Fore
SplineSet
274.614257812 -200.751953125 m 0
 335.826048016 -200.751953125 462.088867188 -172.263056235 462.088867188 62.8017578125 c 0
 462.088867188 65.7470703125 459.708984375 261.50390625 441.990234375 356.637695312 c 0
 435.244633257 392.849007979 363.355863852 459.672851562 268.354492188 459.672851562 c 0
 160.274414062 459.672851562 43.9462890625 336.377929688 43.9462890625 200.879882812 c 0
 43.9462890625 97.841796875 114.200195312 9.59375 223.69140625 9.59375 c 0
 251.51953125 9.59375 297.829101562 18.15234375 342.084960938 65.259765625 c 1
 342.084960938 40.2451171875 340.795898438 -55.19921875 300.115234375 -75.59375 c 0
 292.412102266 -79.4555928227 282.690975498 -81.1677532095 271.957667942 -81.1677532095 c 0
 225.22708527 -81.1677532095 159.310109671 -48.7128970076 157.21484375 -19.9111328125 c 0
 154.954101562 11.1474609375 129.006835938 35.677734375 97.375 35.677734375 c 0
 64.1227904926 35.677734375 37.3730690813 8.6289229459 37.3730690813 -24.2870052599 c 0
 37.3730690813 -25.7580482827 37.4264957136 -27.2408095693 37.53515625 -28.7333984375 c 0
 44.4033203125 -123.063476562 152.495117188 -200.751953125 274.614257812 -200.751953125 c 0
163.946289062 200.879882812 m 0
 163.946289062 271.445888223 230.466078384 339.672851562 268.354492188 339.672851562 c 0
 289.182617188 339.672851562 305.805664062 333.4140625 319.778320312 323.08984375 c 1
 300.638671875 190.213867188 252.70703125 129.59375 223.69140625 129.59375 c 0
 166.364257812 129.59375 163.946289062 190.588867188 163.946289062 200.879882812 c 0
EndSplineSet
EndChar

StartChar: h
Encoding: 104 104 72
Width: 500
Flags: HW
LayerCount: 2
Fore
SplineSet
294 345.805664062 m 0
 308.827863328 345.805664062 343.3203125 298.01382321 343.3203125 114.751953125 c 0
 343.3203125 87.3876953125 341.868164062 29.2412109375 341.868164062 28.376953125 c 0
 341.868164062 -4.73828125 368.752929688 -31.623046875 401.868164062 -31.623046875 c 0
 434.747070312 -31.623046875 461.485351562 -5.119140625 461.864257812 27.6708984375 c 0
 461.874023438 28.5419921875 463.3203125 84.5673828125 463.3203125 114.751953125 c 0
 463.3203125 196.742139786 463.3203125 465.805664062 294 465.805664062 c 0
 258.140625 465.805664062 206.872070312 456.70703125 160.155273438 415.0078125 c 1
 159.375 541.412109375 157.965820312 659.640625 156.588867188 707.578125 c 0
 155.661132812 739.883789062 129.143554688 765.826171875 96.6142578125 765.826171875 c 0
 63.4990234375 765.826171875 36.6142578125 738.94140625 36.6142578125 705.826171875 c 0
 36.6142578125 701.064453125 40.7705078125 526.3359375 40.7705078125 229.684570312 c 0
 40.7705078125 66.150390625 38.8515625 29.4794921875 38.8515625 27.45703125 c 0
 38.8515625 -5.658203125 65.736328125 -32.54296875 98.8515625 -32.54296875 c 0
 131.201171875 -32.54296875 157.606445312 -6.8857421875 158.80859375 25.1728515625 c 0
 161.386882627 93.8963962446 172.656265718 345.805664062 294 345.805664062 c 0
EndSplineSet
EndChar

StartChar: i
Encoding: 105 105 73
Width: 500
Flags: HW
LayerCount: 2
Fore
SplineSet
318.043945312 574.149414062 m 0
 318.043945312 619.103647904 278.803690438 658.141601562 234.0234375 658.141601562 c 0
 187.567335121 658.141601562 153.894850536 619.618668009 153.894850536 577.83693871 c 0
 153.894850536 554.654210321 164.261333418 530.468222126 188.5625 511.302734375 c 0
 203.594284204 499.447550289 220.701320539 494.111951431 237.443237154 494.111951431 c 0
 278.860880733 494.111951431 318.043945312 526.766493271 318.043945312 574.149414062 c 0
230.032226562 200.4765625 m 0
 230.032226562 291.631835938 251.790039062 388.551757812 251.790039062 402.264648438 c 0
 251.790039062 435.379882812 224.905273438 462.264648438 191.790039062 462.264648438 c 0
 162.352539062 462.264648438 137.837890625 441.018554688 132.755859375 413.037109375 c 0
 116.360577692 322.750983784 109.97282326 253.624871766 109.97282326 199.866892114 c 0
 109.97282326 122.937609687 123.053966396 77.4799095422 138.608398438 46.5205078125 c 0
 168.063986902 -12.1081269267 219.725388963 -37.5848301232 272.56060579 -37.5848301232 c 0
 311.033684026 -37.5848301232 350.129157773 -24.0762373164 381.7265625 -0.0224609375 c 0
 439.692382812 44.10546875 452.924804688 103.037109375 452.924804688 120.522460938 c 0
 452.924804688 153.637695312 426.040039062 180.522460938 392.924804688 180.522460938 c 0
 363.850585938 180.522460938 339.578125 159.797851562 334.087890625 132.327148438 c 0
 330.45703125 114.16015625 307.33984375 82.603515625 272.698242188 82.603515625 c 0
 258.018554688 82.603515625 252.356445312 87.4384765625 245.90625 100.276367188 c 0
 238.008789062 115.995117188 230.032226562 148.678710938 230.032226562 200.4765625 c 0
EndSplineSet
EndChar

StartChar: j
Encoding: 106 106 74
Width: 500
Flags: HW
LayerCount: 2
Fore
SplineSet
376.911132812 562.22265625 m 0
 376.911132812 606.783205557 338.392568506 645.854492188 293.356445312 645.854492188 c 0
 246.646806034 645.854492188 213.295243527 607.258874316 213.295243527 565.549455179 c 0
 213.295243527 542.712643727 223.293374791 518.942376945 246.571289062 500.0625 c 0
 261.772914474 487.732942303 279.211291628 482.189591785 296.283654343 482.189591785 c 0
 337.673012276 482.189591785 376.911132812 514.770445599 376.911132812 562.22265625 c 0
289.426757812 134.565429688 m 0
 289.426757812 60.1574577999 279.798292345 -76.6416015625 208.991210938 -76.6416015625 c 0
 190.173517753 -76.6416015625 140.265812101 -76.6416015625 119.436523438 41.4482421875 c 0
 114.475585938 69.576171875 89.8916015625 90.97265625 60.349609375 90.97265625 c 0
 26.6885702934 90.97265625 0.334736108333 63.4516935835 0.334736108333 31.0387995402 c 0
 0.334736108333 27.5716324009 0.636285006412 24.0484902371 1.2626953125 20.4970703125 c 0
 30.2983136453 -144.119245947 122.682777294 -196.747138836 204.256459201 -196.747138836 c 0
 246.453119735 -196.747138836 285.757015408 -182.664889936 311.903320312 -162.716796875 c 0
 374.514666792 -114.947602157 409.469507039 -21.3027460297 409.469507039 134.61390285 c 0
 409.469507039 208.165619051 401.69079026 295.575062414 385.3671875 398.563476562 c 0
 380.829101562 427.194335938 356.0078125 449.112304688 326.108398438 449.112304688 c 0
 292.993164062 449.112304688 266.108398438 422.227539062 266.108398438 389.112304688 c 0
 266.108398438 375.961914062 289.426757812 255.329101562 289.426757812 134.565429688 c 0
EndSplineSet
EndChar

StartChar: k
Encoding: 107 107 75
Width: 500
Flags: HW
LayerCount: 2
Fore
SplineSet
418.385742188 374.874023438 m 0
 429.385967505 386.783365816 434.311321092 401.025345566 434.311321092 414.996723434 c 0
 434.311321092 445.943943369 410.145463103 475.563476562 374.306640625 475.563476562 c 0
 346.424746716 475.563476562 338.577180012 466.549037465 296.779296875 418.536132812 c 0
 262.1469984 378.750980786 222.512158856 333.411125222 170.686553018 290.75000585 c 1
 173.871851249 384.294437713 179.436442355 478.11404381 179.436442355 574.183502288 c 0
 179.436442355 619.148561147 178.217416535 664.606491465 174.96484375 710.759765625 c 0
 172.771484375 741.884765625 146.793945312 766.48828125 115.115234375 766.48828125 c 0
 82 766.48828125 55.115234375 739.603515625 55.115234375 706.48828125 c 0
 55.115234375 705.165039062 59.43359375 650.34765625 59.43359375 574.216796875 c 0
 59.43359375 442.261210956 48.5019726378 312.52649136 48.5019726378 178.277172096 c 0
 48.5019726378 130.258024047 49.9005589948 81.6612802843 53.6982421875 32.1787109375 c 0
 56.0732421875 1.2314453125 81.96875 -23.1748046875 113.520507812 -23.1748046875 c 0
 146.635742188 -23.1748046875 173.520507812 3.7099609375 173.520507812 36.8251953125 c 0
 173.520507812 37.9641211654 170.277614284 75.963599391 169.012058068 133.335449316 c 1
 186.236371146 138.460395663 207.744810629 140.783286334 208.774470406 140.783286334 c 0
 208.799973802 140.783286334 208.812913641 140.78186126 208.812913641 140.779018394 c 0
 208.812913641 140.775179771 208.789321521 140.768756207 208.741210938 140.759765625 c 1
 230.645507812 140.759765625 243.6171875 130.932617188 299.430664062 60.4189453125 c 0
 314.828125 40.9677734375 332.721679688 18.349609375 354.106445312 -6.7392578125 c 0
 366.5184464 -21.3021259144 382.898081326 -27.7974988489 399.04631722 -27.7974988489 c 0
 429.836368631 -27.7974988489 459.78515625 -4.18321661632 459.78515625 32.1474609375 c 0
 459.78515625 46.9775390625 454.392578125 60.55859375 445.463867188 71.0341796875 c 0
 425.743164062 94.171875 408.958007812 115.366210938 393.569335938 134.80859375 c 0
 363.075195312 173.333984375 333.139648438 213.806640625 292.146484375 238.163085938 c 1
 350.020507812 293.008789062 376.14453125 329.141601562 418.385742188 374.874023438 c 0
EndSplineSet
EndChar

StartChar: l
Encoding: 108 108 76
Width: 500
Flags: HW
LayerCount: 2
Fore
SplineSet
97.66796875 229.112304688 m 0
 97.66796875 146.208715233 97.66796875 -37.4228515625 234.0859375 -37.4228515625 c 0
 343.087890625 -37.4228515625 461.407226562 61.923828125 476.680664062 160.913085938 c 0
 477.16257654 164.036927921 477.395544988 167.134244732 477.395544988 170.186587914 c 0
 477.395544988 202.706270701 450.951798469 230.12109375 417.383789062 230.12109375 c 0
 387.399414062 230.12109375 362.5234375 208.079101562 358.086914062 179.329101562 c 0
 352.448242188 142.782226562 288.46484375 84.1435546875 235.833007812 82.603515625 c 1
 227.274414062 95.9375 217.66796875 133.73828125 217.66796875 229.112304688 c 0
 217.66796875 352.860351562 265.939453125 562.216796875 265.939453125 716.5859375 c 0
 265.939453125 749.701171875 239.0546875 776.5859375 205.939453125 776.5859375 c 0
 172.82421875 776.5859375 145.939453125 749.701171875 145.939453125 716.5859375 c 0
 145.939453125 574.37890625 97.66796875 366.802734375 97.66796875 229.112304688 c 0
EndSplineSet
EndChar

StartChar: m
Encoding: 109 109 77
Width: 500
Flags: HW
LayerCount: 2
Fore
SplineSet
34.2353515625 278.434570312 m 0
 34.2353515625 187.299804688 30.171875 66.5185546875 30.171875 30.95703125 c 0
 30.171875 -2.158203125 57.056640625 -29.04296875 90.171875 -29.04296875 c 0
 119.13671875 -29.04296875 143.3359375 -8.4736328125 148.946289062 18.841796875 c 0
 156.315429688 54.7216796875 161.134765625 96.2314453125 166.221679688 138.90625 c 0
 172.565429688 192.123046875 179.442382812 247.213867188 189.112304688 288.65234375 c 1
 192.634765625 251.286132812 193.52734375 205.47265625 193.52734375 161.875976562 c 0
 193.52734375 155.536132812 193.124023438 75.8857421875 193.124023438 75.017578125 c 0
 193.124023438 58.1015625 193.278320312 42.9013671875 193.924804688 29.4599609375 c 0
 195.453125 -2.2978515625 221.720703125 -27.61328125 253.854492188 -27.61328125 c 0
 286.969726562 -27.61328125 313.854492188 -0.728515625 313.854492188 32.38671875 c 0
 313.854492188 32.54296875 313.69140625 40.0966796875 313.69140625 47.98046875 c 0
 313.69140625 58.419921875 314.205078125 193.893554688 342.012695312 294.384765625 c 1
 346.947265625 259.17578125 349.784179688 211.09375 349.784179688 151.986328125 c 0
 349.784179688 88.923828125 346.649414062 34.94140625 346.649414062 30.248046875 c 0
 346.649414062 -2.8671875 373.534179688 -29.751953125 406.649414062 -29.751953125 c 0
 438.797851562 -29.751953125 465.07421875 -4.4130859375 466.581054688 27.365234375 c 0
 468.821557004 74.6241039707 469.791207605 115.924948926 469.791207605 152.06554257 c 0
 469.791207605 317.194845234 449.548294972 374.596151464 437.79296875 400.366210938 c 0
 417.581752164 444.675416529 384.386941556 464.44442306 350.763605579 464.44442306 c 0
 322.759090053 464.44442306 294.45730454 450.730573781 273.112304688 426.059570312 c 1
 253.763220845 452.998447227 226.835302791 464.885003122 199.852955115 464.885003122 c 0
 178.862506894 464.885003122 157.839119 457.691507332 140.325195312 444.794921875 c 1
 129.393554688 459.583007812 111.83203125 469.180664062 92.046875 469.180664062 c 0
 58.931640625 469.180664062 32.046875 442.295898438 32.046875 409.180664062 c 0
 32.046875 404.590820312 34.2353515625 352.736328125 34.2353515625 278.434570312 c 0
EndSplineSet
EndChar

StartChar: n
Encoding: 110 110 78
Width: 500
Flags: HW
LayerCount: 2
Fore
SplineSet
283.262695312 341.977539062 m 0
 292.373624756 341.977539062 326.680664062 305.196246603 326.680664062 110.822265625 c 0
 326.680664062 70.5673828125 325.067382812 30.359375 325.067382812 29.546875 c 0
 325.067382812 -3.568359375 351.952148438 -30.453125 385.067382812 -30.453125 c 0
 417.424804688 -30.453125 443.834960938 -4.783203125 445.025390625 27.28515625 c 0
 446.142287775 57.3593928586 446.680771629 85.1783374098 446.680771629 110.938324927 c 0
 446.680771629 272.347170508 425.539259205 352.918930016 393.079101562 400.953125 c 0
 363.464582861 444.775404839 322.352532148 462.162345066 281.372244189 462.162345066 c 0
 241.511602566 462.162345066 201.775622119 445.712503487 172.866210938 421.139648438 c 1
 165.75 446.33203125 142.575195312 464.81640625 115.1171875 464.81640625 c 0
 82.001953125 464.81640625 55.1171875 437.931640625 55.1171875 404.81640625 c 0
 55.1171875 400.243164062 57.291015625 348.919921875 57.291015625 275.337890625 c 0
 57.291015625 185.098632812 53.2548828125 65.4951171875 53.2548828125 30.2490234375 c 0
 53.2548828125 -2.8662109375 80.1396484375 -29.7509765625 113.254882812 -29.7509765625 c 0
 145.55078125 -29.7509765625 171.920898438 -4.1796875 173.206054688 27.802734375 c 0
 176.036077108 98.2205802593 192.39472572 341.977539062 283.262695312 341.977539062 c 0
EndSplineSet
EndChar

StartChar: o
Encoding: 111 111 79
Width: 500
Flags: HW
LayerCount: 2
Fore
SplineSet
241.528320312 -33.6748046875 m 0
 360.688610208 -33.6748046875 477.890625 82.422758909 477.890625 198.499023438 c 0
 477.890625 378.44140625 368.602539062 462.46875 257.119140625 462.46875 c 0
 124.7734375 462.46875 22.109375 368.893554688 22.109375 194.342773438 c 0
 22.109375 52.966796875 119.80078125 -33.6748046875 241.528320312 -33.6748046875 c 0
241.528320312 86.3251953125 m 0
 214.882667912 86.3251953125 142.109375 95.3834387132 142.109375 194.342773438 c 0
 142.109375 256.975585938 159.913085938 342.46875 257.119140625 342.46875 c 0
 283.768481044 342.46875 357.890625 330.595041567 357.890625 198.499023438 c 0
 357.890625 154.2265625 298.587890625 86.3251953125 241.528320312 86.3251953125 c 0
EndSplineSet
EndChar

StartChar: p
Encoding: 112 112 80
Width: 500
Flags: HW
LayerCount: 2
Fore
SplineSet
277.8359375 332.34375 m 0
 327.453125 332.34375 351.58203125 270.94140625 351.58203125 208.232421875 c 0
 351.58203125 151.001953125 289.45703125 89.00390625 159.1875 74.0517578125 c 1
 164.818359375 165.942382812 182.861328125 292.15625 238.6796875 323.423828125 c 0
 249.169921875 329.30078125 261.384765625 332.34375 277.8359375 332.34375 c 0
471.58203125 208.232421875 m 0
 471.58203125 358.72265625 384.436523438 452.34375 277.8359375 452.34375 c 0
 245.811150668 452.34375 179.478761423 446.775893804 125.631445885 382.184988134 c 1
 115.401030459 390.289406103 102.470375223 395.130859375 88.41796875 395.130859375 c 0
 55.302734375 395.130859375 28.41796875 368.24609375 28.41796875 335.130859375 c 0
 28.41796875 314.75 43.806640625 290.46875 43.806640625 209.700195312 c 0
 43.806640625 140.91327946 32.5120875912 64.7134900496 32.5120875912 -37.0641021194 c 0
 32.5120875912 -72.4665833134 33.8786582946 -110.963819634 37.5625 -153.3203125 c 0
 40.228515625 -183.977539062 65.9912109375 -208.063476562 97.3349609375 -208.063476562 c 0
 130.450195312 -208.063476562 157.334960938 -181.178710938 157.334960938 -148.063476562 c 0
 157.334960938 -147.018512381 153.064792922 -100.362237658 152.561861938 -47.160803949 c 1
 374.698877749 -29.2275016747 471.58203125 97.2108758643 471.58203125 208.232421875 c 0
EndSplineSet
EndChar

StartChar: q
Encoding: 113 113 81
Width: 500
Flags: HW
LayerCount: 2
Fore
SplineSet
44.85546875 174.1328125 m 0
 44.85546875 24.1154170235 114.262067545 -36.6268988317 192.237017327 -36.6268988317 c 0
 237.688579026 -36.6268988317 286.05142531 -15.9883689585 325.276367188 19.6376953125 c 1
 321.866210938 -90.7734375 315.15234375 -159.3828125 315.15234375 -161.194335938 c 0
 315.15234375 -194.309570312 342.037109375 -221.194335938 375.15234375 -221.194335938 c 0
 406.450195312 -221.194335938 432.182617188 -197.178710938 434.913085938 -166.586914062 c 0
 443.7578125 -67.4755859375 445.665039062 22.0302734375 447.7421875 117.9609375 c 0
 451.703125 300.8984375 455.14453125 341.77734375 455.14453125 346.549804688 c 0
 455.14453125 392.898919785 381.280279371 461.458984375 289.446289062 461.458984375 c 0
 149.852539062 461.458984375 44.85546875 301.840820312 44.85546875 174.1328125 c 0
192.682617188 83.4892578125 m 0
 172.939917019 83.4892578125 164.85546875 132.884529337 164.85546875 174.1328125 c 0
 164.85546875 244.637695312 227.560546875 341.458984375 289.446289062 341.458984375 c 0
 303.108398438 341.458984375 319.926757812 336.704101562 333.331054688 325.916992188 c 1
 317.283203125 166.163085938 241.21875 83.4892578125 192.682617188 83.4892578125 c 0
EndSplineSet
EndChar

StartChar: r
Encoding: 114 114 82
Width: 500
Flags: HW
LayerCount: 2
Fore
SplineSet
285.04296875 470.336914062 m 0
 257.204101562 470.336914062 213.291015625 463.6015625 172.411132812 428.731445312 c 1
 165.58984375 454.372070312 142.196289062 473.287109375 114.420898438 473.287109375 c 0
 81.3056640625 473.287109375 54.4208984375 446.40234375 54.4208984375 413.287109375 c 0
 54.4208984375 411.94140625 56.6865234375 351.873046875 56.6865234375 278.73046875 c 0
 56.6865234375 184.934570312 52.48046875 60.63671875 52.48046875 24.0478515625 c 0
 52.48046875 -9.0673828125 79.365234375 -35.9521484375 112.48046875 -35.9521484375 c 0
 144.7734375 -35.9521484375 171.141601562 -10.384765625 172.430664062 21.59375 c 0
 177.486578712 146.98514445 198.956791301 350.336914062 285.04296875 350.336914062 c 0
 306.669921875 350.336914062 322.908203125 317.28515625 329.860351562 286.663085938 c 0
 335.92578125 259.950195312 359.8359375 239.983398438 388.374023438 239.983398438 c 0
 422.245774753 239.983398438 448.39689452 267.741231116 448.39689452 299.931080065 c 0
 448.39689452 304.3258007 447.909461487 308.803130078 446.887695312 313.303710938 c 0
 441.676157773 336.256506389 406.053190082 470.336914062 285.04296875 470.336914062 c 0
EndSplineSet
EndChar

StartChar: s
Encoding: 115 115 83
Width: 500
Flags: HW
LayerCount: 2
Fore
SplineSet
188.2578125 314.733398438 m 1
 199.844726562 331.530273438 225.103515625 343.001953125 248.31640625 343.001953125 c 0
 269.317382812 343.001953125 294.784179688 335.487304688 322.810546875 304.39453125 c 0
 335.160330894 290.693768755 351.044185975 284.580272464 366.683840357 284.580272464 c 0
 397.508613089 284.580272464 427.384765625 308.328714103 427.384765625 344.541992188 c 0
 427.384765625 359.974609375 421.545898438 374.053710938 411.958984375 384.689453125 c 0
 361.714448433 440.430156275 303.070081734 462.796027983 248.456763402 462.796027983 c 0
 150.333382813 462.796027983 65.22265625 390.596608866 65.22265625 310.048828125 c 0
 65.22265625 275.399414062 85.0302734375 196.944335938 217.936523438 186.84765625 c 0
 223.602038168 186.417391851 324.193359375 178.208225714 324.193359375 137.743164062 c 0
 324.193359375 115.401553375 293.840355234 81.1375969403 247.943747132 81.1375969403 c 0
 221.730842613 81.1375969403 190.447787823 92.3141174203 156.853515625 123.271484375 c 0
 144.952126335 134.238640093 130.731127498 139.14954558 116.78085764 139.14954558 c 0
 85.8321065145 139.14954558 56.2158203125 114.979213593 56.2158203125 79.14453125 c 0
 56.2158203125 61.7001953125 63.67578125 45.9853515625 75.578125 35.017578125 c 0
 132.394825928 -17.3392659478 192.768982844 -38.7649103695 247.854078405 -38.7649103695 c 0
 356.267098885 -38.7649103695 444.193359375 44.2256252608 444.193359375 137.743164062 c 0
 444.193359375 198.907226562 401.728515625 293.236328125 227.137695312 306.5 c 0
 207.100585938 308.021484375 194.778320312 311.91796875 188.2578125 314.733398438 c 1
EndSplineSet
EndChar

StartChar: t
Encoding: 116 116 84
Width: 500
Flags: HW
LayerCount: 2
Fore
SplineSet
240.043945312 322.346679688 m 1
 240.916992188 322.346679688 296.404296875 322.836914062 327.390625 322.836914062 c 0
 360.505859375 322.836914062 387.390625 349.721679688 387.390625 382.836914062 c 0
 387.390625 415.719726562 360.880859375 442.459960938 328.0859375 442.833007812 c 0
 326.939744636 442.846034893 325.190380377 442.851914207 322.965361418 442.851914207 c 0
 302.339273258 442.851914207 240.838153679 442.346679688 240.043945312 442.346679688 c 0
 228.687552622 442.346679688 217.307169888 442.478573442 206.376328256 442.775659244 c 1
 213.116507889 494.468015387 219.222643932 540.857884774 219.222643932 574.796645168 c 0
 219.222643932 583.609675435 218.810902048 591.583116961 217.891601562 598.591796875 c 0
 214.03515625 627.99609375 188.852539062 650.727539062 158.403320312 650.727539062 c 0
 125.288085938 650.727539062 98.4033203125 623.842773438 98.4033203125 590.727539062 c 0
 98.4033203125 583.724609375 99.396484375 583.012695312 99.396484375 572.91015625 c 0
 99.396484375 516.030263476 68.947634347 375.961020858 68.947634347 242.328983512 c 0
 68.947634347 197.975429896 72.3019703098 154.331017976 81.2373046875 114.672851562 c 0
 105.23855861 8.15532736948 165.59930065 -33.3089778441 229.557456708 -33.3089778441 c 0
 326.218960802 -33.3089778441 431.097320429 61.3996667316 431.097320429 169.387640092 c 0
 431.097320429 187.318964331 428.205576504 205.616431009 421.904296875 223.907226562 c 0
 413.794921875 247.447265625 391.438476562 264.37890625 365.159179688 264.37890625 c 0
 332.043945312 264.37890625 305.159179688 237.494140625 305.159179688 204.37890625 c 0
 305.159179688 187.393554688 311.217773438 183.288085938 311.217773438 168.622070312 c 0
 311.217773438 127.034179688 257.56640625 86.8408203125 228.279296875 86.8408203125 c 0
 216.639288262 86.8408203125 188.889974888 122.505110179 188.889974888 240.753352439 c 0
 188.889974888 264.667415683 190.02490626 291.959116317 192.657538684 323.016542969 c 1
 208.431274312 322.467435221 239.822424721 322.349811145 240.043945312 322.346679688 c 1
EndSplineSet
EndChar

StartChar: u
Encoding: 117 117 85
Width: 500
Flags: HW
LayerCount: 2
Fore
SplineSet
166.752929688 309.682617188 m 0
 166.752929688 357.143554688 170.577148438 396.719726562 170.577148438 403.659179688 c 0
 170.577148438 436.774414062 143.692382812 463.659179688 110.577148438 463.659179688 c 0
 78.8662109375 463.659179688 52.8681640625 439.005859375 50.720703125 407.836914062 c 0
 48.8044647693 380.027998321 46.7407455592 345.606109226 46.7407455592 308.349181453 c 0
 46.7407455592 199.045049906 64.5034742762 65.3393317988 155.865234375 2.630859375 c 0
 183.795717203 -16.5397940479 223.073801117 -29.6781316861 263.72101478 -29.6781316861 c 0
 320.254826449 -29.6781316861 379.437135706 -4.26282273937 414.420898438 65.6865234375 c 0
 451.765625 140.357421875 451.893554688 243.2109375 452.004882812 331.817382812 c 0
 452.083984375 395.192382812 453.4453125 406.286132812 453.4453125 407.038085938 c 0
 453.4453125 440.153320312 426.560546875 467.038085938 393.4453125 467.038085938 c 0
 361.645507812 467.038085938 335.58984375 442.245117188 333.571289062 410.951171875 c 0
 329.458007812 347.19140625 336.526367188 243.272460938 322.556640625 169.540039062 c 0
 319.391601562 152.838867188 310.833007812 115.01953125 292.625 99.369140625 c 0
 286.615234375 94.2041015625 279.950195312 90.5400390625 264.200195312 90.5400390625 c 0
 244.66015625 90.5400390625 206.78515625 92.232421875 183.841796875 166.590820312 c 0
 171.1328125 207.780273438 166.752929688 261.822265625 166.752929688 309.682617188 c 0
EndSplineSet
EndChar

StartChar: v
Encoding: 118 118 86
Width: 500
Flags: HW
LayerCount: 2
Fore
SplineSet
104.873046875 465.374023438 m 0
 69.5354181387 465.374023438 44.8345147164 436.152872276 44.8345147164 405.001961899 c 0
 44.8345147164 393.423141261 48.2472295802 381.577702118 55.794921875 370.8671875 c 0
 112.538085938 290.348632812 111.861328125 149.796875 192.504882812 -4.3623046875 c 0
 203.747414182 -25.8541974219 224.714211267 -36.4882017365 245.658508244 -36.4882017365 c 0
 267.467505616 -36.4882017365 289.252106661 -24.958006583 300.0078125 -2.150390625 c 0
 370.018554688 146.315429688 417.30859375 262.5859375 454.048828125 383.393554688 c 0
 455.828282147 389.245100446 456.66677258 395.114357765 456.66677258 400.859686249 c 0
 456.66677258 432.767844922 430.804191233 460.853515625 396.6328125 460.853515625 c 0
 369.58984375 460.853515625 346.702148438 442.923828125 339.216796875 418.313476562 c 0
 315.455078125 340.1796875 287.020507812 263.865234375 249.294921875 176.55078125 c 1
 242.21875 200.106445312 236.002929688 223.534179688 229.858398438 246.828125 c 0
 211.240234375 317.409179688 193.880859375 383.219726562 153.951171875 439.880859375 c 0
 143.086914062 455.295898438 125.147460938 465.374023438 104.873046875 465.374023438 c 0
EndSplineSet
EndChar

StartChar: w
Encoding: 119 119 87
Width: 500
Flags: HW
LayerCount: 2
Fore
SplineSet
83.130859375 472.240234375 m 0
 49.290201164 472.240234375 23.1088814868 444.516841836 23.1088814868 412.295370928 c 0
 23.1088814868 408.035635442 23.5664604745 403.697285654 24.5244140625 399.333984375 c 0
 46.484375 299.314453125 30.0986328125 160.93359375 106.258789062 -3.09375 c 0
 117.016717999 -26.2631298896 138.843307042 -37.7104271126 160.64882912 -37.7104271126 c 0
 183.402021159 -37.7104271126 206.132275298 -25.2465073241 216.240234375 -0.630859375 c 0
 229.188476562 30.9033203125 239.356445312 57.953125 248.0078125 83.595703125 c 1
 258.176757812 59.283203125 270.083984375 32.82421875 284.711914062 1.736328125 c 0
 295.60300366 -21.4101470684 317.231963544 -32.5660395544 338.81034034 -32.5660395544 c 0
 363.399438853 -32.5660395544 387.922854364 -18.0799225326 396.416992188 9.6572265625 c 0
 443.336914062 162.87109375 460.364257812 274.33203125 476.6328125 392.264648438 c 0
 477.019546669 395.068016538 477.20710608 397.847298362 477.20710608 400.589355028 c 0
 477.20710608 433.187952977 450.698685468 460.525390625 417.198242188 460.525390625 c 0
 386.885742188 460.525390625 361.79296875 437.998046875 357.763671875 408.786132812 c 0
 348.778320312 343.655273438 340.041015625 283.450195312 326.395507812 217.81640625 c 1
 318.338867188 244.229492188 310.533203125 273.622070312 300.568359375 312.266601562 c 0
 293.899414062 338.130859375 270.397460938 357.262695312 242.462890625 357.262695312 c 0
 214.111328125 357.262695312 190.326171875 337.555664062 184.0703125 311.104492188 c 0
 167.088867188 239.302734375 167.088867188 239.302734375 164.939453125 230.434570312 c 1
 156.123046875 300.607421875 155.532226562 362.313476562 141.737304688 425.146484375 c 0
 135.826171875 452.067382812 111.815429688 472.240234375 83.130859375 472.240234375 c 0
EndSplineSet
EndChar

StartChar: x
Encoding: 120 120 88
Width: 500
Flags: HW
LayerCount: 2
Fore
SplineSet
433.68359375 381.083007812 m 0
 437.786408307 389.571842653 439.676130685 398.381468315 439.676130685 406.983016084 c 0
 439.676130685 438.452448713 414.381833274 467.13671875 379.62890625 467.13671875 c 0
 355.84765625 467.13671875 335.279296875 453.271484375 325.57421875 433.190429688 c 0
 303.704173432 387.94112572 275.193971375 351.261110724 243.739981521 315.562978193 c 1
 215.473942174 348.895565632 191.654719611 384.750748378 170.427734375 436.990234375 c 0
 161.5078125 458.944335938 139.95703125 474.440429688 114.81640625 474.440429688 c 0
 80.296810971 474.440429688 54.7726522985 445.989791157 54.7726522985 414.360961263 c 0
 54.7726522985 406.937009664 56.1788793503 399.337958909 59.205078125 391.890625 c 0
 88.3788864362 320.091619783 125.060352419 269.13410553 162.87873547 226.024562634 c 1
 123.150612173 180.007838938 83.5220862212 126.79385611 49.9970703125 54.05859375 c 0
 46.2175791015 45.8583316767 44.4725331767 37.3928098537 44.4725331767 29.1263923105 c 0
 44.4725331767 -2.38647806501 69.8324667056 -31.005859375 104.51953125 -31.005859375 c 0
 128.689453125 -31.005859375 149.541015625 -16.68359375 159.041992188 3.9296875 c 0
 184.209071231 58.5319879281 214.131502339 100.748660782 245.699906123 138.455426086 c 1
 280.056052038 101.90431737 314.062444542 61.8340357194 349.106445312 3.9052734375 c 0
 359.620117188 -13.474609375 378.704101562 -25.1025390625 400.481445312 -25.1025390625 c 0
 435.567265957 -25.1025390625 460.527230671 3.89641440302 460.527230671 35.1715749062 c 0
 460.527230671 45.4827320092 457.814168908 56.0413049378 451.856445312 65.8896484375 c 0
 408.988858206 136.753272017 365.364837765 186.652978768 326.240668301 227.873374346 c 1
 365.309550302 271.203013888 402.983363614 317.562968089 433.68359375 381.083007812 c 0
EndSplineSet
EndChar

StartChar: y
Encoding: 121 121 89
Width: 500
Flags: HW
LayerCount: 2
Fore
SplineSet
240.739257812 126.05859375 m 0
 221.581046847 126.05859375 157.172851562 126.05859375 157.172851562 274.209960938 c 0
 157.172851562 337.536132812 169.220703125 388.2890625 169.220703125 400.763671875 c 0
 169.220703125 433.87890625 142.3359375 460.763671875 109.220703125 460.763671875 c 0
 79.6123046875 460.763671875 54.9833984375 439.270507812 50.1005859375 411.048828125 c 0
 41.8100403378 363.136034483 37.1087539811 316.987358284 37.1087539811 273.938729105 c 0
 37.1087539811 207.52912597 48.2969436898 148.49705986 74.755859375 101.747070312 c 0
 112.293985408 35.4220788168 176.193067611 5.797000201 238.136363504 5.797000201 c 0
 275.751190247 5.797000201 312.644824967 16.7211846323 342.4765625 36.9853515625 c 1
 340.190429688 16.9130859375 332.073242188 -48.15625 308.08984375 -73.14453125 c 0
 302.708007812 -78.7529296875 293.073242188 -88.0107421875 252.986328125 -88.0107421875 c 0
 250.791826296 -88.0107421875 181.76035432 -87.5537716553 140.583984375 -30.3349609375 c 0
 129.6875 -15.1923828125 111.912109375 -5.3251953125 91.8505859375 -5.3251953125 c 0
 56.4768891697 -5.3251953125 31.8134857333 -34.5771855064 31.8134857333 -65.7112877288 c 0
 31.8134857333 -77.4689481108 35.3308887851 -89.4950283241 43.1171875 -100.315429688 c 0
 54.5407232504 -116.190246057 126.09916481 -208.010742188 252.986328125 -208.010742188 c 0
 409.40125485 -208.010742188 468.121505767 -104.7122994 468.121505767 153.775039146 c 0
 468.121505767 222.971573526 463.91348339 303.289285623 456.245117188 395.723632812 c 0
 453.692382812 426.494140625 427.876953125 450.705078125 396.452148438 450.705078125 c 0
 363.336914062 450.705078125 336.452148438 423.8203125 336.452148438 390.705078125 c 0
 336.452148438 386.198242188 337.940429688 368.635742188 337.940429688 341.916992188 c 0
 337.940429688 309.441042257 333.819514078 126.05859375 240.739257812 126.05859375 c 0
EndSplineSet
EndChar

StartChar: z
Encoding: 122 122 90
Width: 500
Flags: HW
LayerCount: 2
Fore
SplineSet
392.064453125 91.259765625 m 0
 389.423828125 91.259765625 382.874023438 90.8759765625 368.600585938 90.8759765625 c 0
 333.916015625 90.8759765625 290.328125 93.419921875 248.059570312 94.294921875 c 1
 319.254882812 178.19140625 378.649414062 259.555664062 411.611328125 311.07421875 c 0
 440.799804688 356.696289062 444.126953125 368.797851562 444.126953125 383.408203125 c 0
 444.126953125 413.139648438 422.455078125 437.848632812 394.060546875 442.587890625 c 0
 311.350585938 456.392578125 214.721679688 453.973632812 127.87890625 459.71484375 c 0
 126.523224734 459.804460471 125.17588917 459.848589232 123.83831206 459.848589232 c 0
 90.8938110325 459.848589232 63.869140625 433.078492156 63.869140625 399.846679688 c 0
 63.869140625 368.079101562 88.611328125 342.044921875 119.859375 339.978515625 c 0
 156.756835938 337.5390625 280.205078125 333.248046875 281.82421875 333.166992188 c 1
 252.4453125 291.334960938 169.842773438 178.840820312 64.8603515625 70.47265625 c 0
 53.1225516906 58.3564830115 47.9333016896 43.7716682787 47.9333016896 29.4769796308 c 0
 47.9333016896 -1.59344756785 72.4493033626 -31.2932081811 107.522996438 -31.2932081811 c 0
 109.95473785 -31.2932081811 112.437229811 -31.1504421995 114.965820312 -30.85546875 c 0
 150.650390625 -26.6923828125 184.40234375 -25.365234375 216.836914062 -25.365234375 c 0
 271.087357438 -25.365234375 321.381065052 -29.1235744876 368.644475719 -29.1235744876 c 0
 377.262580898 -29.1235744876 385.779932923 -28.9986149117 394.202148438 -28.703125 c 0
 426.328125 -27.5751953125 452.064453125 -1.1396484375 452.064453125 31.259765625 c 0
 452.064453125 64.375 425.1796875 91.259765625 392.064453125 91.259765625 c 0
EndSplineSet
EndChar

StartChar: braceleft
Encoding: 123 123 91
Width: 500
Flags: HW
LayerCount: 2
Fore
SplineSet
310.525390625 67.14453125 m 0
 301.886247105 67.14453125 275.349609375 67.14453125 275.349609375 136.270507812 c 0
 275.349609375 170.65234375 292.001953125 210.893554688 292.001953125 268.78515625 c 0
 292.001953125 304.869140625 283.216796875 341.057617188 257.620117188 372.216796875 c 1
 283.280273438 403.5234375 297.095703125 445.272460938 297.095703125 498.866210938 c 0
 297.095703125 539.293108404 288.379087734 569.326081235 288.379087734 597.718941036 c 0
 288.379087734 598.424598245 288.384471884 599.129242375 288.395507812 599.833007812 c 0
 288.531524311 608.512834838 290.0425883 648.239175179 306.2578125 656.012695312 c 0
 311.098923368 658.331698251 316.864914118 659.176379161 322.990276641 659.176379161 c 0
 339.424961865 659.176379161 358.446687121 653.095703125 369.1328125 653.095703125 c 0
 402.248046875 653.095703125 429.1328125 679.98046875 429.1328125 713.095703125 c 0
 429.1328125 741.290039062 409.643554688 764.96875 383.4140625 771.3828125 c 0
 362.451028985 776.509011568 342.716277017 778.983602997 324.349443502 778.983602997 c 0
 227.247127904 778.983602997 168.37890625 709.817373895 168.37890625 597.642578125 c 0
 168.37890625 557.865234375 177.095703125 528.251953125 177.095703125 498.866210938 c 0
 177.095703125 438.58970222 149.307883084 434.970529854 127.741210938 433.484375 c 0
 96.572265625 431.336914062 71.91796875 405.338867188 71.91796875 373.627929688 c 0
 71.91796875 344.22265625 93.1171875 319.729492188 121.053710938 314.611328125 c 0
 170.973512615 305.464024526 172.001953125 287.46592368 172.001953125 268.78515625 c 0
 172.001953125 224.868164062 155.349609375 188.595703125 155.349609375 136.270507812 c 0
 155.349609375 6.458984375 228.135742188 -52.85546875 310.525390625 -52.85546875 c 0
 334.473632812 -52.85546875 358.732421875 -48.1953125 383.938476562 -39.703125 c 0
 407.677734375 -31.705078125 424.793945312 -9.2490234375 424.793945312 17.1728515625 c 0
 424.793945312 50.2880859375 397.909179688 77.1728515625 364.793945312 77.1728515625 c 0
 346.068359375 77.1728515625 333.075195312 67.14453125 310.525390625 67.14453125 c 0
EndSplineSet
EndChar

StartChar: bar
Encoding: 124 124 92
Width: 500
Flags: HW
LayerCount: 2
Fore
SplineSet
303.33984375 111.836914062 m 0
 303.33984375 250.39453125 316.215820312 397.5078125 316.215820312 527.004882812 c 0
 316.215820312 591.895507812 313.140625 653.146484375 302.676757812 708.829101562 c 0
 297.452148438 736.633789062 273.021484375 757.698242188 243.708984375 757.698242188 c 0
 209.999721318 757.698242188 183.69307353 730.122850822 183.69307353 697.763076187 c 0
 183.69307353 694.081908391 184.033501912 690.338826973 184.7421875 686.567382812 c 0
 193.253186645 641.272764041 196.137501795 587.050608606 196.137501795 527.368119267 c 0
 196.137501795 401.824753081 183.374983104 252.12049951 183.374983104 110.526903703 c 0
 183.374983104 83.1624223681 183.851659461 56.1008717393 184.989257812 29.5751953125 c 0
 186.357421875 -2.330078125 212.692382812 -27.814453125 244.932617188 -27.814453125 c 0
 278.047851562 -27.814453125 304.932617188 -0.9296875 304.932617188 32.185546875 c 0
 304.932617188 36.326171875 303.33984375 63.1904296875 303.33984375 111.836914062 c 0
EndSplineSet
EndChar

StartChar: braceright
Encoding: 125 125 93
Width: 500
Flags: HW
LayerCount: 2
Fore
SplineSet
346.154296875 610.268554688 m 0
 346.154296875 721.9140625 281.69921875 781.313476562 196.374023438 781.313476562 c 0
 173.59765625 781.313476562 150.03125 777.357421875 124.779296875 769.873046875 c 0
 99.9609375 762.517578125 81.833984375 739.52734375 81.833984375 712.3359375 c 0
 81.833984375 679.220703125 108.71875 652.3359375 141.833984375 652.3359375 c 0
 158.8515625 652.3359375 173.247070312 661.313476562 196.374023438 661.313476562 c 0
 213.118164062 661.313476562 215.923828125 656.095703125 218.426757812 651.44140625 c 0
 222.19921875 644.426757812 226.154296875 628.84375 226.154296875 610.268554688 c 0
 226.154296875 582.21484375 217.879882812 547.283203125 217.879882812 507.243164062 c 0
 217.879882812 491.982421875 218.341796875 424.520507812 271.276367188 373.518554688 c 1
 242.884765625 336.188476562 223.6015625 286.587890625 223.6015625 229.3203125 c 0
 223.6015625 181.852539062 238.759765625 149.131835938 238.759765625 126.091796875 c 0
 238.759765625 102.118164062 221.772460938 56.2509765625 196.357421875 56.2509765625 c 0
 181.013671875 56.2509765625 173.379882812 66.5732421875 152.001953125 66.5732421875 c 0
 118.88671875 66.5732421875 92.001953125 39.6884765625 92.001953125 6.5732421875 c 0
 92.001953125 -17.8505859375 106.626953125 -38.8857421875 127.58984375 -48.244140625 c 0
 151.767702534 -59.038759148 174.813565226 -63.8723496212 196.336517596 -63.8723496212 c 0
 292.864065189 -63.8723496212 358.759765625 33.3505809527 358.759765625 126.091796875 c 0
 358.759765625 169.983398438 343.6015625 198.168945312 343.6015625 229.3203125 c 0
 343.6015625 287.279296875 381.250976562 321.870117188 399.6328125 326.672851562 c 0
 425.404296875 333.405273438 444.446289062 356.861328125 444.446289062 384.73046875 c 0
 444.446289062 415.647460938 421.01171875 441.133789062 390.952148438 444.380859375 c 0
 366.348632812 447.0390625 337.879882812 460.264648438 337.879882812 507.243164062 c 0
 337.879882812 537.263671875 346.154296875 571.50390625 346.154296875 610.268554688 c 0
EndSplineSet
EndChar

StartChar: asciitilde
Encoding: 126 126 94
Width: 500
Flags: HW
LayerCount: 2
Fore
SplineSet
315.560546875 392.891601562 m 0
 315.560546875 386.490234375 315.560546875 376.768554688 309.657226562 367.221679688 c 1
 301.958007812 378.521484375 294.857421875 406.70703125 265.970703125 432.231445312 c 0
 244.027259934 451.620499266 217.98622717 461.032161746 191.986255362 461.032161746 c 0
 134.828290512 461.032161746 77.8687691302 415.546543289 65.0791015625 330.5859375 c 0
 64.6199069961 327.535433075 64.3977593256 324.510963696 64.3977593256 321.529650854 c 0
 64.3977593256 288.992517548 90.8574787791 261.595703125 124.409179688 261.595703125 c 0
 154.46875 261.595703125 179.395507812 283.749023438 183.739257812 312.60546875 c 0
 185.388671875 323.568359375 188.45703125 331.21875 191.116210938 335.803710938 c 1
 191.716796875 334.669921875 192.34765625 333.364257812 192.991210938 331.866210938 c 0
 219.525414194 270.071214606 264.458146762 243.257005001 308.494197766 243.257005001 c 0
 373.004679643 243.257005001 435.590820312 300.80217001 435.590820312 390.217773438 c 0
 435.590820312 434.788085938 400.676757812 452.891601562 375.560546875 452.891601562 c 0
 342.4453125 452.891601562 315.560546875 426.006835938 315.560546875 392.891601562 c 0
EndSplineSet
EndChar

StartChar: lessequal.ligature
Encoding: 256 -1 95
Width: 1000
VWidth: 0
GlyphClass: 3
Flags: HW
LayerCount: 2
Fore
SplineSet
244.319335938 289.46875 m 0
 238.831332238 291.020043705 233.341689649 291.753410189 227.964584824 291.753410189 c 0
 195.985187205 291.753410189 167.986328125 265.813730443 167.986328125 231.72265625 c 0
 167.986328125 204.268554688 186.465820312 181.096679688 211.653320312 173.9765625 c 0
 250.635742188 162.95703125 298.692382812 149.885742188 350.251953125 135.859375 c 0
 497.598632812 95.775390625 677.684570312 46.109375 738.538085938 20.974609375 c 0
 746.081808285 17.8585362066 753.789583206 16.411752184 761.319162498 16.411752184 c 0
 792.932855991 16.411752184 821.405273438 41.9160140282 821.405273438 76.4560546875 c 0
 821.405273438 101.475585938 806.057617188 122.939453125 784.272460938 131.9375 c 0
 718.350014844 159.167132132 580.923100955 197.439151034 449.444154879 233.264934775 c 1
 487.936025712 223.08053374 530.268423533 212.37461576 576.327148438 200.864257812 c 0
 641.637695312 184.54296875 715.491210938 166.0859375 738.415039062 156.533203125 c 0
 746.011586462 153.367155769 753.779214675 151.897824515 761.366953968 151.897824515 c 0
 792.971999604 151.897824515 821.456054687 177.390050448 821.456054688 211.942382812 c 0
 821.456054688 236.895507812 806.190429688 258.311523438 784.497070312 267.3515625 c 0
 728.149414062 290.8359375 539.049804688 330.57421875 401.788085938 371.068359375 c 1
 512.262695312 401.60546875 693.739257812 442.7109375 761.69140625 466.736328125 c 0
 785.805670254 475.263768308 824.708984375 489.02100693 824.708984375 532.948242188 c 0
 824.708984375 567.876706191 795.855911127 592.995964961 764.49361385 592.995964961 c 0
 754.988269921 592.995964961 745.252432125 590.688544409 736.01953125 585.647460938 c 0
 680.811654485 555.505859315 280.717668614 482.947758099 199.45703125 422.314453125 c 0
 183.430747219 410.356063225 175.308553665 392.284997097 175.308553665 374.168585617 c 0
 175.308553665 357.448450667 182.226999398 340.689690762 196.235351562 328.662109375 c 0
 227.526594443 301.794735452 290.145685969 277.930268883 381.78515625 251.666015625 c 1
 330.244140625 265.6875 282.393554688 278.706054688 244.319335938 289.46875 c 0
EndSplineSet
Ligature2: "ligatures-1" less equal
EndChar

StartChar: greaterequal.ligature
Encoding: 257 -1 96
Width: 1000
VWidth: 0
GlyphClass: 3
Flags: HW
LayerCount: 2
Fore
SplineSet
184.546875 58.3134765625 m 0
 184.546875 23.6913641772 213.102472566 -1.73221525127 244.658609391 -1.73221525127 c 0
 252.598997934 -1.73221525127 260.72936966 -0.122487086706 268.642578125 3.35546875 c 0
 433.475585938 75.8017578125 654.048828125 107.033203125 793.03515625 181.251953125 c 0
 811.950195312 191.353515625 824.833984375 211.291992188 824.833984375 234.215820312 c 0
 824.833984375 268.804772063 796.515860342 293.820798171 765.456501609 294.258058786 c 1
 776.247561307 299.065591264 786.208680003 304.101332883 795.319335938 309.520507812 c 0
 814.747969533 321.077014597 824.659142962 341.101077215 824.659142962 361.18561999 c 0
 824.659142962 379.520805145 816.399300263 397.906393673 799.580078125 409.946289062 c 0
 722.771394368 464.930159268 324.434001455 535.912072934 266.388671875 571.188476562 c 0
 256.513341715 577.189623795 245.917269109 579.921863855 235.569321686 579.921863855 c 0
 204.297644239 579.921863855 175.291992187 554.969437437 175.291992188 519.875976562 c 0
 175.291992188 463.229604508 226.427992745 448.429851561 473.970703125 386.75390625 c 0
 510.935546875 377.543945312 548.01171875 368.298828125 582.319335938 359.325195312 c 1
 537.073242188 346.254882812 487.413085938 332.875976562 439.596679688 320.0078125 c 0
 217.795745711 260.318621873 176.543945312 249.059521838 176.543945312 194.87109375 c 0
 176.543945312 159.874325155 205.460868459 134.824123719 236.784584783 134.824123719 c 0
 246.639101071 134.824123719 256.731828917 137.30345912 266.237304688 142.732421875 c 0
 304.306877679 164.475077285 549.681117022 220.523779808 700.368709033 269.981123623 c 1
 576.186934365 217.073609107 375.092120998 181.238628356 220.451171875 113.271484375 c 0
 199.319335938 103.983398438 184.546875 82.8603515625 184.546875 58.3134765625 c 0
EndSplineSet
Ligature2: "ligatures-1" greater equal
EndChar

StartChar: notequal.ligature
Encoding: 258 -1 97
Width: 1000
VWidth: 0
GlyphClass: 3
Flags: HW
LayerCount: 2
Fore
SplineSet
675.099609375 552.763671875 m 0
 679.443037987 561.45588818 681.440143456 570.512541207 681.440143456 579.354813767 c 0
 681.440143456 610.794776722 656.191546091 639.524414062 621.392578125 639.524414062 c 0
 597.891601562 639.524414062 577.528320312 625.983398438 567.685546875 606.28515625 c 0
 552.228733325 575.353156019 531.844879952 538.382818038 509.567955666 499.233698225 c 1
 470.583775781 499.006538101 436.98046875 498.791992188 436.98046875 498.791992188 c 1
 425.565429688 498.791992188 311.344726562 499.373046875 310.075195312 499.373046875 c 0
 275.734375 499.373046875 240.623046875 498.919921875 197.755859375 497.239257812 c 0
 165.745117188 495.984375 140.142578125 469.6015625 140.142578125 437.286132812 c 0
 140.142578125 404.170898438 167.02734375 377.286132812 200.142578125 377.286132812 c 0
 206.426757812 377.286132812 241.130859375 379.373046875 310.075195312 379.373046875 c 0
 311.344726562 379.373046875 424.381835938 378.791992188 436.98046875 378.791992188 c 0
 437.204744669 378.791992188 438.20008143 378.799799062 439.936471127 378.813988731 c 1
 435.560391915 371.267549762 431.318419003 363.939127424 427.209316106 356.821125622 c 1
 396.675929064 356.938837951 311.172644101 357.373046875 310.075195312 357.373046875 c 0
 275.734375 357.373046875 240.623046875 356.919921875 197.755859375 355.239257812 c 0
 165.745117188 353.984375 140.142578125 327.6015625 140.142578125 295.286132812 c 0
 140.142578125 262.170898438 167.02734375 235.286132812 200.142578125 235.286132812 c 0
 206.426757812 235.286132812 241.130859375 237.373046875 310.075195312 237.373046875 c 0
 310.649472566 237.373046875 334.094071807 237.254149177 360.766688999 237.123921425 c 1
 337.693033256 191.90517305 326.751953125 162.107877027 326.751953125 140.411132812 c 0
 326.751953125 107.295898438 353.63671875 80.4111328125 386.751953125 80.4111328125 c 0
 417.88671875 80.4111328125 443.514648438 104.177734375 446.467773438 134.54296875 c 0
 452.084582811 153.930917477 471.404184409 191.195107243 497.182976988 237.215664152 c 1
 540.038699021 237.464443397 603.926696464 237.73046875 682.877929688 237.73046875 c 1
 722.165039062 237.73046875 757.771484375 237.892578125 801.362304688 238.967773438 c 0
 833.783203125 239.767578125 859.857421875 266.336914062 859.857421875 298.94921875 c 0
 859.857421875 332.064453125 832.97265625 358.94921875 799.857421875 358.94921875 c 0
 798.145507812 358.94921875 809.189453125 357.760742188 628.657226562 357.760742188 c 0
 615.083834743 357.760742188 591.986900647 357.669619239 566.429559249 357.543267418 c 1
 570.683233759 364.86558517 574.950900124 372.216929897 579.214649502 379.574753923 c 1
 609.762615456 379.667756229 644.54477733 379.73046875 682.877929688 379.73046875 c 1
 722.165039062 379.73046875 757.771484375 379.892578125 801.362304688 380.967773438 c 0
 833.783203125 381.767578125 859.857421875 408.336914062 859.857421875 440.94921875 c 0
 859.857421875 474.064453125 832.97265625 500.94921875 799.857421875 500.94921875 c 0
 798.206706672 500.94921875 808.416139407 499.844196545 647.293499285 499.765190128 c 1
 657.502618768 518.526525147 666.900988563 536.355938987 675.099609375 552.763671875 c 0
EndSplineSet
Ligature2: "ligatures-1" exclam equal
EndChar

StartChar: plusplus.ligature
Encoding: 259 -1 98
Width: 1000
VWidth: 0
GlyphClass: 3
Flags: HW
LayerCount: 2
Fore
SplineSet
394.092715703 319.628258931 m 1
 446.472227161 319.667362642 595.912154381 322.109491094 597.950821825 322.125973018 c 1
 598.077514466 294.697668758 598.295898177 265.319008103 598.948242188 232.090820312 c 0
 599.587890625 199.528320312 626.221679688 173.290039062 658.936523438 173.290039062 c 0
 692.065015534 173.290039062 718.936641075 200.190847166 718.936641075 233.285392465 c 0
 718.936641075 233.685786539 718.932707782 234.087087211 718.924804688 234.489257812 c 0
 718.289606542 266.839883775 718.075303005 295.510331987 717.949555927 322.693934584 c 1
 739.758210981 322.868599525 762.152714804 323.179766736 787.219726562 323.797851562 c 0
 819.640625 324.59765625 845.71484375 351.166992188 845.71484375 383.779296875 c 0
 845.71484375 416.912962334 818.806670024 443.77939319 785.72112817 443.77939319 c 0
 785.218805518 443.77939319 784.715058923 443.77320022 784.209960938 443.760742188 c 0
 760.790913937 443.183240424 738.870584334 442.887552824 716.810445506 442.713110917 c 1
 716.156042541 470.716954123 715.050599288 500.310163885 713.124023438 533.5234375 c 0
 711.297851562 565.000976562 685.158203125 590 653.225585938 590 c 0
 620.017610764 590 593.22410932 563.003669828 593.22410932 530.0247938 c 0
 593.22410932 528.849333154 593.258148097 527.666272212 593.327148438 526.4765625 c 0
 595.116489815 495.637263855 596.164060768 468.233601968 596.79597851 442.100165026 c 1
 594.757572088 442.083659936 443.92119461 439.664301258 392.963650166 439.627610705 c 1
 392.311778598 467.741076861 391.205580277 497.38739437 389.265625 530.8203125 c 0
 387.438476562 562.297851562 361.298828125 587.296875 329.3671875 587.296875 c 0
 296.159718279 587.296875 269.365616856 560.300456974 269.365616856 527.323082136 c 0
 269.365616856 526.147154642 269.399686541 524.963622141 269.46875 523.7734375 c 0
 271.260536863 492.895929776 272.30869215 465.462747663 272.940519584 439.300408942 c 1
 250.546272544 438.996928729 226.694180818 438.422099425 199.755859375 437.366210938 c 0
 167.745117188 436.111328125 142.142578125 409.728515625 142.142578125 377.413085938 c 0
 142.142578125 344.297851562 169.02734375 317.413085938 202.142578125 317.413085938 c 0
 203.073360376 317.413085938 228.341889052 318.659290851 274.093904854 319.276745502 c 1
 274.220437182 291.890316779 274.438543045 262.557484686 275.08984375 229.388671875 c 0
 275.729492188 196.826171875 302.36328125 170.586914062 335.078125 170.586914062 c 0
 368.207183726 170.586914062 395.078208473 197.488642396 395.078208473 230.58302361 c 0
 395.078208473 230.982842814 395.074286514 231.383565866 395.06640625 231.78515625 c 0
 394.435071684 263.943948178 394.219485144 292.577678169 394.092715703 319.628258931 c 1
EndSplineSet
Ligature2: "ligatures-1" plus plus
EndChar

StartChar: rightequal
Encoding: 260 -1 99
Width: 500
VWidth: 0
Flags: HW
LayerCount: 2
Fore
SplineSet
-19.857421875 295.286132812 m 0
 -19.857421875 262.124885589 7.08340320693 235.285895996 40.1282873032 235.285895996 c 0
 40.9251714588 235.285895996 41.7256053879 235.301504026 42.529296875 235.333007812 c 0
 121.83807434 238.442459153 332.387368046 237.759842904 381.362304688 238.967773438 c 0
 413.783203125 239.767578125 439.857421875 266.337890625 439.857421875 298.94921875 c 0
 439.857421875 332.084404442 412.948341406 358.950249133 379.862033946 358.950249133 c 0
 379.360265585 358.950249133 378.85707652 358.944070243 378.352539062 358.931640625 c 0
 285.668945312 356.645507812 147.65234375 359.547851562 37.755859375 355.240234375 c 0
 5.7451171875 353.985351562 -19.857421875 327.602539062 -19.857421875 295.286132812 c 0
-19.857421875 437.286132812 m 0
 -19.857421875 404.124885589 7.08340320693 377.285895996 40.1282873032 377.285895996 c 0
 40.9251714588 377.285895996 41.7256053879 377.301504026 42.529296875 377.333007812 c 0
 121.83807434 380.442459153 332.387368046 379.759842904 381.362304688 380.967773438 c 0
 413.783203125 381.767578125 439.857421875 408.337890625 439.857421875 440.94921875 c 0
 439.857421875 474.084404442 412.948341406 500.950249133 379.862033946 500.950249133 c 0
 379.360265585 500.950249133 378.85707652 500.944070243 378.352539062 500.931640625 c 0
 285.668945312 498.645507812 147.65234375 501.547851562 37.755859375 497.240234375 c 0
 5.7451171875 495.985351562 -19.857421875 469.602539062 -19.857421875 437.286132812 c 0
EndSplineSet
Substitution2: "longequal-1" longequal
EndChar

StartChar: lefthyphen
Encoding: 261 -1 100
Width: 500
VWidth: 0
Flags: HW
LayerCount: 2
Fore
SplineSet
60.142578125 358.326171875 m 0
 60.142578125 325.163997849 87.0833597194 298.325933473 120.128207292 298.325933473 c 0
 120.925117881 298.325933473 121.72557849 298.341542034 122.529296875 298.373046875 c 0
 201.845001951 301.482769825 412.344028709 300.798813033 461.362304688 302.0078125 c 0
 493.783203125 302.807617188 519.857421875 329.376953125 519.857421875 361.989257812 c 0
 519.857421875 395.122923272 492.949248149 421.989354127 459.863706295 421.989354127 c 0
 459.361383643 421.989354127 458.857637048 421.983161157 458.352539062 421.970703125 c 0
 365.668945312 419.684570312 227.65234375 422.587890625 117.755859375 418.279296875 c 0
 85.7451171875 417.024414062 60.142578125 390.641601562 60.142578125 358.326171875 c 0
EndSplineSet
Substitution2: "longhyphen-1" longhyphen
EndChar

StartChar: leftequal
Encoding: 262 -1 101
Width: 500
VWidth: 0
Flags: HW
LayerCount: 2
Fore
SplineSet
60.142578125 295.286132812 m 0
 60.142578125 262.124885589 87.0834032069 235.285895996 120.128287303 235.285895996 c 0
 120.925171459 235.285895996 121.725605388 235.301504026 122.529296875 235.333007812 c 0
 201.83807434 238.442459153 412.387368046 237.759842904 461.362304688 238.967773438 c 0
 493.783203125 239.767578125 519.857421875 266.337890625 519.857421875 298.94921875 c 0
 519.857421875 332.084404442 492.948341406 358.950249133 459.862033946 358.950249133 c 0
 459.360265585 358.950249133 458.85707652 358.944070243 458.352539062 358.931640625 c 0
 365.668945312 356.645507812 227.65234375 359.547851562 117.755859375 355.240234375 c 0
 85.7451171875 353.985351562 60.142578125 327.602539062 60.142578125 295.286132812 c 0
60.142578125 437.286132812 m 0
 60.142578125 404.124885589 87.0834032069 377.285895996 120.128287303 377.285895996 c 0
 120.925171459 377.285895996 121.725605388 377.301504026 122.529296875 377.333007812 c 0
 201.83807434 380.442459153 412.387368046 379.759842904 461.362304688 380.967773438 c 0
 493.783203125 381.767578125 519.857421875 408.337890625 519.857421875 440.94921875 c 0
 519.857421875 474.084404442 492.948341406 500.950249133 459.862033946 500.950249133 c 0
 459.360265585 500.950249133 458.85707652 500.944070243 458.352539062 500.931640625 c 0
 365.668945312 498.645507812 227.65234375 501.547851562 117.755859375 497.240234375 c 0
 85.7451171875 495.985351562 60.142578125 469.602539062 60.142578125 437.286132812 c 0
EndSplineSet
Substitution2: "longequal-1" longequal
EndChar

StartChar: leftarrowhead
Encoding: 263 -1 102
Width: 500
VWidth: 0
Flags: HW
LayerCount: 2
Fore
SplineSet
338.415039062 156.533203125 m 0
 346.011586462 153.367155769 353.779214675 151.897824515 361.366953968 151.897824515 c 0
 392.971999604 151.897824515 421.456054688 177.390050448 421.456054688 211.942382812 c 0
 421.456054688 236.895507812 406.190429688 258.311523438 384.497070312 267.3515625 c 0
 363.353593524 276.163637352 340.111554335 289.511620681 314.096717393 307.410609271 c 1
 324.897043642 307.332715698 335.964473304 307.294255466 347.315164466 307.294255466 c 0
 383.816553586 307.294255466 423.24722834 307.691983376 466.14453125 308.455078125 c 0
 498.759765625 309.03515625 525.05859375 335.693359375 525.05859375 368.4453125 c 0
 525.05859375 401.560546875 498.173828125 428.4453125 465.05859375 428.4453125 c 0
 461.899414062 428.4453125 408.030273438 427.28125 348.120117188 427.28125 c 0
 335.074528446 427.28125 322.616309958 427.342699006 310.748848655 427.454013416 c 1
 342.110536079 449.138854548 371.384931653 468.229940163 393.3984375 480.249023438 c 0
 412.046875 490.430664062 424.708984375 510.22265625 424.708984375 532.948242188 c 0
 424.708984375 567.876706191 395.855911127 592.995964961 364.49361385 592.995964961 c 0
 354.988269921 592.995964961 345.252432125 590.688544409 336.01953125 585.647460938 c 0
 254.45788086 541.116213515 100.780698903 423.359419685 98.5019401984 421.587332797 c 0
 91.7426053488 416.337343526 75.289065051 400.824264995 75.2890625 374.198242188 c 0
 75.2890625 365.24833463 77.5404936954 344.638997142 96.3408451335 328.571531318 c 0
 179.027602257 257.575580152 257.408472701 190.292284172 338.415039062 156.533203125 c 0
EndSplineSet
EndChar

StartChar: rightarrowhead
Encoding: 264 -1 103
Width: 500
VWidth: 0
Flags: HW
LayerCount: 2
Fore
SplineSet
76.5439453125 194.87109375 m 0
 76.5439453125 159.874325155 105.460868459 134.824123719 136.784584783 134.824123719 c 0
 146.639101071 134.824123719 156.731828917 137.30345912 166.237304688 142.732421875 c 0
 237.675632066 183.534052882 301.264627758 252.359715051 395.80642152 309.813212609 c 0
 402.365044084 313.794913858 424.7109375 329.66934979 424.7109375 361.125976562 c 1
 424.7109375 372.364881238 421.065891825 394.638314525 399.470197698 410.024943668 c 0
 227.796845604 532.919704131 219.024306838 539.199648206 166.388671875 571.188476562 c 0
 156.513341715 577.189623795 145.917269109 579.921863855 135.569321686 579.921863855 c 0
 104.297644239 579.921863855 75.2919921875 554.969437437 75.2919921875 519.875976562 c 0
 75.2919921875 498.141601562 86.873046875 479.090820312 104.1953125 468.563476562 c 0
 126.63231772 454.928014314 153.292763913 437.229310577 181.115555928 418.083971611 c 1
 142.601421617 415.765995168 114.000411241 414.04464093 89.5385535951 414.04464093 c 0
 72.7633236177 414.04464093 57.9346614997 414.854162359 43.1904296875 416.8359375 c 0
 40.4568818962 417.2033757 37.7468103851 417.381702536 35.0723554507 417.381702536 c 0
 2.45529752848 417.381702536 -24.8642578125 390.857904908 -24.8642578125 357.373046875 c 0
 -24.8642578125 326.989257812 -2.2314453125 301.850585938 27.0810546875 297.91015625 c 0
 47.9234060273 295.108486253 68.9003019512 294.070365121 90.5202640456 294.070365121 c 0
 118.021189706 294.070365121 146.562611406 295.750069287 177.191143156 297.616438087 c 1
 149.54983441 275.806915837 125.177693151 257.477291602 106.850585938 247.009765625 c 0
 88.7529296875 236.673828125 76.5439453125 217.186523438 76.5439453125 194.87109375 c 0
EndSplineSet
EndChar

StartChar: righthyphen
Encoding: 265 -1 104
Width: 500
VWidth: 0
Flags: HW
LayerCount: 2
Fore
SplineSet
-19.857421875 358.326171875 m 0
 -19.857421875 325.163997849 7.08335971939 298.325933473 40.1282072922 298.325933473 c 0
 40.9251178805 298.325933473 41.7255784897 298.341542034 42.529296875 298.373046875 c 0
 121.845001951 301.482769825 332.344028709 300.798813033 381.362304688 302.0078125 c 0
 413.783203125 302.807617188 439.857421875 329.376953125 439.857421875 361.989257812 c 0
 439.857421875 395.122923272 412.949248149 421.989354127 379.863706295 421.989354127 c 0
 379.361383643 421.989354127 378.857637048 421.983161157 378.352539062 421.970703125 c 0
 285.668945312 419.684570312 147.65234375 422.587890625 37.755859375 418.279296875 c 0
 5.7451171875 417.024414062 -19.857421875 390.641601562 -19.857421875 358.326171875 c 0
EndSplineSet
Substitution2: "longhyphen-1" longhyphen
EndChar

StartChar: longequal
Encoding: 266 -1 105
Width: 500
VWidth: 0
Flags: HW
LayerCount: 2
Fore
SplineSet
-19.857421875 295.286132812 m 0
 -19.857421875 262.124885589 7.08340320693 235.285895996 40.1282873032 235.285895996 c 0
 40.9251714588 235.285895996 41.7256053879 235.301504026 42.529296875 235.333007812 c 0
 95.5625507243 237.412441234 457.175089449 238.864533218 461.362304688 238.967773438 c 0
 493.783203125 239.767578125 519.857421875 266.337890625 519.857421875 298.94921875 c 0
 519.857421875 332.084404442 492.948341406 358.950249133 459.862033946 358.950249133 c 0
 459.360265585 358.950249133 458.85707652 358.944070243 458.352539062 358.931640625 c 0
 454.147690697 358.827864081 96.0900143422 357.526574319 37.755859375 355.240234375 c 0
 5.7451171875 353.985351562 -19.857421875 327.602539062 -19.857421875 295.286132812 c 0
-19.857421875 437.286132812 m 0
 -19.857421875 404.124885589 7.08340320693 377.285895996 40.1282873032 377.285895996 c 0
 40.9251714588 377.285895996 41.7256053879 377.301504026 42.529296875 377.333007812 c 0
 95.5625507243 379.412441234 457.175089449 380.864533218 461.362304688 380.967773438 c 0
 493.783203125 381.767578125 519.857421875 408.337890625 519.857421875 440.94921875 c 0
 519.857421875 474.084404442 492.948341406 500.950249133 459.862033946 500.950249133 c 0
 459.360265585 500.950249133 458.85707652 500.944070243 458.352539062 500.931640625 c 0
 454.147690697 500.827864081 96.0900143422 499.526574319 37.755859375 497.240234375 c 0
 5.7451171875 495.985351562 -19.857421875 469.602539062 -19.857421875 437.286132812 c 0
EndSplineSet
EndChar

StartChar: longhyphen
Encoding: 267 -1 106
Width: 500
VWidth: 0
Flags: HW
LayerCount: 2
Fore
SplineSet
-19.857421875 358.326171875 m 0
 -19.857421875 325.163997849 7.08335971939 298.325933473 40.1282072922 298.325933473 c 0
 40.9251178805 298.325933473 41.7255784897 298.341542034 42.529296875 298.373046875 c 0
 95.5287462039 300.450299633 457.175089449 301.904572281 461.362304688 302.0078125 c 0
 493.783203125 302.807617188 519.857421875 329.376953125 519.857421875 361.989257812 c 0
 519.857421875 395.122923272 492.949248149 421.989354127 459.863706295 421.989354127 c 0
 459.361383643 421.989354127 458.857637048 421.983161157 458.352539062 421.970703125 c 0
 454.147688097 421.867031981 96.11238267 420.567391867 37.755859375 418.279296875 c 0
 5.7451171875 417.024414062 -19.857421875 390.641601562 -19.857421875 358.326171875 c 0
EndSplineSet
EndChar
